0
SECTION
2
HEADER
9
$INSUNITS
70
1
9
$ACADVER
1
AC1014
9
$HANDSEED
5
FFFF
0
ENDSEC
0
SECTION
2
TABLES
0
TABLE
2
VPORT
5
8
100
AcDbSymbolTable
0
ENDTAB
0
TABLE
2
LTYPE
5
5
100
AcDbSymbolTable
0
LTYPE
5
14
100
AcDbSymbolTableRecord
100
AcDbLinetypeTableRecord
2
BYBLOCK
70
0
0
LTYPE
5
15
100
AcDbSymbolTableRecord
100
AcDbLinetypeTableRecord
2
BYLAYER
70
0
0
LTYPE
5
16
100
AcDbSymbolTableRecord
100
AcDbLinetypeTableRecord
2
DASHED
70
0
3
Dashed __ __ __ __ __ __ __ __ __ __ __ __ __ _
72
65
73
2
40
0.75
49
0.5
74
0
49
-0.25
74
0
0
ENDTAB
0
TABLE
2
LAYER
5
2
100
AcDbSymbolTable
70
3
0
LAYER
5
50
100
AcDbSymbolTableRecord
100
AcDbLayerTableRecord
2
1
70
0
62
7
6
DASHED
0
LAYER
5
51
100
AcDbSymbolTableRecord
100
AcDbLayerTableRecord
2
0
70
0
62
7
6
CONTINUOUS
0
ENDTAB
0
TABLE
2
STYLE
5
3
100
AcDbSymbolTable
70
1
0
STYLE
5
11
100
AcDbSymbolTableRecord
100
AcDbTextStyleTableRecord
2
STANDARD
70
0
0
ENDTAB
0
TABLE
2
VIEW
5
6
100
AcDbSymbolTable
70
0
0
ENDTAB
0
TABLE
2
UCS
5
7
100
AcDbSymbolTable
70
0
0
ENDTAB
0
TABLE
2
APPID
5
9
100
AcDbSymbolTable
70
2
0
APPID
5
12
100
AcDbSymbolTableRecord
100
AcDbRegAppTableRecord
2
ACAD
70
0
0
ENDTAB
0
TABLE
2
DIMSTYLE
5
A
100
AcDbSymbolTable
70
1
0
ENDTAB
0
TABLE
2
BLOCK_RECORD
5
1
100
AcDbSymbolTable
70
1
0
BLOCK_RECORD
5
1F
100
AcDbSymbolTableRecord
100
AcDbBlockTableRecord
2
*MODEL_SPACE
0
BLOCK_RECORD
5
1B
100
AcDbSymbolTableRecord
100
AcDbBlockTableRecord
2
*PAPER_SPACE
0
ENDTAB
0
ENDSEC
0
SECTION
2
BLOCKS
0
BLOCK
5
20
100
AcDbEntity
100
AcDbBlockBegin
2
*MODEL_SPACE
0
ENDBLK
5
21
100
AcDbEntity
100
AcDbBlockEnd
0
BLOCK
5
1C
100
AcDbEntity
100
AcDbBlockBegin
2
*PAPER_SPACE
0
ENDBLK
5
1D
100
AcDbEntity
100
AcDbBlockEnd
0
ENDSEC
0
SECTION
2
ENTITIES
0
CIRCLE
5
100
100
AcDbEntity
8
0
100
AcDbCircle
10
1.9672498167718664
20
2.0714569258521234
30
0
40
0.28999999999999998
210
0
220
0
230
1
0
CIRCLE
5
101
100
AcDbEntity
8
0
100
AcDbCircle
10
0.70000002234000858
20
1.5000000478714468
30
0
40
0.04449999999999972
210
0
220
0
230
1
0
CIRCLE
5
102
100
AcDbEntity
8
0
100
AcDbCircle
10
6.7909666773135706
20
1.5005069696524871
30
0
40
0.044499999999999373
210
0
220
0
230
1
0
CIRCLE
5
103
100
AcDbEntity
8
0
100
AcDbCircle
10
2.5007367688868403
20
2.9836404694354171
30
0
40
0.28999999999999998
210
0
220
0
230
1
0
CIRCLE
5
104
100
AcDbEntity
8
0
100
AcDbCircle
10
4.4314254779920477
20
1.9960802091505683
30
0
40
0.05000000000000026
210
0
220
0
230
1
0
CIRCLE
5
105
100
AcDbEntity
8
0
100
AcDbCircle
10
6.5314254779920473
20
1.9960802091505685
30
0
40
0.049999999999999559
210
0
220
0
230
1
0
CIRCLE
5
106
100
AcDbEntity
8
0
100
AcDbCircle
10
6.7909666773135706
20
3.5994931931104324
30
0
40
0.044499999999999373
210
0
220
0
230
1
0
CIRCLE
5
107
100
AcDbEntity
8
0
100
AcDbCircle
10
6.5314254779920473
20
3.1960802091505682
30
0
40
0.049999999999999559
210
0
220
0
230
1
0
CIRCLE
5
108
100
AcDbEntity
8
0
100
AcDbCircle
10
0.70000002234000858
20
3.6000001148914724
30
0
40
0.04449999999999972
210
0
220
0
230
1
0
CIRCLE
5
109
100
AcDbEntity
8
0
100
AcDbCircle
10
4.4314254779920477
20
3.1960802091505682
30
0
40
0.05000000000000026
210
0
220
0
230
1
0
CIRCLE
5
110
100
AcDbEntity
8
0
100
AcDbCircle
10
5.4814254779920475
20
2.5960802091505681
30
0
40
1.1150000000000007
210
0
220
0
230
1
0
CIRCLE
5
111
100
AcDbEntity
8
0
100
AcDbCircle
10
1.4337628646568938
20
2.9836404694354171
30
0
40
0.13500000000000006
210
0
220
0
230
1
0
LWPOLYLINE
5
112
100
AcDbEntity
8
0
100
AcDbPolyline
90
4
70
1
43
0.0
10
0.50000001595714894
20
3.8000001212743322
10
0.50000001595714894
20
1.3000000414885873
10
6.9905838900563406
20
1.3000000414885873
10
6.9905838900563406
20
3.8000001212743322
0
LINE
5
113
100
AcDbEntity
8
1
100
AcDbLine
10
1.2267623531463057
20
2.4308550831601363
30
0
11
1.6289041178828876
21
2.4308550831601363
31
0
0
LINE
5
114
100
AcDbEntity
8
1
100
AcDbLine
10
1.6289041178828876
20
2.4308550831601363
30
0
11
1.6289041178828871
21
2.6557818329280551
31
0
0
LINE
5
115
100
AcDbEntity
8
1
100
AcDbLine
10
1.6289041178828871
20
2.6557818329280551
30
0
11
1.2267623531463057
21
2.6557818329280551
31
0
0
LINE
5
116
100
AcDbEntity
8
1
100
AcDbLine
10
1.2267623531463057
20
2.6557818329280551
30
0
11
1.2267623531463057
21
2.4308550831601363
31
0
0
LINE
5
117
100
AcDbEntity
8
1
100
AcDbLine
10
2.3063144668037676
20
2.4308550831601363
30
0
11
2.7084562315403491
21
2.4308550831601363
31
0
0
LINE
5
118
100
AcDbEntity
8
1
100
AcDbLine
10
2.7084562315403491
20
2.4308550831601363
30
0
11
2.7084562315403491
21
2.6557818329280551
31
0
0
LINE
5
119
100
AcDbEntity
8
1
100
AcDbLine
10
2.7084562315403491
20
2.6557818329280551
30
0
11
2.3063144668037672
21
2.6557818329280551
31
0
0
LINE
5
120
100
AcDbEntity
8
1
100
AcDbLine
10
2.3063144668037672
20
2.6557818329280551
30
0
11
2.3063144668037676
21
2.4308550831601363
31
0
0
LINE
5
121
100
AcDbEntity
8
1
100
AcDbLine
10
1.7744740879455603
20
1.490117502460427
30
0
11
2.1766158526821417
21
1.490117502460427
31
0
0
LINE
5
122
100
AcDbEntity
8
1
100
AcDbLine
10
2.1766158526821417
20
1.490117502460427
30
0
11
2.1766158526821417
21
1.7150442522283456
31
0
0
LINE
5
123
100
AcDbEntity
8
1
100
AcDbLine
10
2.1766158526821417
20
1.7150442522283456
30
0
11
1.7744740879455603
21
1.7150442522283456
31
0
0
LINE
5
124
100
AcDbEntity
8
1
100
AcDbLine
10
1.7744740879455603
20
1.7150442522283456
30
0
11
1.7744740879455603
21
1.490117502460427
31
0
0
LINE
5
125
100
AcDbEntity
8
0
100
AcDbLine
10
1.2614169167471629
20
2.5027605297098745
30
0
11
1.2488990320215023
21
2.4904572393052016
31
0
0
SPLINE
5
126
100
AcDbEntity
8
0
100
AcDbSpline
70
0
71
2
72
6
73
3
74
0
42
0.000000001
43
0.0000000001
44
0.0000000001
40
0
40
0
40
0
40
1
40
1
40
1
10
1.2488990320215023
20
2.4904572393052016
30
0
10
1.2460378008080226
20
2.5132040143991814
30
0
10
1.2388131928006443
20
2.5420309208549647
30
0
0
SPLINE
5
127
100
AcDbEntity
8
0
100
AcDbSpline
70
0
71
2
72
6
73
3
74
0
42
0.000000001
43
0.0000000001
44
0.0000000001
40
0
40
0
40
0
40
1
40
1
40
1
10
1.2388131928006443
20
2.5420309208549647
30
0
10
1.2325900161579784
20
2.5665659643573817
30
0
10
1.2291565392884627
20
2.5737905752980597
30
0
0
SPLINE
5
128
100
AcDbEntity
8
0
100
AcDbSpline
70
0
71
2
72
6
73
3
74
0
42
0.000000001
43
0.0000000001
44
0.0000000001
40
0
40
0
40
0
40
1
40
1
40
1
10
1.2291565392884627
20
2.5737905752980597
30
0
10
1.2257945938592767
20
2.5810867118124681
30
0
10
1.2203582557269852
20
2.5810867118124681
30
0
0
SPLINE
5
129
100
AcDbEntity
8
0
100
AcDbSpline
70
0
71
2
72
6
73
3
74
0
42
0.000000001
43
0.0000000001
44
0.0000000001
40
0
40
0
40
0
40
1
40
1
40
1
10
1.2203582557269852
20
2.5810867118124681
30
0
10
1.2109877265094717
20
2.5810867118124681
30
0
10
1.2068389411032614
20
2.5667805645449691
30
0
0
SPLINE
5
130
100
AcDbEntity
8
0
100
AcDbSpline
70
0
71
2
72
6
73
3
74
0
42
0.000000001
43
0.0000000001
44
0.0000000001
40
0
40
0
40
0
40
1
40
1
40
1
10
1.2068389411032614
20
2.5667805645449691
30
0
10
1.2041923042107701
20
2.5673528160676038
30
0
10
1.2043353641581294
20
2.5696417986917477
30
0
0
SPLINE
5
131
100
AcDbEntity
8
0
100
AcDbSpline
70
0
71
2
72
6
73
3
74
0
42
0.000000001
43
0.0000000001
44
0.0000000001
40
0
40
0
40
0
40
1
40
1
40
1
10
1.2043353641581294
20
2.5696417986917477
30
0
10
1.2045499570124676
20
2.5740767010593775
30
0
10
1.2097717030237456
20
2.5823742660051989
30
0
0
SPLINE
5
132
100
AcDbEntity
8
0
100
AcDbSpline
70
0
71
2
72
6
73
3
74
0
42
0.000000001
43
0.0000000001
44
0.0000000001
40
0
40
0
40
0
40
1
40
1
40
1
10
1.2097717030237456
20
2.5823742660051989
30
0
10
1.2160664103734158
20
2.5923885737857275
30
0
10
1.2257945938592767
20
2.5923885737857275
30
0
0
SPLINE
5
133
100
AcDbEntity
8
0
100
AcDbSpline
70
0
71
2
72
6
73
3
74
0
42
0.000000001
43
0.0000000001
44
0.0000000001
40
0
40
0
40
0
40
1
40
1
40
1
10
1.2257945938592767
20
2.5923885737857275
30
0
10
1.2338060389103798
20
2.5923885737857275
30
0
10
1.2382409471446081
20
2.5850924372713191
30
0
0
SPLINE
5
134
100
AcDbEntity
8
0
100
AcDbSpline
70
0
71
2
72
6
73
3
74
0
42
0.000000001
43
0.0000000001
44
0.0000000001
40
0
40
0
40
0
40
1
40
1
40
1
10
1.2382409471446081
20
2.5850924372713191
30
0
10
1.2426758553788364
20
2.5778678263306412
30
0
10
1.2484698492461248
20
2.5552641023841227
30
0
0
SPLINE
5
135
100
AcDbEntity
8
0
100
AcDbSpline
70
0
71
2
72
6
73
3
74
0
42
0.000000001
43
0.0000000001
44
0.0000000001
40
0
40
0
40
0
40
1
40
1
40
1
10
1.2484698492461248
20
2.5552641023841227
30
0
10
1.2549076143431799
20
2.5298706933309507
30
0
10
1.2586987454810428
20
2.50998515238375
30
0
0
SPLINE
5
136
100
AcDbEntity
8
0
100
AcDbSpline
70
0
71
2
72
6
73
3
74
0
42
0.000000001
43
0.0000000001
44
0.0000000001
40
0
40
0
40
0
40
1
40
1
40
1
10
1.2586987454810428
20
2.50998515238375
30
0
10
1.2899576915750302
20
2.5537619714702005
30
0
10
1.2899576915750299
20
2.571000878458209
30
0
0
SPLINE
5
137
100
AcDbEntity
8
0
100
AcDbSpline
70
0
71
2
72
6
73
3
74
0
42
0.000000001
43
0.0000000001
44
0.0000000001
40
0
40
0
40
0
40
1
40
1
40
1
10
1.2899576915750299
20
2.571000878458209
30
0
10
1.2899576915750299
20
2.5777247751831802
30
0
10
1.2845213490427894
20
2.5808005860511507
30
0
0
LINE
5
138
100
AcDbEntity
8
0
100
AcDbLine
10
1.2845213490427894
20
2.5808005860511507
30
0
11
1.2950363769056235
21
2.5923885737857275
31
0
0
SPLINE
5
139
100
AcDbEntity
8
0
100
AcDbSpline
70
0
71
2
72
6
73
3
74
0
42
0.000000001
43
0.0000000001
44
0.0000000001
40
0
40
0
40
0
40
1
40
1
40
1
10
1.2950363769056235
20
2.5923885737857275
30
0
10
1.3021894505393732
20
2.5883828600600745
30
0
10
1.3021894505393732
20
2.5800137578073246
30
0
0
SPLINE
5
140
100
AcDbEntity
8
0
100
AcDbSpline
70
0
71
2
72
6
73
3
74
0
42
0.000000001
43
0.0000000001
44
0.0000000001
40
0
40
0
40
0
40
1
40
1
40
1
10
1.3021894505393732
20
2.5800137578073246
30
0
10
1.3021894505393732
20
2.5694271985041608
30
0
10
1.2849505376847656
20
2.5420309208549647
30
0
0
LINE
5
141
100
AcDbEntity
8
0
100
AcDbLine
10
1.2849505376847656
20
2.5420309208549647
30
0
11
1.2768675611933333
21
2.5295845675696333
31
0
0
LINE
5
142
100
AcDbEntity
8
0
100
AcDbLine
10
1.2768675611933333
20
2.5295845675696333
30
0
11
1.2710020358857155
21
2.5203571114993268
31
0
0
SPLINE
5
143
100
AcDbEntity
8
0
100
AcDbSpline
70
0
71
2
72
6
73
3
74
0
42
0.000000001
43
0.0000000001
44
0.0000000001
40
0
40
0
40
0
40
1
40
1
40
1
10
1.2710020358857155
20
2.5203571114993268
30
0
10
1.2705013216700087
20
2.5195702597891048
30
0
10
1.26749703050917
20
2.5143485174444513
30
0
0
LINE
5
144
100
AcDbEntity
8
0
100
AcDbLine
10
1.26749703050917
20
2.5143485174444513
30
0
11
1.2642066135870138
21
2.5085545235771627
31
0
0
SPLINE
5
145
100
AcDbEntity
8
0
100
AcDbSpline
70
0
71
2
72
6
73
3
74
0
42
0.000000001
43
0.0000000001
44
0.0000000001
40
0
40
0
40
0
40
1
40
1
40
1
10
1.2642066135870138
20
2.5085545235771627
30
0
10
1.2634913050503189
20
2.5073384949581623
30
0
10
1.2614169167471629
20
2.5027605297098745
30
0
0
SPLINE
5
146
100
AcDbEntity
8
0
100
AcDbSpline
70
0
71
2
72
6
73
3
74
0
42
0.000000001
43
0.0000000001
44
0.0000000001
40
0
40
0
40
0
40
1
40
1
40
1
10
1.3225041801285502
20
2.4914586677366151
30
0
10
1.3064097644526136
20
2.4914586677366151
30
0
10
1.3064097644526136
20
2.5127748374904031
30
0
0
SPLINE
5
147
100
AcDbEntity
8
0
100
AcDbSpline
70
0
71
2
72
6
73
3
74
0
42
0.000000001
43
0.0000000001
44
0.0000000001
40
0
40
0
40
0
40
1
40
1
40
1
10
1.3064097644526136
20
2.5127748374904031
30
0
10
1.3064097644526136
20
2.5299422189046812
30
0
10
1.3189991806186037
20
2.5458220461262289
30
0
0
SPLINE
5
148
100
AcDbEntity
8
0
100
AcDbSpline
70
0
71
2
72
6
73
3
74
0
42
0.000000001
43
0.0000000001
44
0.0000000001
40
0
40
0
40
0
40
1
40
1
40
1
10
1.3189991806186037
20
2.5458220461262289
30
0
10
1.3315885967845937
20
2.5617734223879025
30
0
10
1.3451079040750689
20
2.5617734223879025
30
0
0
SPLINE
5
149
100
AcDbEntity
8
0
100
AcDbSpline
70
0
71
2
72
6
73
3
74
0
42
0.000000001
43
0.0000000001
44
0.0000000001
40
0
40
0
40
0
40
1
40
1
40
1
10
1.3451079040750689
20
2.5617734223879025
30
0
10
1.3614169199385926
20
2.5617734223879025
30
0
10
1.3614169199385928
20
2.5404572526341145
30
0
0
SPLINE
5
150
100
AcDbEntity
8
0
100
AcDbSpline
70
0
71
2
72
6
73
3
74
0
42
0.000000001
43
0.0000000001
44
0.0000000001
40
0
40
0
40
0
40
1
40
1
40
1
10
1.3614169199385928
20
2.5404572526341145
30
0
10
1.3614169199385928
20
2.523218333912908
30
0
10
1.3488275037726027
20
2.5073384949581623
30
0
0
SPLINE
5
151
100
AcDbEntity
8
0
100
AcDbSpline
70
0
71
2
72
6
73
3
74
0
42
0.000000001
43
0.0000000001
44
0.0000000001
40
0
40
0
40
0
40
1
40
1
40
1
10
1.3488275037726027
20
2.5073384949581623
30
0
10
1.3362380876066124
20
2.4914586677366151
30
0
10
1.3225041801285502
20
2.4914586677366151
30
0
0
SPLINE
5
152
100
AcDbEntity
8
0
100
AcDbSpline
70
0
71
2
72
6
73
3
74
0
42
0.000000001
43
0.0000000001
44
0.0000000001
40
0
40
0
40
0
40
1
40
1
40
1
10
1.3311594081426177
20
2.4994701186543171
30
0
10
1.3393854475147089
20
2.4994701186543171
30
0
10
1.3448933156206799
20
2.5086260491508932
30
0
0
SPLINE
5
153
100
AcDbEntity
8
0
100
AcDbSpline
70
0
71
2
72
6
73
3
74
0
42
0.000000001
43
0.0000000001
44
0.0000000001
40
0
40
0
40
0
40
1
40
1
40
1
10
1.3448933156206799
20
2.5086260491508932
30
0
10
1.3504727093003814
20
2.5177820031138651
30
0
10
1.3504727093003814
20
2.5314443732849989
30
0
0
SPLINE
5
154
100
AcDbEntity
8
0
100
AcDbSpline
70
0
71
2
72
6
73
3
74
0
42
0.000000001
43
0.0000000001
44
0.0000000001
40
0
40
0
40
0
40
1
40
1
40
1
10
1.3504727093003814
20
2.5314443732849989
30
0
10
1.3504727093003814
20
2.5537619714702005
30
0
10
1.3365957506748583
20
2.5537619714702005
30
0
0
SPLINE
5
155
100
AcDbEntity
8
0
100
AcDbSpline
70
0
71
2
72
6
73
3
74
0
42
0.000000001
43
0.0000000001
44
0.0000000001
40
0
40
0
40
0
40
1
40
1
40
1
10
1.3365957506748583
20
2.5537619714702005
30
0
10
1.3284412368764975
20
2.5537619714702005
30
0
10
1.322861843196796
20
2.544534491933498
30
0
0
SPLINE
5
156
100
AcDbEntity
8
0
100
AcDbSpline
70
0
71
2
72
6
73
3
74
0
42
0.000000001
43
0.0000000001
44
0.0000000001
40
0
40
0
40
0
40
1
40
1
40
1
10
1.322861843196796
20
2.544534491933498
30
0
10
1.317353975090825
20
2.535378561436922
30
0
10
1.317353975090825
20
2.5217877168395182
30
0
0
SPLINE
5
157
100
AcDbEntity
8
0
100
AcDbSpline
70
0
71
2
72
6
73
3
74
0
42
0.000000001
43
0.0000000001
44
0.0000000001
40
0
40
0
40
0
40
1
40
1
40
1
10
1.317353975090825
20
2.5217877168395182
30
0
10
1.317353975090825
20
2.4994701186543171
30
0
10
1.3311594081426177
20
2.4994701186543171
30
0
0
SPLINE
5
158
100
AcDbEntity
8
0
100
AcDbSpline
70
0
71
2
72
6
73
3
74
0
42
0.000000001
43
0.0000000001
44
0.0000000001
40
0
40
0
40
0
40
1
40
1
40
1
10
1.3984698540332696
20
2.5143485174444513
30
0
10
1.4005442599362223
20
2.5133470890130378
30
0
10
1.4005442599362223
20
2.5117734090589896
30
0
0
SPLINE
5
159
100
AcDbEntity
8
0
100
AcDbSpline
70
0
71
2
72
6
73
3
74
0
42
0.000000001
43
0.0000000001
44
0.0000000001
40
0
40
0
40
0
40
1
40
1
40
1
10
1.4005442599362223
20
2.5117734090589896
30
0
10
1.4005442599362223
20
2.5066231922880666
30
0
10
1.3928189347798376
20
2.4990409417455388
30
0
0
SPLINE
5
160
100
AcDbEntity
8
0
100
AcDbSpline
70
0
71
2
72
6
73
3
74
0
42
0.000000001
43
0.0000000001
44
0.0000000001
40
0
40
0
40
0
40
1
40
1
40
1
10
1.3928189347798376
20
2.4990409417455388
30
0
10
1.3851651469303814
20
2.4914586677366151
30
0
10
1.3799433928525302
20
2.4914586677366151
30
0
0
SPLINE
5
161
100
AcDbEntity
8
0
100
AcDbSpline
70
0
71
2
72
6
73
3
74
0
42
0.000000001
43
0.0000000001
44
0.0000000001
40
0
40
0
40
0
40
1
40
1
40
1
10
1.3799433928525302
20
2.4914586677366151
30
0
10
1.3740063478377806
20
2.4914586677366151
30
0
10
1.3740063478377806
20
2.5000423701769519
30
0
0
SPLINE
5
162
100
AcDbEntity
8
0
100
AcDbSpline
70
0
71
2
72
6
73
3
74
0
42
0.000000001
43
0.0000000001
44
0.0000000001
40
0
40
0
40
0
40
1
40
1
40
1
10
1.3740063478377806
20
2.5000423701769519
30
0
10
1.3740063478377806
20
2.5052641125216053
30
0
10
1.3746501249341461
20
2.5107004550538461
30
0
0
LINE
5
163
100
AcDbEntity
8
0
100
AcDbLine
10
1.3746501249341461
20
2.5107004550538461
30
0
11
1.3754369531779724
21
2.5170666769773735
31
0
0
LINE
5
164
100
AcDbEntity
8
0
100
AcDbLine
10
1.3754369531779724
20
2.5170666769773735
30
0
11
1.3809448212839435
21
2.5668521018518971
31
0
0
SPLINE
5
165
100
AcDbEntity
8
0
100
AcDbSpline
70
0
71
2
72
6
73
3
74
0
42
0.000000001
43
0.0000000001
44
0.0000000001
40
0
40
0
40
0
40
1
40
1
40
1
10
1.3809448212839432
20
2.5668521018518971
30
0
10
1.3835199296694047
20
2.5895988886790748
30
0
10
1.3965385227441733
20
2.6048349388042569
30
0
0
SPLINE
5
166
100
AcDbEntity
8
0
100
AcDbSpline
70
0
71
2
72
6
73
3
74
0
42
0.000000001
43
0.0000000001
44
0.0000000001
40
0
40
0
40
0
40
1
40
1
40
1
10
1.3965385227441733
20
2.6048349388042569
30
0
10
1.4096286648590679
20
2.6200709889294389
30
0
10
1.4266529951258853
20
2.6200709889294389
30
0
0
SPLINE
5
167
100
AcDbEntity
8
0
100
AcDbSpline
70
0
71
2
72
6
73
3
74
0
42
0.000000001
43
0.0000000001
44
0.0000000001
40
0
40
0
40
0
40
1
40
1
40
1
10
1.4266529951258853
20
2.6200709889294389
30
0
10
1.4308017599989995
20
2.6200709889294389
30
0
10
1.4336629941457784
20
2.6193556745261453
30
0
0
LINE
5
168
100
AcDbEntity
8
0
100
AcDbLine
10
1.4336629941457784
20
2.6193556745261453
30
0
11
1.4235056352177888
21
2.6089837154105688
31
0
0
SPLINE
5
169
100
AcDbEntity
8
0
100
AcDbSpline
70
0
71
2
72
6
73
3
74
0
42
0.000000001
43
0.0000000001
44
0.0000000001
40
0
40
0
40
0
40
1
40
1
40
1
10
1.4235056352177888
20
2.6089837154105688
30
0
10
1.4201436751221055
20
2.6101282067226408
30
0
10
1.4156372354475477
20
2.6101282067226408
30
0
0
SPLINE
5
170
100
AcDbEntity
8
0
100
AcDbSpline
70
0
71
2
72
6
73
3
74
0
42
0.000000001
43
0.0000000001
44
0.0000000001
40
0
40
0
40
0
40
1
40
1
40
1
10
1.4156372354475477
20
2.6101282067226408
30
0
10
1.4049076249969232
20
2.6101282067226408
30
0
10
1.3995428315048088
20
2.602545956180113
30
0
0
SPLINE
5
171
100
AcDbEntity
8
0
100
AcDbSpline
70
0
71
2
72
6
73
3
74
0
42
0.000000001
43
0.0000000001
44
0.0000000001
40
0
40
0
40
0
40
1
40
1
40
1
10
1.3995428315048088
20
2.602545956180113
30
0
10
1.394249551853227
20
2.5950352194781172
30
0
10
1.3922466832572027
20
2.5770094725130845
30
0
0
LINE
5
172
100
AcDbEntity
8
0
100
AcDbLine
10
1.3922466832572027
20
2.5770094725130845
30
0
11
1.3855943238391597
21
2.5170666769773735
31
0
0
SPLINE
5
173
100
AcDbEntity
8
0
100
AcDbSpline
70
0
71
2
72
6
73
3
74
0
42
0.000000001
43
0.0000000001
44
0.0000000001
40
0
40
0
40
0
40
1
40
1
40
1
10
1.3855943238391597
20
2.5170666769773735
30
0
10
1.3848074838621356
20
2.5101282035312109
30
0
10
1.3848074838621356
20
2.5071239182369709
30
0
0
SPLINE
5
174
100
AcDbEntity
8
0
100
AcDbSpline
70
0
71
2
72
6
73
3
74
0
42
0.000000001
43
0.0000000001
44
0.0000000001
40
0
40
0
40
0
40
1
40
1
40
1
10
1.3848074838621356
20
2.5071239182369709
30
0
10
1.3848074838621356
20
2.5006861472733175
30
0
10
1.3870249409125492
20
2.5006861472733175
30
0
0
SPLINE
5
175
100
AcDbEntity
8
0
100
AcDbSpline
70
0
71
2
72
6
73
3
74
0
42
0.000000001
43
0.0000000001
44
0.0000000001
40
0
40
0
40
0
40
1
40
1
40
1
10
1.3870249409125492
20
2.5006861472733175
30
0
10
1.3896715748717412
20
2.5006861472733175
30
0
10
1.3932481234218139
20
2.5049064611865575
30
0
0
SPLINE
5
176
100
AcDbEntity
8
0
100
AcDbSpline
70
0
71
2
72
6
73
3
74
0
42
0.000000001
43
0.0000000001
44
0.0000000001
40
0
40
0
40
0
40
1
40
1
40
1
10
1.3932481234218139
20
2.5049064611865575
30
0
10
1.3968246485054909
20
2.5091983006735283
30
0
10
1.3984698540332696
20
2.5143485174444513
30
0
0
SPLINE
5
177
100
AcDbEntity
8
0
100
AcDbSpline
70
0
71
2
72
6
73
3
74
0
42
0.000000001
43
0.0000000001
44
0.0000000001
40
0
40
0
40
0
40
1
40
1
40
1
10
1.4602724318179505
20
2.5214300655044704
30
0
10
1.4521179297527875
20
2.5089121749122105
30
0
10
1.441889021784672
20
2.5001854213244128
30
0
0
SPLINE
5
178
100
AcDbEntity
8
0
100
AcDbSpline
70
0
71
2
72
6
73
3
74
0
42
0.000000001
43
0.0000000001
44
0.0000000001
40
0
40
0
40
0
40
1
40
1
40
1
10
1.441889021784672
20
2.5001854213244128
30
0
10
1.431660137282952
20
2.4914586677366151
30
0
10
1.4252223663192982
20
2.4914586677366151
30
0
0
SPLINE
5
179
100
AcDbEntity
8
0
100
AcDbSpline
70
0
71
2
72
6
73
3
74
0
42
0.000000001
43
0.0000000001
44
0.0000000001
40
0
40
0
40
0
40
1
40
1
40
1
10
1.4252223663192982
20
2.4914586677366151
30
0
10
1.418140818259279
20
2.4914586677366151
30
0
10
1.418140818259279
20
2.5009007239945089
30
0
0
SPLINE
5
180
100
AcDbEntity
8
0
100
AcDbSpline
70
0
71
2
72
6
73
3
74
0
42
0.000000001
43
0.0000000001
44
0.0000000001
40
0
40
0
40
0
40
1
40
1
40
1
10
1.418140818259279
20
2.5009007239945089
30
0
10
1.418140818259279
20
2.5044057352376532
30
0
10
1.4190707211169618
20
2.5124171861553553
30
0
0
LINE
5
181
100
AcDbEntity
8
0
100
AcDbLine
10
1.4190707211169618
20
2.5124171861553553
30
0
11
1.4216458295024232
21
2.5358792756526283
31
0
0
SPLINE
5
182
100
AcDbEntity
8
0
100
AcDbSpline
70
0
71
2
72
6
73
3
74
0
42
0.000000001
43
0.0000000001
44
0.0000000001
40
0
40
0
40
0
40
1
40
1
40
1
10
1.4216458295024232
20
2.5358792756526283
30
0
10
1.4217173550761537
20
2.536379989868335
30
0
10
1.4220034808374713
20
2.5400280639921382
30
0
0
LINE
5
183
100
AcDbEntity
8
0
100
AcDbLine
10
1.4220034808374713
20
2.5400280639921382
30
0
11
1.4224326577462496
21
2.5446775665473544
31
0
0
SPLINE
5
184
100
AcDbEntity
8
0
100
AcDbSpline
70
0
71
2
72
6
73
3
74
0
42
0.000000001
43
0.0000000001
44
0.0000000001
40
0
40
0
40
0
40
1
40
1
40
1
10
1.4224326577462496
20
2.5446775665473544
30
0
10
1.4226472579338365
20
2.5467519489839114
30
0
10
1.4226472579338365
20
2.5483971545116901
30
0
0
SPLINE
5
185
100
AcDbEntity
8
0
100
AcDbSpline
70
0
71
2
72
6
73
3
74
0
42
0.000000001
43
0.0000000001
44
0.0000000001
40
0
40
0
40
0
40
1
40
1
40
1
10
1.4226472579338365
20
2.5483971545116901
30
0
10
1.4226472579338365
20
2.5525459428512001
30
0
10
1.4202867497359621
20
2.5525459428512001
30
0
0
SPLINE
5
186
100
AcDbEntity
8
0
100
AcDbSpline
70
0
71
2
72
6
73
3
74
0
42
0.000000001
43
0.0000000001
44
0.0000000001
40
0
40
0
40
0
40
1
40
1
40
1
10
1.4202867497359621
20
2.5525459428512001
30
0
10
1.4148504072037216
20
2.5525459428512001
30
0
10
1.4085556873875287
20
2.5403141897534556
30
0
0
SPLINE
5
187
100
AcDbEntity
8
0
100
AcDbSpline
70
0
71
2
72
6
73
3
74
0
42
0.000000001
43
0.0000000001
44
0.0000000001
40
0
40
0
40
0
40
1
40
1
40
1
10
1.4085556873875287
20
2.5403141897534556
30
0
10
1.4071966076210676
20
2.5413871437585995
30
0
10
1.4071966076210676
20
2.5426031723775999
30
0
0
SPLINE
5
188
100
AcDbEntity
8
0
100
AcDbSpline
70
0
71
2
72
6
73
3
74
0
42
0.000000001
43
0.0000000001
44
0.0000000001
40
0
40
0
40
0
40
1
40
1
40
1
10
1.4071966076210676
20
2.5426031723775999
30
0
10
1.4071966076210676
20
2.5470380747452293
30
0
10
1.415064983924913
20
2.5544057485665657
30
0
0
SPLINE
5
189
100
AcDbEntity
8
0
100
AcDbSpline
70
0
71
2
72
6
73
3
74
0
42
0.000000001
43
0.0000000001
44
0.0000000001
40
0
40
0
40
0
40
1
40
1
40
1
10
1.415064983924913
20
2.5544057485665657
30
0
10
1.4230049092688846
20
2.5617734223879025
30
0
10
1.4276544000909031
20
2.5617734223879025
30
0
0
SPLINE
5
190
100
AcDbEntity
8
0
100
AcDbSpline
70
0
71
2
72
6
73
3
74
0
42
0.000000001
43
0.0000000001
44
0.0000000001
40
0
40
0
40
0
40
1
40
1
40
1
10
1.4276544000909031
20
2.5617734223879025
30
0
10
1.4335914685720481
20
2.5617734223879025
30
0
10
1.4335914685720481
20
2.5536189085895415
30
0
0
SPLINE
5
191
100
AcDbEntity
8
0
100
AcDbSpline
70
0
71
2
72
6
73
3
74
0
42
0.000000001
43
0.0000000001
44
0.0000000001
40
0
40
0
40
0
40
1
40
1
40
1
10
1.4335914685720481
20
2.5536189085895415
30
0
10
1.4335914685720481
20
2.5516875773004455
30
0
10
1.4333053428107305
20
2.5491124689149838
30
0
0
LINE
5
192
100
AcDbEntity
8
0
100
AcDbLine
10
1.4333053428107305
20
2.5491124689149838
30
0
11
1.4326615657143653
21
2.543604600809013
31
0
0
LINE
5
193
100
AcDbEntity
8
0
100
AcDbLine
10
1.4326615657143653
20
2.543604600809013
30
0
11
1.4320177886179999
21
2.5375960184873354
31
0
0
LINE
5
194
100
AcDbEntity
8
0
100
AcDbLine
10
1.4320177886179999
20
2.5375960184873354
30
0
11
1.4297288059938558
21
2.5171382260174999
31
0
0
SPLINE
5
195
100
AcDbEntity
8
0
100
AcDbSpline
70
0
71
2
72
6
73
3
74
0
42
0.000000001
43
0.0000000001
44
0.0000000001
40
0
40
0
40
0
40
1
40
1
40
1
10
1.4297288059938558
20
2.5171382260174999
30
0
10
1.4291565544712208
20
2.511916483672846
30
0
10
1.4291565544712208
20
2.5065516667143362
30
0
0
SPLINE
5
196
100
AcDbEntity
8
0
100
AcDbSpline
70
0
71
2
72
6
73
3
74
0
42
0.000000001
43
0.0000000001
44
0.0000000001
40
0
40
0
40
0
40
1
40
1
40
1
10
1.4291565544712208
20
2.5065516667143362
30
0
10
1.4291565544712208
20
2.5016160501310001
30
0
10
1.4328046168618263
20
2.5016160501310001
30
0
0
SPLINE
5
197
100
AcDbEntity
8
0
100
AcDbSpline
70
0
71
2
72
6
73
3
74
0
42
0.000000001
43
0.0000000001
44
0.0000000001
40
0
40
0
40
0
40
1
40
1
40
1
10
1.4328046168618263
20
2.5016160501310001
30
0
10
1.4408875933532588
20
2.5016160501310001
30
0
10
1.4510449757476438
20
2.5149207689670861
30
0
0
SPLINE
5
198
100
AcDbEntity
8
0
100
AcDbSpline
70
0
71
2
72
6
73
3
74
0
42
0.000000001
43
0.0000000001
44
0.0000000001
40
0
40
0
40
0
40
1
40
1
40
1
10
1.4510449757476438
20
2.5149207689670861
30
0
10
1.4612738602493638
20
2.528225487803172
30
0
10
1.4631336659647296
20
2.5412440808779406
30
0
0
LINE
5
199
100
AcDbEntity
8
0
100
AcDbLine
10
1.4631336659647296
20
2.5412440808779406
30
0
11
1.4655657232027302
21
2.5581968738378298
31
0
0
LINE
5
200
100
AcDbEntity
8
0
100
AcDbLine
10
1.4655657232027302
20
2.5581968738378298
30
0
11
1.4771536874709115
21
2.5621310737229503
31
0
0
SPLINE
5
201
100
AcDbEntity
8
0
100
AcDbSpline
70
0
71
2
72
6
73
3
74
0
42
0.000000001
43
0.0000000001
44
0.0000000001
40
0
40
0
40
0
40
1
40
1
40
1
10
1.4771536874709115
20
2.5621310737229503
30
0
10
1.4751508306080847
20
2.5538334970439309
30
0
10
1.4741494021766715
20
2.5473242005065466
30
0
0
LINE
5
202
100
AcDbEntity
8
0
100
AcDbLine
10
1.4741494021766715
20
2.5473242005065466
30
0
11
1.4698575626897008
21
2.5174243517788173
31
0
0
SPLINE
5
203
100
AcDbEntity
8
0
100
AcDbSpline
70
0
71
2
72
6
73
3
74
0
42
0.000000001
43
0.0000000001
44
0.0000000001
40
0
40
0
40
0
40
1
40
1
40
1
10
1.4698575626897008
20
2.5174243517788173
30
0
10
1.469499911354653
20
2.5147061687794992
30
0
10
1.4692853111670658
20
2.5128463630641336
30
0
0
LINE
5
204
100
AcDbEntity
8
0
100
AcDbLine
10
1.4692853111670658
20
2.5128463630641336
30
0
11
1.4687846086845571
21
2.5089121749122105
31
0
0
SPLINE
5
205
100
AcDbEntity
8
0
100
AcDbSpline
70
0
71
2
72
6
73
3
74
0
42
0.000000001
43
0.0000000001
44
0.0000000001
40
0
40
0
40
0
40
1
40
1
40
1
10
1.4687846086845571
20
2.5089121749122105
30
0
10
1.468355408309383
20
2.5052641125216053
30
0
10
1.468355408309383
20
2.5037619581412875
30
0
0
SPLINE
5
206
100
AcDbEntity
8
0
100
AcDbSpline
70
0
71
2
72
6
73
3
74
0
42
0.000000001
43
0.0000000001
44
0.0000000001
40
0
40
0
40
0
40
1
40
1
40
1
10
1.468355408309383
20
2.5037619581412875
30
0
10
1.468355408309383
20
2.5006861472733175
30
0
10
1.4700721628772877
20
2.5006861472733175
30
0
0
SPLINE
5
207
100
AcDbEntity
8
0
100
AcDbSpline
70
0
71
2
72
6
73
3
74
0
42
0.000000001
43
0.0000000001
44
0.0000000001
40
0
40
0
40
0
40
1
40
1
40
1
10
1.4700721628772877
20
2.5006861472733175
30
0
10
1.476152259039498
20
2.5006861472733175
30
0
10
1.4824469788556909
20
2.5141339172568644
30
0
0
SPLINE
5
208
100
AcDbEntity
8
0
100
AcDbSpline
70
0
71
2
72
6
73
3
74
0
42
0.000000001
43
0.0000000001
44
0.0000000001
40
0
40
0
40
0
40
1
40
1
40
1
10
1.4824469788556909
20
2.5141339172568644
30
0
10
1.4843783101447872
20
2.51298943767799
30
0
10
1.4843783101447872
20
2.5118449346327201
30
0
0
SPLINE
5
209
100
AcDbEntity
8
0
100
AcDbSpline
70
0
71
2
72
6
73
3
74
0
42
0.000000001
43
0.0000000001
44
0.0000000001
40
0
40
0
40
0
40
1
40
1
40
1
10
1.4843783101447872
20
2.5118449346327201
30
0
10
1.4843783101447872
20
2.5093413752873848
30
0
10
1.4781551393687202
20
2.501759101278461
30
0
0
SPLINE
5
210
100
AcDbEntity
8
0
100
AcDbSpline
70
0
71
2
72
6
73
3
74
0
42
0.000000001
43
0.0000000001
44
0.0000000001
40
0
40
0
40
0
40
1
40
1
40
1
10
1.4781551393687202
20
2.501759101278461
30
0
10
1.4697860371159703
20
2.4914586677366151
30
0
10
1.4626329634822206
20
2.4914586677366151
30
0
0
SPLINE
5
211
100
AcDbEntity
8
0
100
AcDbSpline
70
0
71
2
72
6
73
3
74
0
42
0.000000001
43
0.0000000001
44
0.0000000001
40
0
40
0
40
0
40
1
40
1
40
1
10
1.4626329634822206
20
2.4914586677366151
30
0
10
1.4574111976711717
20
2.4914586677366151
30
0
10
1.4574111976711717
20
2.4984686902229036
30
0
0
SPLINE
5
212
100
AcDbEntity
8
0
100
AcDbSpline
70
0
71
2
72
6
73
3
74
0
42
0.000000001
43
0.0000000001
44
0.0000000001
40
0
40
0
40
0
40
1
40
1
40
1
10
1.4574111976711717
20
2.4984686902229036
30
0
10
1.4574111976711717
20
2.5006861472733175
30
0
10
1.4579119236200759
20
2.5044057352376532
30
0
0
LINE
5
213
100
AcDbEntity
8
0
100
AcDbLine
10
1.4579119236200759
20
2.5044057352376532
30
0
11
1.4586987518639023
21
2.5101282035312109
31
0
0
SPLINE
5
214
100
AcDbEntity
8
0
100
AcDbSpline
70
0
71
2
72
6
73
3
74
0
42
0.000000001
43
0.0000000001
44
0.0000000001
40
0
40
0
40
0
40
1
40
1
40
1
10
1.4586987518639023
20
2.5101282035312109
30
0
10
1.4593425289602677
20
2.5147776943532296
30
0
10
1.4595571291478546
20
2.5164228998810083
30
0
0
LINE
5
215
100
AcDbEntity
8
0
100
AcDbLine
10
1.4595571291478546
20
2.5164228998810083
30
0
11
1.4602724318179505
21
2.5214300655044704
31
0
0
LINE
5
216
100
AcDbEntity
8
0
100
AcDbLine
10
1.5464670136907854
20
2.4958220562637119
30
0
11
1.5358804778540176
21
2.4914586677366151
31
0
0
LINE
5
217
100
AcDbEntity
8
0
100
AcDbLine
10
1.5358804778540176
20
2.4914586677366151
30
0
11
1.536095054575209
21
2.4934615245994416
31
0
0
LINE
5
218
100
AcDbEntity
8
0
100
AcDbLine
10
1.536095054575209
20
2.4934615245994416
30
0
11
1.5366673060978437
21
2.498754815984221
31
0
0
LINE
5
219
100
AcDbEntity
8
0
100
AcDbLine
10
1.5366673060978437
20
2.498754815984221
30
0
11
1.5371680320467482
21
2.5037619581412875
31
0
0
LINE
5
220
100
AcDbEntity
8
0
100
AcDbLine
10
1.5371680320467482
20
2.5037619581412875
30
0
11
1.5407445688636232
21
2.5358792756526283
31
0
0
LINE
5
221
100
AcDbEntity
8
0
100
AcDbLine
10
1.5407445688636232
20
2.5358792756526283
30
0
11
1.541245271346132
21
2.5395273497764315
31
0
0
SPLINE
5
222
100
AcDbEntity
8
0
100
AcDbSpline
70
0
71
2
72
6
73
3
74
0
42
0.000000001
43
0.0000000001
44
0.0000000001
40
0
40
0
40
0
40
1
40
1
40
1
10
1.541245271346132
20
2.5395273497764315
30
0
10
1.5415313971074494
20
2.5423885839232105
30
0
10
1.5415313971074494
20
2.5451067434561327
30
0
0
SPLINE
5
223
100
AcDbEntity
8
0
100
AcDbSpline
70
0
71
2
72
6
73
3
74
0
42
0.000000001
43
0.0000000001
44
0.0000000001
40
0
40
0
40
0
40
1
40
1
40
1
10
1.5415313971074494
20
2.5451067434561327
30
0
10
1.5415313971074494
20
2.5520452286354933
30
0
10
1.5373110831942092
20
2.5520452286354933
30
0
0
SPLINE
5
224
100
AcDbEntity
8
0
100
AcDbSpline
70
0
71
2
72
6
73
3
74
0
42
0.000000001
43
0.0000000001
44
0.0000000001
40
0
40
0
40
0
40
1
40
1
40
1
10
1.5373110831942092
20
2.5520452286354933
30
0
10
1.5307302610830944
20
2.5520452286354933
30
0
10
1.5219319584551705
20
2.5385974469187489
30
0
0
SPLINE
5
225
100
AcDbEntity
8
0
100
AcDbSpline
70
0
71
2
72
6
73
3
74
0
42
0.000000001
43
0.0000000001
44
0.0000000001
40
0
40
0
40
0
40
1
40
1
40
1
10
1.5219319584551705
20
2.5385974469187489
30
0
10
1.5132052048673728
20
2.525149665202004
30
0
10
1.5118461251009114
20
2.51298943767799
30
0
0
LINE
5
226
100
AcDbEntity
8
0
100
AcDbLine
10
1.5118461251009114
20
2.51298943767799
30
0
11
1.5099863193855458
21
2.4958220562637119
31
0
0
LINE
5
227
100
AcDbEntity
8
0
100
AcDbLine
10
1.5099863193855458
20
2.4958220562637119
30
0
11
1.4993282345086518
21
2.4914586677366151
31
0
0
LINE
5
228
100
AcDbEntity
8
0
100
AcDbLine
10
1.4993282345086518
20
2.4914586677366151
30
0
11
1.4995428346962387
21
2.4934615245994416
31
0
0
LINE
5
229
100
AcDbEntity
8
0
100
AcDbLine
10
1.4995428346962387
20
2.4934615245994416
30
0
11
1.5001150862188737
21
2.498754815984221
31
0
0
LINE
5
230
100
AcDbEntity
8
0
100
AcDbLine
10
1.5001150862188737
20
2.498754815984221
30
0
11
1.5006873377415086
21
2.5037619581412875
31
0
0
LINE
5
231
100
AcDbEntity
8
0
100
AcDbLine
10
1.5006873377415086
20
2.5037619581412875
30
0
11
1.5043354001321139
21
2.5369522413909702
31
0
0
LINE
5
232
100
AcDbEntity
8
0
100
AcDbLine
10
1.5043354001321139
20
2.5369522413909702
30
0
11
1.5047645770408922
21
2.5407433666622339
31
0
0
SPLINE
5
233
100
AcDbEntity
8
0
100
AcDbSpline
70
0
71
2
72
6
73
3
74
0
42
0.000000001
43
0.0000000001
44
0.0000000001
40
0
40
0
40
0
40
1
40
1
40
1
10
1.5047645770408922
20
2.5407433666622339
30
0
10
1.5052653029897967
20
2.5451782690298632
30
0
10
1.5052653029897967
20
2.5478964520291814
30
0
0
SPLINE
5
234
100
AcDbEntity
8
0
100
AcDbSpline
70
0
71
2
72
6
73
3
74
0
42
0.000000001
43
0.0000000001
44
0.0000000001
40
0
40
0
40
0
40
1
40
1
40
1
10
1.5052653029897967
20
2.5478964520291814
30
0
10
1.5052653029897967
20
2.5524744172774696
30
0
10
1.5029763203656525
20
2.5524744172774696
30
0
0
SPLINE
5
235
100
AcDbEntity
8
0
100
AcDbSpline
70
0
71
2
72
6
73
3
74
0
42
0.000000001
43
0.0000000001
44
0.0000000001
40
0
40
0
40
0
40
1
40
1
40
1
10
1.5029763203656525
20
2.5524744172774696
30
0
10
1.4976115034071427
20
2.5524744172774696
30
0
10
1.4913883326310757
20
2.5403141897534556
30
0
0
SPLINE
5
236
100
AcDbEntity
8
0
100
AcDbSpline
70
0
71
2
72
6
73
3
74
0
42
0.000000001
43
0.0000000001
44
0.0000000001
40
0
40
0
40
0
40
1
40
1
40
1
10
1.4913883326310757
20
2.5403141897534556
30
0
10
1.489743127103297
20
2.5416732695199169
30
0
10
1.489743127103297
20
2.5426746979513304
30
0
0
SPLINE
5
237
100
AcDbEntity
8
0
100
AcDbSpline
70
0
71
2
72
6
73
3
74
0
42
0.000000001
43
0.0000000001
44
0.0000000001
40
0
40
0
40
0
40
1
40
1
40
1
10
1.489743127103297
20
2.5426746979513304
30
0
10
1.489743127103297
20
2.5469665491714988
30
0
10
1.4975399778334122
20
2.5543342229928352
30
0
0
SPLINE
5
238
100
AcDbEntity
8
0
100
AcDbSpline
70
0
71
2
72
6
73
3
74
0
42
0.000000001
43
0.0000000001
44
0.0000000001
40
0
40
0
40
0
40
1
40
1
40
1
10
1.4975399778334122
20
2.5543342229928352
30
0
10
1.5054083541372576
20
2.5617734223879025
30
0
10
1.5099863193855458
20
2.5617734223879025
30
0
0
SPLINE
5
239
100
AcDbEntity
8
0
100
AcDbSpline
70
0
71
2
72
6
73
3
74
0
42
0.000000001
43
0.0000000001
44
0.0000000001
40
0
40
0
40
0
40
1
40
1
40
1
10
1.5099863193855458
20
2.5617734223879025
30
0
10
1.5161379645878821
20
2.5617734223879025
30
0
10
1.5161379645878821
20
2.5539050226176614
30
0
0
SPLINE
5
240
100
AcDbEntity
8
0
100
AcDbSpline
70
0
71
2
72
6
73
3
74
0
42
0.000000001
43
0.0000000001
44
0.0000000001
40
0
40
0
40
0
40
1
40
1
40
1
10
1.5161379645878821
20
2.5539050226176614
30
0
10
1.5161379645878821
20
2.5519021657548349
30
0
10
1.5157803132528342
20
2.548540229125547
30
0
0
LINE
5
241
100
AcDbEntity
8
0
100
AcDbLine
10
1.5157803132528342
20
2.548540229125547
30
0
11
1.5152080851965948
21
2.5427462352582584
31
0
0
LINE
5
242
100
AcDbEntity
8
0
100
AcDbLine
10
1.5152080851965948
20
2.5427462352582584
30
0
11
1.51463583367396
21
2.5378821442486528
31
0
0
LINE
5
243
100
AcDbEntity
8
0
100
AcDbLine
10
1.51463583367396
20
2.5378821442486528
30
0
11
1.5140635821513251
21
2.5328034530514603
31
0
0
LINE
5
244
100
AcDbEntity
8
0
100
AcDbLine
10
1.5140635821513251
20
2.5328034530514603
30
0
11
1.5160664390141516
21
2.5359508129595567
31
0
0
SPLINE
5
245
100
AcDbEntity
8
0
100
AcDbSpline
70
0
71
2
72
6
73
3
74
0
42
0.000000001
43
0.0000000001
44
0.0000000001
40
0
40
0
40
0
40
1
40
1
40
1
10
1.5160664390141516
20
2.5359508129595567
30
0
10
1.5320893408495557
20
2.5617734223879025
30
0
10
1.5458947856345462
20
2.5617734223879025
30
0
0
SPLINE
5
246
100
AcDbEntity
8
0
100
AcDbSpline
70
0
71
2
72
6
73
3
74
0
42
0.000000001
43
0.0000000001
44
0.0000000001
40
0
40
0
40
0
40
1
40
1
40
1
10
1.5458947856345462
20
2.5617734223879025
30
0
10
1.5525471333193914
20
2.5617734223879025
30
0
10
1.5525471333193914
20
2.5521882915161522
30
0
0
SPLINE
5
247
100
AcDbEntity
8
0
100
AcDbSpline
70
0
71
2
72
6
73
3
74
0
42
0.000000001
43
0.0000000001
44
0.0000000001
40
0
40
0
40
0
40
1
40
1
40
1
10
1.5525471333193914
20
2.5521882915161522
30
0
10
1.5525471333193914
20
2.5505430859883735
30
0
10
1.5519748817967565
20
2.5452498063367917
30
0
0
LINE
5
248
100
AcDbEntity
8
0
100
AcDbLine
10
1.5519748817967565
20
2.5452498063367917
30
0
11
1.5512595791266606
21
2.5386689724924794
31
0
0
LINE
5
249
100
AcDbEntity
8
0
100
AcDbLine
10
1.5512595791266606
20
2.5386689724924794
30
0
11
1.5502581506952473
21
2.5297276304502923
31
0
0
SPLINE
5
250
100
AcDbEntity
8
0
100
AcDbSpline
70
0
71
2
72
6
73
3
74
0
42
0.000000001
43
0.0000000001
44
0.0000000001
40
0
40
0
40
0
40
1
40
1
40
1
10
1.5502581506952473
20
2.5297276304502923
30
0
10
1.556910521846488
20
2.543533063502085
30
0
10
1.5659949267693338
20
2.5526174684249305
30
0
0
SPLINE
5
251
100
AcDbEntity
8
0
100
AcDbSpline
70
0
71
2
72
6
73
3
74
0
42
0.000000001
43
0.0000000001
44
0.0000000001
40
0
40
0
40
0
40
1
40
1
40
1
10
1.5659949267693338
20
2.5526174684249305
30
0
10
1.5751508572659101
20
2.5617734223879025
30
0
10
1.5823039308996598
20
2.5617734223879025
30
0
0
SPLINE
5
252
100
AcDbEntity
8
0
100
AcDbSpline
70
0
71
2
72
6
73
3
74
0
42
0.000000001
43
0.0000000001
44
0.0000000001
40
0
40
0
40
0
40
1
40
1
40
1
10
1.5823039308996598
20
2.5617734223879025
30
0
10
1.5893854789596791
20
2.5617734223879025
30
0
10
1.5893854789596791
20
2.5526174684249305
30
0
0
SPLINE
5
253
100
AcDbEntity
8
0
100
AcDbSpline
70
0
71
2
72
6
73
3
74
0
42
0.000000001
43
0.0000000001
44
0.0000000001
40
0
40
0
40
0
40
1
40
1
40
1
10
1.5893854789596791
20
2.5526174684249305
30
0
10
1.5893854789596791
20
2.5486832802730079
30
0
10
1.5885986507158527
20
2.5432469494739651
30
0
0
LINE
5
254
100
AcDbEntity
8
0
100
AcDbLine
10
1.5885986507158527
20
2.5432469494739651
30
0
11
1.5848075137113908
21
2.5167090256423257
31
0
0
SPLINE
5
255
100
AcDbEntity
8
0
100
AcDbSpline
70
0
71
2
72
6
73
3
74
0
42
0.000000001
43
0.0000000001
44
0.0000000001
40
0
40
0
40
0
40
1
40
1
40
1
10
1.5848075137113908
20
2.5167090256423257
30
0
10
1.5835914850923907
20
2.5084829980034322
30
0
10
1.5835914850923907
20
2.5039765583288749
30
0
0
SPLINE
5
256
100
AcDbEntity
8
0
100
AcDbSpline
70
0
71
2
72
6
73
3
74
0
42
0.000000001
43
0.0000000001
44
0.0000000001
40
0
40
0
40
0
40
1
40
1
40
1
10
1.5835914850923907
20
2.5039765583288749
30
0
10
1.5835914850923907
20
2.5001854213244128
30
0
10
1.5856658909953432
20
2.5001854213244128
30
0
0
SPLINE
5
257
100
AcDbEntity
8
0
100
AcDbSpline
70
0
71
2
72
6
73
3
74
0
42
0.000000001
43
0.0000000001
44
0.0000000001
40
0
40
0
40
0
40
1
40
1
40
1
10
1.5856658909953432
20
2.5001854213244128
30
0
10
1.5880979247669482
20
2.5001854213244128
30
0
10
1.5917459871575534
20
2.5042626840901923
30
0
0
SPLINE
5
258
100
AcDbEntity
8
0
100
AcDbSpline
70
0
71
2
72
6
73
3
74
0
42
0.000000001
43
0.0000000001
44
0.0000000001
40
0
40
0
40
0
40
1
40
1
40
1
10
1.5917459871575534
20
2.5042626840901923
30
0
10
1.5954655985882849
20
2.5083399233895758
30
0
10
1.5976830321723028
20
2.5134901401604988
30
0
0
SPLINE
5
259
100
AcDbEntity
8
0
100
AcDbSpline
70
0
71
2
72
6
73
3
74
0
42
0.000000001
43
0.0000000001
44
0.0000000001
40
0
40
0
40
0
40
1
40
1
40
1
10
1.5976830321723028
20
2.5134901401604988
30
0
10
1.5996143634613991
20
2.5122025859677679
30
0
10
1.5996143634613991
20
2.5111296319626244
30
0
0
SPLINE
5
260
100
AcDbEntity
8
0
100
AcDbSpline
70
0
71
2
72
6
73
3
74
0
42
0.000000001
43
0.0000000001
44
0.0000000001
40
0
40
0
40
0
40
1
40
1
40
1
10
1.5996143634613991
20
2.5111296319626244
30
0
10
1.5996143634613991
20
2.5066231922880666
30
0
10
1.5916029360100925
20
2.4990409417455388
30
0
0
SPLINE
5
261
100
AcDbEntity
8
0
100
AcDbSpline
70
0
71
2
72
6
73
3
74
0
42
0.000000001
43
0.0000000001
44
0.0000000001
40
0
40
0
40
0
40
1
40
1
40
1
10
1.5916029360100925
20
2.4990409417455388
30
0
10
1.5836630106661211
20
2.4914586677366151
30
0
10
1.578941994270372
20
2.4914586677366151
30
0
0
SPLINE
5
262
100
AcDbEntity
8
0
100
AcDbSpline
70
0
71
2
72
6
73
3
74
0
42
0.000000001
43
0.0000000001
44
0.0000000001
40
0
40
0
40
0
40
1
40
1
40
1
10
1.578941994270372
20
2.4914586677366151
30
0
10
1.5728618746417662
20
2.4914586677366151
30
0
10
1.5728618746417662
20
2.4996131698017781
30
0
0
SPLINE
5
263
100
AcDbEntity
8
0
100
AcDbSpline
70
0
71
2
72
6
73
3
74
0
42
0.000000001
43
0.0000000001
44
0.0000000001
40
0
40
0
40
0
40
1
40
1
40
1
10
1.5728618746417662
20
2.4996131698017781
30
0
10
1.5728618746417662
20
2.504763386572701
30
0
10
1.5744355545958142
20
2.5155645460634517
30
0
0
LINE
5
264
100
AcDbEntity
8
0
100
AcDbLine
10
1.5744355545958142
20
2.5155645460634517
30
0
11
1.5769391374075454
21
2.5328034530514603
31
0
0
SPLINE
5
265
100
AcDbEntity
8
0
100
AcDbSpline
70
0
71
2
72
6
73
3
74
0
42
0.000000001
43
0.0000000001
44
0.0000000001
40
0
40
0
40
0
40
1
40
1
40
1
10
1.5769391374075454
20
2.5328034530514603
30
0
10
1.5770821885550064
20
2.5337333559091433
30
0
10
1.5774398398900542
20
2.5368807158172397
30
0
0
SPLINE
5
266
100
AcDbEntity
8
0
100
AcDbSpline
70
0
71
2
72
6
73
3
74
0
42
0.000000001
43
0.0000000001
44
0.0000000001
40
0
40
0
40
0
40
1
40
1
40
1
10
1.5774398398900542
20
2.5368807158172397
30
0
10
1.5775829145039106
20
2.5381682582767726
30
0
10
1.5779405658389587
20
2.5412440808779406
30
0
0
SPLINE
5
267
100
AcDbEntity
8
0
100
AcDbSpline
70
0
71
2
72
6
73
3
74
0
42
0.000000001
43
0.0000000001
44
0.0000000001
40
0
40
0
40
0
40
1
40
1
40
1
10
1.5779405658389587
20
2.5412440808779406
30
0
10
1.5782982171740065
20
2.5443199152123066
30
0
10
1.5782982171740065
20
2.5459651207400853
30
0
0
SPLINE
5
268
100
AcDbEntity
8
0
100
AcDbSpline
70
0
71
2
72
6
73
3
74
0
42
0.000000001
43
0.0000000001
44
0.0000000001
40
0
40
0
40
0
40
1
40
1
40
1
10
1.5782982171740065
20
2.5459651207400853
30
0
10
1.5782982171740065
20
2.5520452286354933
30
0
10
1.5742924799819578
20
2.5520452286354933
30
0
0
SPLINE
5
269
100
AcDbEntity
8
0
100
AcDbSpline
70
0
71
2
72
6
73
3
74
0
42
0.000000001
43
0.0000000001
44
0.0000000001
40
0
40
0
40
0
40
1
40
1
40
1
10
1.5742924799819578
20
2.5520452286354933
30
0
10
1.5675686067233821
20
2.5520452286354933
30
0
10
1.5586272529479972
20
2.5385974469187489
30
0
0
SPLINE
5
270
100
AcDbEntity
8
0
100
AcDbSpline
70
0
71
2
72
6
73
3
74
0
42
0.000000001
43
0.0000000001
44
0.0000000001
40
0
40
0
40
0
40
1
40
1
40
1
10
1.5586272529479972
20
2.5385974469187489
30
0
10
1.5497574482127385
20
2.525149665202004
30
0
10
1.5483983449798817
20
2.51298943767799
30
0
0
LINE
5
271
100
AcDbEntity
8
0
100
AcDbLine
10
1.5483983449798817
20
2.51298943767799
30
0
11
1.5464670136907854
21
2.4958220562637119
31
0
0
SPLINE
5
272
100
AcDbEntity
8
0
100
AcDbSpline
70
0
71
2
72
6
73
3
74
0
42
0.000000001
43
0.0000000001
44
0.0000000001
40
0
40
0
40
0
40
1
40
1
40
1
10
1.6496859492968334
20
2.5160652485459605
30
0
10
1.6514741825056773
20
2.5148492433933556
30
0
10
1.6514741825056773
20
2.5132040378655769
30
0
0
SPLINE
5
273
100
AcDbEntity
8
0
100
AcDbSpline
70
0
71
2
72
6
73
3
74
0
42
0.000000001
43
0.0000000001
44
0.0000000001
40
0
40
0
40
0
40
1
40
1
40
1
10
1.6514741825056773
20
2.5132040378655769
30
0
10
1.6514741825056773
20
2.5109865808151635
30
0
10
1.6468962641901803
20
2.5056217638566531
30
0
0
SPLINE
5
274
100
AcDbEntity
8
0
100
AcDbSpline
70
0
71
2
72
6
73
3
74
0
42
0.000000001
43
0.0000000001
44
0.0000000001
40
0
40
0
40
0
40
1
40
1
40
1
10
1.6468962641901803
20
2.5056217638566531
30
0
10
1.6346644524264471
20
2.4914586677366151
30
0
10
1.6227188368232179
20
2.4914586677366151
30
0
0
SPLINE
5
275
100
AcDbEntity
8
0
100
AcDbSpline
70
0
71
2
72
6
73
3
74
0
42
0.000000001
43
0.0000000001
44
0.0000000001
40
0
40
0
40
0
40
1
40
1
40
1
10
1.6227188368232179
20
2.4914586677366151
30
0
10
1.6154226651092161
20
2.4914586677366151
30
0
10
1.6107016721798626
20
2.4972526616039032
30
0
0
SPLINE
5
276
100
AcDbEntity
8
0
100
AcDbSpline
70
0
71
2
72
6
73
3
74
0
42
0.000000001
43
0.0000000001
44
0.0000000001
40
0
40
0
40
0
40
1
40
1
40
1
10
1.6107016721798626
20
2.4972526616039032
30
0
10
1.6059806557841134
20
2.5030466554711919
30
0
10
1.6059806557841134
20
2.512059534820307
30
0
0
SPLINE
5
277
100
AcDbEntity
8
0
100
AcDbSpline
70
0
71
2
72
6
73
3
74
0
42
0.000000001
43
0.0000000001
44
0.0000000001
40
0
40
0
40
0
40
1
40
1
40
1
10
1.6059806557841134
20
2.512059534820307
30
0
10
1.6059806557841134
20
2.5283685506838309
30
0
10
1.6182839696551818
20
2.5450352178824023
30
0
0
SPLINE
5
278
100
AcDbEntity
8
0
100
AcDbSpline
70
0
71
2
72
6
73
3
74
0
42
0.000000001
43
0.0000000001
44
0.0000000001
40
0
40
0
40
0
40
1
40
1
40
1
10
1.6182839696551818
20
2.5450352178824023
30
0
10
1.6306587387007938
20
2.5617734223879025
30
0
10
1.6427474054514839
20
2.5617734223879025
30
0
0
SPLINE
5
279
100
AcDbEntity
8
0
100
AcDbSpline
70
0
71
2
72
6
73
3
74
0
42
0.000000001
43
0.0000000001
44
0.0000000001
40
0
40
0
40
0
40
1
40
1
40
1
10
1.6427474054514839
20
2.5617734223879025
30
0
10
1.6514741825056773
20
2.5617734223879025
30
0
10
1.6514741825056773
20
2.5524028917037391
30
0
0
SPLINE
5
280
100
AcDbEntity
8
0
100
AcDbSpline
70
0
71
2
72
6
73
3
74
0
42
0.000000001
43
0.0000000001
44
0.0000000001
40
0
40
0
40
0
40
1
40
1
40
1
10
1.6514741825056773
20
2.5524028917037391
30
0
10
1.6514741825056773
20
2.5418878579743063
30
0
10
1.6412452745375619
20
2.5318735501937772
30
0
0
SPLINE
5
281
100
AcDbEntity
8
0
100
AcDbSpline
70
0
71
2
72
6
73
3
74
0
42
0.000000001
43
0.0000000001
44
0.0000000001
40
0
40
0
40
0
40
1
40
1
40
1
10
1.6412452745375619
20
2.5318735501937772
30
0
10
1.6310878921431766
20
2.5218592424132487
30
0
10
1.616424117007025
20
2.5179250542613261
30
0
0
SPLINE
5
282
100
AcDbEntity
8
0
100
AcDbSpline
70
0
71
2
72
6
73
3
74
0
42
0.000000001
43
0.0000000001
44
0.0000000001
40
0
40
0
40
0
40
1
40
1
40
1
10
1.616424117007025
20
2.5179250542613261
30
0
10
1.6178547223472166
20
2.5006861472733175
30
0
10
1.6300150085372196
20
2.5006861472733175
30
0
0
SPLINE
5
283
100
AcDbEntity
8
0
100
AcDbSpline
70
0
71
2
72
6
73
3
74
0
42
0.000000001
43
0.0000000001
44
0.0000000001
40
0
40
0
40
0
40
1
40
1
40
1
10
1.6300150085372196
20
2.5006861472733175
30
0
10
1.6420321497141792
20
2.5006861472733175
30
0
10
1.6496859492968334
20
2.5160652485459605
30
0
0
SPLINE
5
284
100
AcDbEntity
8
0
100
AcDbSpline
70
0
71
2
72
6
73
3
74
0
42
0.000000001
43
0.0000000001
44
0.0000000001
40
0
40
0
40
0
40
1
40
1
40
1
10
1.6167102193019469
20
2.5266518078491238
30
0
10
1.6187846486712951
20
2.5259365051790281
30
0
10
1.6205013563064086
20
2.5259365051790281
30
0
0
SPLINE
5
285
100
AcDbEntity
8
0
100
AcDbSpline
70
0
71
2
72
6
73
3
74
0
42
0.000000001
43
0.0000000001
44
0.0000000001
40
0
40
0
40
0
40
1
40
1
40
1
10
1.6205013563064086
20
2.5259365051790281
30
0
10
1.629371184508063
20
2.5259365051790281
30
0
10
1.6360235321929082
20
2.5313728359780709
30
0
0
SPLINE
5
286
100
AcDbEntity
8
0
100
AcDbSpline
70
0
71
2
72
6
73
3
74
0
42
0.000000001
43
0.0000000001
44
0.0000000001
40
0
40
0
40
0
40
1
40
1
40
1
10
1.6360235321929082
20
2.5313728359780709
30
0
10
1.6426758798777534
20
2.5368091785103113
30
0
10
1.6426758798777534
20
2.5441053150247197
30
0
0
SPLINE
5
287
100
AcDbEntity
8
0
100
AcDbSpline
70
0
71
2
72
6
73
3
74
0
42
0.000000001
43
0.0000000001
44
0.0000000001
40
0
40
0
40
0
40
1
40
1
40
1
10
1.6426758798777534
20
2.5441053150247197
30
0
10
1.6426758798777534
20
2.5524744172774696
30
0
10
1.6341637734103338
20
2.5524744172774696
30
0
0
SPLINE
5
288
100
AcDbEntity
8
0
100
AcDbSpline
70
0
71
2
72
6
73
3
74
0
42
0.000000001
43
0.0000000001
44
0.0000000001
40
0
40
0
40
0
40
1
40
1
40
1
10
1.6341637734103338
20
2.5524744172774696
30
0
10
1.6280121047416019
20
2.5524744172774696
30
0
10
1.6230049391181398
20
2.5451067434561327
30
0
0
SPLINE
5
289
100
AcDbEntity
8
0
100
AcDbSpline
70
0
71
2
72
6
73
3
74
0
42
0.000000001
43
0.0000000001
44
0.0000000001
40
0
40
0
40
0
40
1
40
1
40
1
10
1.6230049391181398
20
2.5451067434561327
30
0
10
1.618069299068408
20
2.5378106069417248
30
0
10
1.6167102193019469
20
2.5266518078491238
30
0
0
LINE
5
290
100
AcDbEntity
8
0
100
AcDbLine
10
2.1846385246813007
20
2.5011153241820958
30
0
11
2.2035226430636872
21
2.5000423701769519
31
0
0
LINE
5
291
100
AcDbEntity
8
0
100
AcDbLine
10
2.2035226430636872
20
2.5000423701769519
30
0
11
2.1949389464899491
21
2.4917447934979324
31
0
0
LINE
5
292
100
AcDbEntity
8
0
100
AcDbLine
10
2.1949389464899491
20
2.4917447934979324
30
0
11
2.1619632751610514
21
2.4933184734519807
31
0
0
LINE
5
293
100
AcDbEntity
8
0
100
AcDbLine
10
2.1619632751610514
20
2.4933184734519807
30
0
11
2.1711907429645558
21
2.5021882781872393
31
0
0
LINE
5
294
100
AcDbEntity
8
0
100
AcDbLine
10
2.1711907429645558
20
2.5021882781872393
30
0
11
2.1789160681209405
21
2.5013299243696827
31
0
0
SPLINE
5
295
100
AcDbEntity
8
0
100
AcDbSpline
70
0
71
2
72
6
73
3
74
0
42
0.000000001
43
0.0000000001
44
0.0000000001
40
0
40
0
40
0
40
1
40
1
40
1
10
2.1789160681209405
20
2.5013299243696827
30
0
10
2.1876428217087382
20
2.5068377924756535
30
0
10
2.1896456785715652
20
2.5238621110092732
30
0
0
LINE
5
296
100
AcDbEntity
8
0
100
AcDbLine
10
2.1896456785715652
20
2.5238621110092732
30
0
11
2.1904325185485893
21
2.5308005961886337
31
0
0
LINE
5
297
100
AcDbEntity
8
0
100
AcDbLine
10
2.1904325185485893
20
2.5308005961886337
30
0
11
2.1965126264439974
21
2.5850208999643911
31
0
0
SPLINE
5
298
100
AcDbEntity
8
0
100
AcDbSpline
70
0
71
2
72
6
73
3
74
0
42
0.000000001
43
0.0000000001
44
0.0000000001
40
0
40
0
40
0
40
1
40
1
40
1
10
2.1965126264439974
20
2.5850208999643911
30
0
10
2.1639661320238779
20
2.5788692547620546
30
0
10
2.1639661320238779
20
2.5604858564619737
30
0
0
SPLINE
5
299
100
AcDbEntity
8
0
100
AcDbSpline
70
0
71
2
72
6
73
3
74
0
42
0.000000001
43
0.0000000001
44
0.0000000001
40
0
40
0
40
0
40
1
40
1
40
1
10
2.1639661320238779
20
2.5604858564619737
30
0
10
2.1639661320238779
20
2.5531181943738348
30
0
10
2.1670419546250463
20
2.5473957260802771
30
0
0
LINE
5
300
100
AcDbEntity
8
0
100
AcDbLine
10
2.1670419546250463
20
2.5473957260802771
30
0
11
2.1555255041973975
21
2.5372383554190896
31
0
0
SPLINE
5
301
100
AcDbEntity
8
0
100
AcDbSpline
70
0
71
2
72
6
73
3
74
0
42
0.000000001
43
0.0000000001
44
0.0000000001
40
0
40
0
40
0
40
1
40
1
40
1
10
2.1555255041973975
20
2.5372383554190896
30
0
10
2.1540233615502777
20
2.5427462352582584
30
0
10
2.1540233615502777
20
2.5483971545116901
30
0
0
SPLINE
5
302
100
AcDbEntity
8
0
100
AcDbSpline
70
0
71
2
72
6
73
3
74
0
42
0.000000001
43
0.0000000001
44
0.0000000001
40
0
40
0
40
0
40
1
40
1
40
1
10
2.1540233615502777
20
2.5483971545116901
30
0
10
2.1540233615502777
20
2.5678535185501126
30
0
10
2.1705469658681906
20
2.580085283381055
30
0
0
SPLINE
5
303
100
AcDbEntity
8
0
100
AcDbSpline
70
0
71
2
72
6
73
3
74
0
42
0.000000001
43
0.0000000001
44
0.0000000001
40
0
40
0
40
0
40
1
40
1
40
1
10
2.1705469658681906
20
2.580085283381055
30
0
10
2.1870705701861035
20
2.5923885737857275
30
0
10
2.2133223623898264
20
2.5923885737857275
30
0
0
SPLINE
5
304
100
AcDbEntity
8
0
100
AcDbSpline
70
0
71
2
72
6
73
3
74
0
42
0.000000001
43
0.0000000001
44
0.0000000001
40
0
40
0
40
0
40
1
40
1
40
1
10
2.2133223623898264
20
2.5923885737857275
30
0
10
2.2485154966357364
20
2.5923885737857275
30
0
10
2.2485154966357364
20
2.5693556729304303
30
0
0
SPLINE
5
305
100
AcDbEntity
8
0
100
AcDbSpline
70
0
71
2
72
6
73
3
74
0
42
0.000000001
43
0.0000000001
44
0.0000000001
40
0
40
0
40
0
40
1
40
1
40
1
10
2.2485154966357364
20
2.5693556729304303
30
0
10
2.2485154966357364
20
2.5547633999016135
30
0
10
2.2354253662540398
20
2.5443914407860371
30
0
0
SPLINE
5
306
100
AcDbEntity
8
0
100
AcDbSpline
70
0
71
2
72
6
73
3
74
0
42
0.000000001
43
0.0000000001
44
0.0000000001
40
0
40
0
40
0
40
1
40
1
40
1
10
2.2354253662540398
20
2.5443914407860371
30
0
10
2.2223352358723432
20
2.5340194816704606
30
0
10
2.2022350888709563
20
2.5328034530514603
30
0
0
SPLINE
5
307
100
AcDbEntity
8
0
100
AcDbSpline
70
0
71
2
72
6
73
3
74
0
42
0.000000001
43
0.0000000001
44
0.0000000001
40
0
40
0
40
0
40
1
40
1
40
1
10
2.2022350888709563
20
2.5328034530514603
30
0
10
2.2005183519028484
20
2.5161367741196909
30
0
10
2.1977286550629977
20
2.5110581063888939
30
0
0
SPLINE
5
308
100
AcDbEntity
8
0
100
AcDbSpline
70
0
71
2
72
6
73
3
74
0
42
0.000000001
43
0.0000000001
44
0.0000000001
40
0
40
0
40
0
40
1
40
1
40
1
10
2.1977286550629977
20
2.5110581063888939
30
0
10
2.1949389464899491
20
2.5059794151917014
30
0
10
2.1846385246813007
20
2.5011153241820958
30
0
0
LINE
5
309
100
AcDbEntity
8
0
100
AcDbLine
10
2.2081006141785742
20
2.5858792772483432
30
0
11
2.2030219288479804
21
2.5402426524465276
31
0
0
SPLINE
5
310
100
AcDbEntity
8
0
100
AcDbSpline
70
0
71
2
72
6
73
3
74
0
42
0.000000001
43
0.0000000001
44
0.0000000001
40
0
40
0
40
0
40
1
40
1
40
1
10
2.2030219288479804
20
2.5402426524465276
30
0
10
2.2070276543068315
20
2.5395273497764315
30
0
10
2.2100319454676702
20
2.5395273497764315
30
0
0
SPLINE
5
311
100
AcDbEntity
8
0
100
AcDbSpline
70
0
71
2
72
6
73
3
74
0
42
0.000000001
43
0.0000000001
44
0.0000000001
40
0
40
0
40
0
40
1
40
1
40
1
10
2.2100319454676702
20
2.5395273497764315
30
0
10
2.2374282289834651
20
2.5395273497764315
30
0
10
2.2374282289834651
20
2.5634901534894117
30
0
0
SPLINE
5
312
100
AcDbEntity
8
0
100
AcDbSpline
70
0
71
2
72
6
73
3
74
0
42
0.000000001
43
0.0000000001
44
0.0000000001
40
0
40
0
40
0
40
1
40
1
40
1
10
2.2374282289834651
20
2.5634901534894117
30
0
10
2.2374282289834651
20
2.5858792772483432
30
0
10
2.2081006141785742
20
2.5858792772483432
30
0
0
SPLINE
5
313
100
AcDbEntity
8
0
100
AcDbSpline
70
0
71
2
72
6
73
3
74
0
42
0.000000001
43
0.0000000001
44
0.0000000001
40
0
40
0
40
0
40
1
40
1
40
1
10
2.2799890253175144
20
2.5143485174444513
30
0
10
2.2820634194872689
20
2.5133470890130378
30
0
10
2.2820634194872689
20
2.5117734090589896
30
0
0
SPLINE
5
314
100
AcDbEntity
8
0
100
AcDbSpline
70
0
71
2
72
6
73
3
74
0
42
0.000000001
43
0.0000000001
44
0.0000000001
40
0
40
0
40
0
40
1
40
1
40
1
10
2.2820634194872689
20
2.5117734090589896
30
0
10
2.2820634194872689
20
2.5066231922880666
30
0
10
2.2743380943308846
20
2.4990409417455388
30
0
0
SPLINE
5
315
100
AcDbEntity
8
0
100
AcDbSpline
70
0
71
2
72
6
73
3
74
0
42
0.000000001
43
0.0000000001
44
0.0000000001
40
0
40
0
40
0
40
1
40
1
40
1
10
2.2743380943308846
20
2.4990409417455388
30
0
10
2.2666843064814279
20
2.4914586677366151
30
0
10
2.2614625641367745
20
2.4914586677366151
30
0
0
SPLINE
5
316
100
AcDbEntity
8
0
100
AcDbSpline
70
0
71
2
72
6
73
3
74
0
42
0.000000001
43
0.0000000001
44
0.0000000001
40
0
40
0
40
0
40
1
40
1
40
1
10
2.2614625641367745
20
2.4914586677366151
30
0
10
2.2555255073888274
20
2.4914586677366151
30
0
10
2.2555255073888274
20
2.5000423701769519
30
0
0
SPLINE
5
317
100
AcDbEntity
8
0
100
AcDbSpline
70
0
71
2
72
6
73
3
74
0
42
0.000000001
43
0.0000000001
44
0.0000000001
40
0
40
0
40
0
40
1
40
1
40
1
10
2.2555255073888274
20
2.5000423701769519
30
0
10
2.2555255073888274
20
2.5052641125216053
30
0
10
2.256169284485193
20
2.5107004550538461
30
0
0
LINE
5
318
100
AcDbEntity
8
0
100
AcDbLine
10
2.256169284485193
20
2.5107004550538461
30
0
11
2.2569561244622172
21
2.5170666769773735
31
0
0
LINE
5
319
100
AcDbEntity
8
0
100
AcDbLine
10
2.2569561244622172
20
2.5170666769773735
30
0
11
2.262463992568188
21
2.5668521018518971
31
0
0
SPLINE
5
320
100
AcDbEntity
8
0
100
AcDbSpline
70
0
71
2
72
6
73
3
74
0
42
0.000000001
43
0.0000000001
44
0.0000000001
40
0
40
0
40
0
40
1
40
1
40
1
10
2.262463992568188
20
2.5668521018518971
30
0
10
2.2650391009536492
20
2.5895988886790748
30
0
10
2.2780576940284178
20
2.6048349388042569
30
0
0
SPLINE
5
321
100
AcDbEntity
8
0
100
AcDbSpline
70
0
71
2
72
6
73
3
74
0
42
0.000000001
43
0.0000000001
44
0.0000000001
40
0
40
0
40
0
40
1
40
1
40
1
10
2.2780576940284178
20
2.6048349388042569
30
0
10
2.2911478244101144
20
2.6200709889294389
30
0
10
2.3081721546769316
20
2.6200709889294389
30
0
0
SPLINE
5
322
100
AcDbEntity
8
0
100
AcDbSpline
70
0
71
2
72
6
73
3
74
0
42
0.000000001
43
0.0000000001
44
0.0000000001
40
0
40
0
40
0
40
1
40
1
40
1
10
2.3081721546769316
20
2.6200709889294389
30
0
10
2.3123209312832436
20
2.6200709889294389
30
0
10
2.3151821654300226
20
2.6193556745261453
30
0
0
LINE
5
323
100
AcDbEntity
8
0
100
AcDbLine
10
2.3151821654300226
20
2.6193556745261453
30
0
11
2.3050247947688356
21
2.6089837154105688
31
0
0
SPLINE
5
324
100
AcDbEntity
8
0
100
AcDbSpline
70
0
71
2
72
6
73
3
74
0
42
0.000000001
43
0.0000000001
44
0.0000000001
40
0
40
0
40
0
40
1
40
1
40
1
10
2.3050247947688356
20
2.6089837154105688
30
0
10
2.3016628464063498
20
2.6101282067226408
30
0
10
2.297156406731792
20
2.6101282067226408
30
0
0
SPLINE
5
325
100
AcDbEntity
8
0
100
AcDbSpline
70
0
71
2
72
6
73
3
74
0
42
0.000000001
43
0.0000000001
44
0.0000000001
40
0
40
0
40
0
40
1
40
1
40
1
10
2.297156406731792
20
2.6101282067226408
30
0
10
2.2864267962811677
20
2.6101282067226408
30
0
10
2.2810619910558558
20
2.602545956180113
30
0
0
SPLINE
5
326
100
AcDbEntity
8
0
100
AcDbSpline
70
0
71
2
72
6
73
3
74
0
42
0.000000001
43
0.0000000001
44
0.0000000001
40
0
40
0
40
0
40
1
40
1
40
1
10
2.2810619910558558
20
2.602545956180113
30
0
10
2.2757687114042739
20
2.5950352194781172
30
0
10
2.2737658545414474
20
2.5770094725130845
30
0
0
LINE
5
327
100
AcDbEntity
8
0
100
AcDbLine
10
2.2737658545414474
20
2.5770094725130845
30
0
11
2.2671134951234042
21
2.5170666769773735
31
0
0
SPLINE
5
328
100
AcDbEntity
8
0
100
AcDbSpline
70
0
71
2
72
6
73
3
74
0
42
0.000000001
43
0.0000000001
44
0.0000000001
40
0
40
0
40
0
40
1
40
1
40
1
10
2.2671134951234042
20
2.5170666769773735
30
0
10
2.2663266551463801
20
2.5101282035312109
30
0
10
2.2663266551463801
20
2.5071239182369709
30
0
0
SPLINE
5
329
100
AcDbEntity
8
0
100
AcDbSpline
70
0
71
2
72
6
73
3
74
0
42
0.000000001
43
0.0000000001
44
0.0000000001
40
0
40
0
40
0
40
1
40
1
40
1
10
2.2663266551463801
20
2.5071239182369709
30
0
10
2.2663266551463801
20
2.5006861472733175
30
0
10
2.268544112196794
20
2.5006861472733175
30
0
0
SPLINE
5
330
100
AcDbEntity
8
0
100
AcDbSpline
70
0
71
2
72
6
73
3
74
0
42
0.000000001
43
0.0000000001
44
0.0000000001
40
0
40
0
40
0
40
1
40
1
40
1
10
2.268544112196794
20
2.5006861472733175
30
0
10
2.2711907461559857
20
2.5006861472733175
30
0
10
2.2747672829728605
20
2.5049064611865575
30
0
0
SPLINE
5
331
100
AcDbEntity
8
0
100
AcDbSpline
70
0
71
2
72
6
73
3
74
0
42
0.000000001
43
0.0000000001
44
0.0000000001
40
0
40
0
40
0
40
1
40
1
40
1
10
2.2747672829728605
20
2.5049064611865575
30
0
10
2.2783438197897357
20
2.5091983006735283
30
0
10
2.2799890253175144
20
2.5143485174444513
30
0
0
SPLINE
5
332
100
AcDbEntity
8
0
100
AcDbSpline
70
0
71
2
72
6
73
3
74
0
42
0.000000001
43
0.0000000001
44
0.0000000001
40
0
40
0
40
0
40
1
40
1
40
1
10
2.3344954783209846
20
2.5217161912657877
30
0
10
2.3264125018295521
20
2.5084114724297017
30
0
10
2.3166843080771429
20
2.4998992955630954
30
0
0
SPLINE
5
333
100
AcDbEntity
8
0
100
AcDbSpline
70
0
71
2
72
6
73
3
74
0
42
0.000000001
43
0.0000000001
44
0.0000000001
40
0
40
0
40
0
40
1
40
1
40
1
10
2.3166843080771429
20
2.4998992955630954
30
0
10
2.3070276633648601
20
2.4914586677366151
30
0
10
2.2998745779979126
20
2.4914586677366151
30
0
0
SPLINE
5
334
100
AcDbEntity
8
0
100
AcDbSpline
70
0
71
2
72
6
73
3
74
0
42
0.000000001
43
0.0000000001
44
0.0000000001
40
0
40
0
40
0
40
1
40
1
40
1
10
2.2998745779979126
20
2.4914586677366151
30
0
10
2.2900748704049709
20
2.4914586677366151
30
0
10
2.2900748704049709
20
2.5072669693844318
30
0
0
SPLINE
5
335
100
AcDbEntity
8
0
100
AcDbSpline
70
0
71
2
72
6
73
3
74
0
42
0.000000001
43
0.0000000001
44
0.0000000001
40
0
40
0
40
0
40
1
40
1
40
1
10
2.2900748704049709
20
2.5072669693844318
30
0
10
2.2900748704049709
20
2.5290123277801961
30
0
10
2.3043094920987399
20
2.5448921550017438
30
0
0
SPLINE
5
336
100
AcDbEntity
8
0
100
AcDbSpline
70
0
71
2
72
6
73
3
74
0
42
0.000000001
43
0.0000000001
44
0.0000000001
40
0
40
0
40
0
40
1
40
1
40
1
10
2.3043094920987399
20
2.5448921550017438
30
0
10
2.3186156393662394
20
2.5608435195302195
30
0
10
2.3381435407115898
20
2.5608435195302195
30
0
0
SPLINE
5
337
100
AcDbEntity
8
0
100
AcDbSpline
70
0
71
2
72
6
73
3
74
0
42
0.000000001
43
0.0000000001
44
0.0000000001
40
0
40
0
40
0
40
1
40
1
40
1
10
2.3381435407115898
20
2.5608435195302195
30
0
10
2.3455827401066567
20
2.5608435195302195
30
0
10
2.3508044824513106
20
2.5589837138148539
30
0
0
SPLINE
5
338
100
AcDbEntity
8
0
100
AcDbSpline
70
0
71
2
72
6
73
3
74
0
42
0.000000001
43
0.0000000001
44
0.0000000001
40
0
40
0
40
0
40
1
40
1
40
1
10
2.3508044824513106
20
2.5589837138148539
30
0
10
2.3504468311162623
20
2.557696159622123
30
0
10
2.3503753055425318
20
2.5574100338608057
30
0
0
LINE
5
339
100
AcDbEntity
8
0
100
AcDbLine
10
2.3503753055425318
20
2.5574100338608057
30
0
11
2.3495169282585797
21
2.5536189085895415
31
0
0
SPLINE
5
340
100
AcDbEntity
8
0
100
AcDbSpline
70
0
71
2
72
6
73
3
74
0
42
0.000000001
43
0.0000000001
44
0.0000000001
40
0
40
0
40
0
40
1
40
1
40
1
10
2.3495169282585797
20
2.5536189085895415
30
0
10
2.3486585744410227
20
2.549684708704421
30
0
10
2.3485870254008967
20
2.5490409316080558
30
0
0
LINE
5
341
100
AcDbEntity
8
0
100
AcDbLine
10
2.3485870254008967
20
2.5490409316080558
30
0
11
2.3440090601526089
21
2.5174243517788173
31
0
0
LINE
5
342
100
AcDbEntity
8
0
100
AcDbLine
10
2.3440090601526089
20
2.5174243517788173
30
0
11
2.3433652830562433
21
2.5128463630641336
31
0
0
SPLINE
5
343
100
AcDbEntity
8
0
100
AcDbSpline
70
0
71
2
72
6
73
3
74
0
42
0.000000001
43
0.0000000001
44
0.0000000001
40
0
40
0
40
0
40
1
40
1
40
1
10
2.3433652830562433
20
2.5128463630641336
30
0
10
2.3424353801985607
20
2.5060509407654319
30
0
10
2.3424353801985607
20
2.5037619581412875
30
0
0
SPLINE
5
344
100
AcDbEntity
8
0
100
AcDbSpline
70
0
71
2
72
6
73
3
74
0
42
0.000000001
43
0.0000000001
44
0.0000000001
40
0
40
0
40
0
40
1
40
1
40
1
10
2.3424353801985607
20
2.5037619581412875
30
0
10
2.3424353801985607
20
2.5006861472733175
30
0
10
2.3442236603401958
20
2.5006861472733175
30
0
0
SPLINE
5
345
100
AcDbEntity
8
0
100
AcDbSpline
70
0
71
2
72
6
73
3
74
0
42
0.000000001
43
0.0000000001
44
0.0000000001
40
0
40
0
40
0
40
1
40
1
40
1
10
2.3442236603401958
20
2.5006861472733175
30
0
10
2.3502322309286754
20
2.5006861472733175
30
0
10
2.3565269507448683
20
2.5141339172568644
30
0
0
SPLINE
5
346
100
AcDbEntity
8
0
100
AcDbSpline
70
0
71
2
72
6
73
3
74
0
42
0.000000001
43
0.0000000001
44
0.0000000001
40
0
40
0
40
0
40
1
40
1
40
1
10
2.3565269507448683
20
2.5141339172568644
30
0
10
2.3584582820339643
20
2.51298943767799
30
0
10
2.3584582820339643
20
2.5118449346327201
30
0
0
SPLINE
5
347
100
AcDbEntity
8
0
100
AcDbSpline
70
0
71
2
72
6
73
3
74
0
42
0.000000001
43
0.0000000001
44
0.0000000001
40
0
40
0
40
0
40
1
40
1
40
1
10
2.3584582820339643
20
2.5118449346327201
30
0
10
2.3584582820339643
20
2.5093413752873848
30
0
10
2.3523066368316283
20
2.501759101278461
30
0
0
SPLINE
5
348
100
AcDbEntity
8
0
100
AcDbSpline
70
0
71
2
72
6
73
3
74
0
42
0.000000001
43
0.0000000001
44
0.0000000001
40
0
40
0
40
0
40
1
40
1
40
1
10
2.3523066368316283
20
2.501759101278461
30
0
10
2.3439375345788784
20
2.4914586677366151
30
0
10
2.3367844609451285
20
2.4914586677366151
30
0
0
SPLINE
5
349
100
AcDbEntity
8
0
100
AcDbSpline
70
0
71
2
72
6
73
3
74
0
42
0.000000001
43
0.0000000001
44
0.0000000001
40
0
40
0
40
0
40
1
40
1
40
1
10
2.3367844609451285
20
2.4914586677366151
30
0
10
2.3315627068672771
20
2.4914586677366151
30
0
10
2.3315627068672771
20
2.4984686902229036
30
0
0
SPLINE
5
350
100
AcDbEntity
8
0
100
AcDbSpline
70
0
71
2
72
6
73
3
74
0
42
0.000000001
43
0.0000000001
44
0.0000000001
40
0
40
0
40
0
40
1
40
1
40
1
10
2.3315627068672771
20
2.4984686902229036
30
0
10
2.3315627068672771
20
2.500614621699587
30
0
10
2.3320634328161818
20
2.5044057352376532
30
0
0
LINE
5
351
100
AcDbEntity
8
0
100
AcDbLine
10
2.3320634328161818
20
2.5044057352376532
30
0
11
2.3327787354862775
21
2.5101282035312109
31
0
0
LINE
5
352
100
AcDbEntity
8
0
100
AcDbLine
10
2.3327787354862775
20
2.5101282035312109
30
0
11
2.3337086383439605
21
2.5164228998810083
31
0
0
LINE
5
353
100
AcDbEntity
8
0
100
AcDbLine
10
2.3337086383439605
20
2.5164228998810083
30
0
11
2.3344954783209846
21
2.5217161912657877
31
0
0
SPLINE
5
354
100
AcDbEntity
8
0
100
AcDbSpline
70
0
71
2
72
6
73
3
74
0
42
0.000000001
43
0.0000000001
44
0.0000000001
40
0
40
0
40
0
40
1
40
1
40
1
10
2.3385727293535661
20
2.5501139090795952
30
0
10
2.3320634328161818
20
2.5537619714702005
30
0
10
2.325411061664941
20
2.5537619714702005
30
0
0
SPLINE
5
355
100
AcDbEntity
8
0
100
AcDbSpline
70
0
71
2
72
6
73
3
74
0
42
0.000000001
43
0.0000000001
44
0.0000000001
40
0
40
0
40
0
40
1
40
1
40
1
10
2.325411061664941
20
2.5537619714702005
30
0
10
2.3153967538844125
20
2.5537619714702005
30
0
10
2.3086013315857103
20
2.541530206639258
30
0
0
SPLINE
5
356
100
AcDbEntity
8
0
100
AcDbSpline
70
0
71
2
72
6
73
3
74
0
42
0.000000001
43
0.0000000001
44
0.0000000001
40
0
40
0
40
0
40
1
40
1
40
1
10
2.3086013315857103
20
2.541530206639258
30
0
10
2.3018059092870087
20
2.529298441808316
30
0
10
2.3018059092870087
20
2.5112011575363549
30
0
0
SPLINE
5
357
100
AcDbEntity
8
0
100
AcDbSpline
70
0
71
2
72
6
73
3
74
0
42
0.000000001
43
0.0000000001
44
0.0000000001
40
0
40
0
40
0
40
1
40
1
40
1
10
2.3018059092870087
20
2.5112011575363549
30
0
10
2.3018059092870087
20
2.5019021758923174
30
0
10
2.3073137773929799
20
2.5019021758923174
30
0
0
SPLINE
5
358
100
AcDbEntity
8
0
100
AcDbSpline
70
0
71
2
72
6
73
3
74
0
42
0.000000001
43
0.0000000001
44
0.0000000001
40
0
40
0
40
0
40
1
40
1
40
1
10
2.3073137773929799
20
2.5019021758923174
30
0
10
2.3136800227829033
20
2.5019021758923174
30
0
10
2.3226929021320184
20
2.5116303579115287
30
0
0
SPLINE
5
359
100
AcDbEntity
8
0
100
AcDbSpline
70
0
71
2
72
6
73
3
74
0
42
0.000000001
43
0.0000000001
44
0.0000000001
40
0
40
0
40
0
40
1
40
1
40
1
10
2.3226929021320184
20
2.5116303579115287
30
0
10
2.3348531296560324
20
2.5247204765600277
30
0
10
2.3374282380414941
20
2.5423885839232105
30
0
0
LINE
5
360
100
AcDbEntity
8
0
100
AcDbLine
10
2.3374282380414941
20
2.5423885839232105
30
0
11
2.3385727293535661
21
2.5501139090795952
31
0
0
SPLINE
5
361
100
AcDbEntity
8
0
100
AcDbSpline
70
0
71
2
72
6
73
3
74
0
42
0.000000001
43
0.0000000001
44
0.0000000001
40
0
40
0
40
0
40
1
40
1
40
1
10
2.4176142023930578
20
2.5217877168395182
30
0
10
2.4103896031855778
20
2.5086260491508932
30
0
10
2.4024496778416062
20
2.5000423701769519
30
0
0
SPLINE
5
362
100
AcDbEntity
8
0
100
AcDbSpline
70
0
71
2
72
6
73
3
74
0
42
0.000000001
43
0.0000000001
44
0.0000000001
40
0
40
0
40
0
40
1
40
1
40
1
10
2.4024496778416062
20
2.5000423701769519
30
0
10
2.3945813015377606
20
2.4914586677366151
30
0
10
2.3895741593806941
20
2.4914586677366151
30
0
0
SPLINE
5
363
100
AcDbEntity
8
0
100
AcDbSpline
70
0
71
2
72
6
73
3
74
0
42
0.000000001
43
0.0000000001
44
0.0000000001
40
0
40
0
40
0
40
1
40
1
40
1
10
2.3895741593806941
20
2.4914586677366151
30
0
10
2.3827071880418664
20
2.4914586677366151
30
0
10
2.3819918853717708
20
2.505907889617971
30
0
0
LINE
5
364
100
AcDbEntity
8
0
100
AcDbLine
10
2.3819918853717708
20
2.505907889617971
30
0
11
2.3814911828892615
21
2.5158506718247691
31
0
0
LINE
5
365
100
AcDbEntity
8
0
100
AcDbLine
10
2.3814911828892615
20
2.5158506718247691
30
0
11
2.380561280031579
21
2.5360938641070176
31
0
0
LINE
5
366
100
AcDbEntity
8
0
100
AcDbLine
10
2.380561280031579
20
2.5360938641070176
30
0
11
2.3803466798439921
21
2.5418878579743063
31
0
0
SPLINE
5
367
100
AcDbEntity
8
0
100
AcDbSpline
70
0
71
2
72
6
73
3
74
0
42
0.000000001
43
0.0000000001
44
0.0000000001
40
0
40
0
40
0
40
1
40
1
40
1
10
2.3803466798439921
20
2.5418878579743063
30
0
10
2.3797029027476264
20
2.5534043201351526
30
0
10
2.3761263659307517
20
2.5534043201351526
30
0
0
SPLINE
5
368
100
AcDbEntity
8
0
100
AcDbSpline
70
0
71
2
72
6
73
3
74
0
42
0.000000001
43
0.0000000001
44
0.0000000001
40
0
40
0
40
0
40
1
40
1
40
1
10
2.3761263659307517
20
2.5534043201351526
30
0
10
2.3705469722510504
20
2.5534043201351526
30
0
10
2.3652536808662705
20
2.5428177608319888
30
0
0
SPLINE
5
369
100
AcDbEntity
8
0
100
AcDbSpline
70
0
71
2
72
6
73
3
74
0
42
0.000000001
43
0.0000000001
44
0.0000000001
40
0
40
0
40
0
40
1
40
1
40
1
10
2.3652536808662705
20
2.5428177608319888
30
0
10
2.3633938986173004
20
2.5441053150247197
30
0
10
2.3633938986173004
20
2.5456074694050375
30
0
0
SPLINE
5
370
100
AcDbEntity
8
0
100
AcDbSpline
70
0
71
2
72
6
73
3
74
0
42
0.000000001
43
0.0000000001
44
0.0000000001
40
0
40
0
40
0
40
1
40
1
40
1
10
2.3633938986173004
20
2.5456074694050375
30
0
10
2.3633938986173004
20
2.5494701319832296
30
0
10
2.370332372063463
20
2.555621777185566
30
0
0
SPLINE
5
371
100
AcDbEntity
8
0
100
AcDbSpline
70
0
71
2
72
6
73
3
74
0
42
0.000000001
43
0.0000000001
44
0.0000000001
40
0
40
0
40
0
40
1
40
1
40
1
10
2.370332372063463
20
2.555621777185566
30
0
10
2.3772708689760216
20
2.5617734223879025
30
0
10
2.3816342340367225
20
2.5617734223879025
30
0
0
SPLINE
5
372
100
AcDbEntity
8
0
100
AcDbSpline
70
0
71
2
72
6
73
3
74
0
42
0.000000001
43
0.0000000001
44
0.0000000001
40
0
40
0
40
0
40
1
40
1
40
1
10
2.3816342340367225
20
2.5617734223879025
30
0
10
2.3861406737112802
20
2.5617734223879025
30
0
10
2.3880004794266458
20
2.557696159622123
30
0
0
SPLINE
5
373
100
AcDbEntity
8
0
100
AcDbSpline
70
0
71
2
72
6
73
3
74
0
42
0.000000001
43
0.0000000001
44
0.0000000001
40
0
40
0
40
0
40
1
40
1
40
1
10
2.3880004794266458
20
2.557696159622123
30
0
10
2.3898602616756159
20
2.55369044589647
30
0
10
2.3904325131982511
20
2.5428177608319888
30
0
0
LINE
5
374
100
AcDbEntity
8
0
100
AcDbLine
10
2.3904325131982511
20
2.5428177608319888
30
0
11
2.3917200673909815
21
2.5177820031138651
31
0
0
SPLINE
5
375
100
AcDbEntity
8
0
100
AcDbSpline
70
0
71
2
72
6
73
3
74
0
42
0.000000001
43
0.0000000001
44
0.0000000001
40
0
40
0
40
0
40
1
40
1
40
1
10
2.3917200673909815
20
2.5177820031138651
30
0
10
2.3924353700610776
20
2.5034758323799702
30
0
10
2.3962980326392698
20
2.5034758323799702
30
0
0
SPLINE
5
376
100
AcDbEntity
8
0
100
AcDbSpline
70
0
71
2
72
6
73
3
74
0
42
0.000000001
43
0.0000000001
44
0.0000000001
40
0
40
0
40
0
40
1
40
1
40
1
10
2.3962980326392698
20
2.5034758323799702
30
0
10
2.4020920265065584
20
2.5034758323799702
30
0
10
2.4106757289468952
20
2.5167090256423257
30
0
0
SPLINE
5
377
100
AcDbEntity
8
0
100
AcDbSpline
70
0
71
2
72
6
73
3
74
0
42
0.000000001
43
0.0000000001
44
0.0000000001
40
0
40
0
40
0
40
1
40
1
40
1
10
2.4106757289468952
20
2.5167090256423257
30
0
10
2.4192594079208365
20
2.5300137562116096
30
0
10
2.4216914651588373
20
2.5428177608319888
30
0
0
LINE
5
378
100
AcDbEntity
8
0
100
AcDbLine
10
2.4216914651588373
20
2.5428177608319888
30
0
11
2.4244811737318859
21
2.5574100338608057
31
0
0
LINE
5
379
100
AcDbEntity
8
0
100
AcDbLine
10
2.4244811737318859
20
2.5574100338608057
30
0
11
2.4372136410453367
21
2.561844947961633
31
0
0
SPLINE
5
380
100
AcDbEntity
8
0
100
AcDbSpline
70
0
71
2
72
6
73
3
74
0
42
0.000000001
43
0.0000000001
44
0.0000000001
40
0
40
0
40
0
40
1
40
1
40
1
10
2.4372136410453367
20
2.561844947961633
30
0
10
2.4347815838073363
20
2.5555502398786376
30
0
10
2.4322064754218746
20
2.5428177608319888
30
0
0
LINE
5
381
100
AcDbEntity
8
0
100
AcDbLine
10
2.4322064754218746
20
2.5428177608319888
30
0
11
2.4226213680165198
21
2.4948206278322984
31
0
0
SPLINE
5
382
100
AcDbEntity
8
0
100
AcDbSpline
70
0
71
2
72
6
73
3
74
0
42
0.000000001
43
0.0000000001
44
0.0000000001
40
0
40
0
40
0
40
1
40
1
40
1
10
2.4226213680165198
20
2.4948206278322984
30
0
10
2.4169704252966926
20
2.4666375102060782
30
0
10
2.4051678608409244
20
2.4531897167561358
30
0
0
SPLINE
5
383
100
AcDbEntity
8
0
100
AcDbSpline
70
0
71
2
72
6
73
3
74
0
42
0.000000001
43
0.0000000001
44
0.0000000001
40
0
40
0
40
0
40
1
40
1
40
1
10
2.4051678608409244
20
2.4531897167561358
30
0
10
2.3874997534777416
20
2.4331611011950782
30
0
10
2.3642522524348575
20
2.4331611011950782
30
0
0
SPLINE
5
384
100
AcDbEntity
8
0
100
AcDbSpline
70
0
71
2
72
6
73
3
74
0
42
0.000000001
43
0.0000000001
44
0.0000000001
40
0
40
0
40
0
40
1
40
1
40
1
10
2.3642522524348575
20
2.4331611011950782
30
0
10
2.3593881614252519
20
2.4331611011950782
30
0
10
2.3533080417966459
20
2.4353070092053661
30
0
0
LINE
5
385
100
AcDbEntity
8
0
100
AcDbLine
10
2.3533080417966459
20
2.4353070092053661
30
0
11
2.36210634442457
21
2.4449636656508464
31
0
0
SPLINE
5
386
100
AcDbEntity
8
0
100
AcDbSpline
70
0
71
2
72
6
73
3
74
0
42
0.000000001
43
0.0000000001
44
0.0000000001
40
0
40
0
40
0
40
1
40
1
40
1
10
2.36210634442457
20
2.4449636656508464
30
0
10
2.3688302176831453
20
2.4419593803566069
30
0
10
2.3761263659307517
20
2.4419593803566069
30
0
0
SPLINE
5
387
100
AcDbEntity
8
0
100
AcDbSpline
70
0
71
2
72
6
73
3
74
0
42
0.000000001
43
0.0000000001
44
0.0000000001
40
0
40
0
40
0
40
1
40
1
40
1
10
2.3761263659307517
20
2.4419593803566069
30
0
10
2.3910047647208859
20
2.4419593803566069
30
0
10
2.3984439641159532
20
2.4516160368020876
30
0
0
SPLINE
5
388
100
AcDbEntity
8
0
100
AcDbSpline
70
0
71
2
72
6
73
3
74
0
42
0.000000001
43
0.0000000001
44
0.0000000001
40
0
40
0
40
0
40
1
40
1
40
1
10
2.3984439641159532
20
2.4516160368020876
30
0
10
2.4058831635110201
20
2.4612726932475684
30
0
10
2.4108903056680866
20
2.4870237771021833
30
0
0
LINE
5
389
100
AcDbEntity
8
0
100
AcDbLine
10
2.4108903056680866
20
2.4870237771021833
30
0
11
2.4176142023930578
21
2.5217877168395182
31
0
0
LINE
5
390
100
AcDbEntity
8
0
100
AcDbLine
10
2.4216199630515023
20
2.4627748476278861
30
0
11
2.5208331145327096
21
2.6167805778738815
31
0
0
LINE
5
391
100
AcDbEntity
8
0
100
AcDbLine
10
2.5208331145327101
20
2.6167805778738815
30
0
11
2.5347816104651617
21
2.6227891601955591
31
0
0
LINE
5
392
100
AcDbEntity
8
0
100
AcDbLine
10
2.5347816104651613
20
2.6227891601955591
30
0
11
2.4354969099438275
21
2.4686403670689048
31
0
0
LINE
5
393
100
AcDbEntity
8
0
100
AcDbLine
10
2.4354969099438275
20
2.4686403670689048
30
0
11
2.4216199630515023
21
2.4627748476278861
31
0
0
LINE
5
394
100
AcDbEntity
8
0
100
AcDbLine
10
2.5397887760886237
20
2.5011153241820958
30
0
11
2.558672888604411
21
2.5000423701769519
31
0
0
LINE
5
395
100
AcDbEntity
8
0
100
AcDbLine
10
2.558672888604411
20
2.5000423701769519
30
0
11
2.5500892096304697
21
2.4917447934979324
31
0
0
LINE
5
396
100
AcDbEntity
8
0
100
AcDbLine
10
2.5500892096304697
20
2.4917447934979324
30
0
11
2.5171135031019789
21
2.4933184734519807
31
0
0
LINE
5
397
100
AcDbEntity
8
0
100
AcDbLine
10
2.5171135031019789
20
2.4933184734519807
30
0
11
2.5263409826386809
21
2.5021882781872393
31
0
0
LINE
5
398
100
AcDbEntity
8
0
100
AcDbLine
10
2.5263409826386809
20
2.5021882781872393
30
0
11
2.5340663077950656
21
2.5013299243696827
31
0
0
SPLINE
5
399
100
AcDbEntity
8
0
100
AcDbSpline
70
0
71
2
72
6
73
3
74
0
42
0.000000001
43
0.0000000001
44
0.0000000001
40
0
40
0
40
0
40
1
40
1
40
1
10
2.5340663077950656
20
2.5013299243696827
30
0
10
2.5427930379164678
20
2.5068377924756535
30
0
10
2.5447958947792948
20
2.5238621110092732
30
0
0
LINE
5
400
100
AcDbEntity
8
0
100
AcDbLine
10
2.5447958947792948
20
2.5238621110092732
30
0
11
2.5455827699559119
21
2.5308005961886337
31
0
0
LINE
5
401
100
AcDbEntity
8
0
100
AcDbLine
10
2.5455827699559119
20
2.5308005961886337
30
0
11
2.5516628661181224
21
2.5850208999643911
31
0
0
SPLINE
5
402
100
AcDbEntity
8
0
100
AcDbSpline
70
0
71
2
72
6
73
3
74
0
42
0.000000001
43
0.0000000001
44
0.0000000001
40
0
40
0
40
0
40
1
40
1
40
1
10
2.5516628661181224
20
2.5850208999643911
30
0
10
2.5191163599648054
20
2.5788692547620546
30
0
10
2.5191163599648054
20
2.5604858564619737
30
0
0
SPLINE
5
403
100
AcDbEntity
8
0
100
AcDbSpline
70
0
71
2
72
6
73
3
74
0
42
0.000000001
43
0.0000000001
44
0.0000000001
40
0
40
0
40
0
40
1
40
1
40
1
10
2.5191163599648054
20
2.5604858564619737
30
0
10
2.5191163599648054
20
2.5531181943738348
30
0
10
2.5221921942991714
20
2.5473957260802771
30
0
0
LINE
5
404
100
AcDbEntity
8
0
100
AcDbLine
10
2.5221921942991714
20
2.5473957260802771
30
0
11
2.5106757321383251
21
2.5372383554190896
31
0
0
SPLINE
5
405
100
AcDbEntity
8
0
100
AcDbSpline
70
0
71
2
72
6
73
3
74
0
42
0.000000001
43
0.0000000001
44
0.0000000001
40
0
40
0
40
0
40
1
40
1
40
1
10
2.5106757321383251
20
2.5372383554190896
30
0
10
2.5091736012244028
20
2.5427462352582584
30
0
10
2.5091736012244028
20
2.5483971545116901
30
0
0
SPLINE
5
406
100
AcDbEntity
8
0
100
AcDbSpline
70
0
71
2
72
6
73
3
74
0
42
0.000000001
43
0.0000000001
44
0.0000000001
40
0
40
0
40
0
40
1
40
1
40
1
10
2.5091736012244028
20
2.5483971545116901
30
0
10
2.5091736012244028
20
2.5678535185501126
30
0
10
2.5256972055423157
20
2.580085283381055
30
0
0
SPLINE
5
407
100
AcDbEntity
8
0
100
AcDbSpline
70
0
71
2
72
6
73
3
74
0
42
0.000000001
43
0.0000000001
44
0.0000000001
40
0
40
0
40
0
40
1
40
1
40
1
10
2.5256972055423157
20
2.580085283381055
30
0
10
2.5422207863938331
20
2.5923885737857275
30
0
10
2.5684725961973527
20
2.5923885737857275
30
0
0
SPLINE
5
408
100
AcDbEntity
8
0
100
AcDbSpline
70
0
71
2
72
6
73
3
74
0
42
0.000000001
43
0.0000000001
44
0.0000000001
40
0
40
0
40
0
40
1
40
1
40
1
10
2.5684725961973527
20
2.5923885737857275
30
0
10
2.6036657128434659
20
2.5923885737857275
30
0
10
2.6036657128434659
20
2.5693556729304303
30
0
0
SPLINE
5
409
100
AcDbEntity
8
0
100
AcDbSpline
70
0
71
2
72
6
73
3
74
0
42
0.000000001
43
0.0000000001
44
0.0000000001
40
0
40
0
40
0
40
1
40
1
40
1
10
2.6036657128434659
20
2.5693556729304303
30
0
10
2.6036657128434659
20
2.5547633999016135
30
0
10
2.5905755941949669
20
2.5443914407860371
30
0
0
SPLINE
5
410
100
AcDbEntity
8
0
100
AcDbSpline
70
0
71
2
72
6
73
3
74
0
42
0.000000001
43
0.0000000001
44
0.0000000001
40
0
40
0
40
0
40
1
40
1
40
1
10
2.5905755941949669
20
2.5443914407860371
30
0
10
2.5774854755464682
20
2.5340194816704606
30
0
10
2.5573853344116801
20
2.5328034530514603
30
0
0
SPLINE
5
411
100
AcDbEntity
8
0
100
AcDbSpline
70
0
71
2
72
6
73
3
74
0
42
0.000000001
43
0.0000000001
44
0.0000000001
40
0
40
0
40
0
40
1
40
1
40
1
10
2.5573853344116801
20
2.5328034530514603
30
0
10
2.5556685798437755
20
2.5161367741196909
30
0
10
2.5528788947371228
20
2.5110581063888939
30
0
0
SPLINE
5
412
100
AcDbEntity
8
0
100
AcDbSpline
70
0
71
2
72
6
73
3
74
0
42
0.000000001
43
0.0000000001
44
0.0000000001
40
0
40
0
40
0
40
1
40
1
40
1
10
2.5528788947371228
20
2.5110581063888939
30
0
10
2.5500892096304697
20
2.5059794151917014
30
0
10
2.5397887760886237
20
2.5011153241820958
30
0
0
LINE
5
413
100
AcDbEntity
8
0
100
AcDbLine
10
2.5632508538526992
20
2.5858792772483432
30
0
11
2.5581721626555067
21
2.5402426524465276
31
0
0
SPLINE
5
414
100
AcDbEntity
8
0
100
AcDbSpline
70
0
71
2
72
6
73
3
74
0
42
0.000000001
43
0.0000000001
44
0.0000000001
40
0
40
0
40
0
40
1
40
1
40
1
10
2.5581721626555067
20
2.5402426524465276
30
0
10
2.5621778763811598
20
2.5395273497764315
30
0
10
2.5651821851417953
20
2.5395273497764315
30
0
0
SPLINE
5
415
100
AcDbEntity
8
0
100
AcDbSpline
70
0
71
2
72
6
73
3
74
0
42
0.000000001
43
0.0000000001
44
0.0000000001
40
0
40
0
40
0
40
1
40
1
40
1
10
2.5651821851417953
20
2.5395273497764315
30
0
10
2.5925784510577938
20
2.5395273497764315
30
0
10
2.5925784510577938
20
2.5634901534894117
30
0
0
SPLINE
5
416
100
AcDbEntity
8
0
100
AcDbSpline
70
0
71
2
72
6
73
3
74
0
42
0.000000001
43
0.0000000001
44
0.0000000001
40
0
40
0
40
0
40
1
40
1
40
1
10
2.5925784510577938
20
2.5634901534894117
30
0
10
2.5925784510577938
20
2.5858792772483432
30
0
10
2.5632508538526992
20
2.5858792772483432
30
0
0
SPLINE
5
417
100
AcDbEntity
8
0
100
AcDbSpline
70
0
71
2
72
6
73
3
74
0
42
0.000000001
43
0.0000000001
44
0.0000000001
40
0
40
0
40
0
40
1
40
1
40
1
10
2.6505899153044084
20
2.5217161912657877
30
0
10
2.6425069622793713
20
2.5084114724297017
30
0
10
2.6327787802601601
20
2.4998992955630954
30
0
0
SPLINE
5
418
100
AcDbEntity
8
0
100
AcDbSpline
70
0
71
2
72
6
73
3
74
0
42
0.000000001
43
0.0000000001
44
0.0000000001
40
0
40
0
40
0
40
1
40
1
40
1
10
2.6327787802601601
20
2.4998992955630954
30
0
10
2.6231221238146798
20
2.4914586677366151
30
0
10
2.6159690501809298
20
2.4914586677366151
30
0
0
SPLINE
5
419
100
AcDbEntity
8
0
100
AcDbSpline
70
0
71
2
72
6
73
3
74
0
42
0.000000001
43
0.0000000001
44
0.0000000001
40
0
40
0
40
0
40
1
40
1
40
1
10
2.6159690501809298
20
2.4914586677366151
30
0
10
2.6061693425879882
20
2.4914586677366151
30
0
10
2.6061693425879882
20
2.5072669693844318
30
0
0
SPLINE
5
420
100
AcDbEntity
8
0
100
AcDbSpline
70
0
71
2
72
6
73
3
74
0
42
0.000000001
43
0.0000000001
44
0.0000000001
40
0
40
0
40
0
40
1
40
1
40
1
10
2.6061693425879882
20
2.5072669693844318
30
0
10
2.6061693425879882
20
2.5290123277801961
30
0
10
2.6204039642817571
20
2.5448921550017438
30
0
0
SPLINE
5
421
100
AcDbEntity
8
0
100
AcDbSpline
70
0
71
2
72
6
73
3
74
0
42
0.000000001
43
0.0000000001
44
0.0000000001
40
0
40
0
40
0
40
1
40
1
40
1
10
2.6204039642817571
20
2.5448921550017438
30
0
10
2.6347101115492566
20
2.5608435195302195
30
0
10
2.6542380011614091
20
2.5608435195302195
30
0
0
SPLINE
5
422
100
AcDbEntity
8
0
100
AcDbSpline
70
0
71
2
72
6
73
3
74
0
42
0.000000001
43
0.0000000001
44
0.0000000001
40
0
40
0
40
0
40
1
40
1
40
1
10
2.6542380011614091
20
2.5608435195302195
30
0
10
2.6616772240228719
20
2.5608435195302195
30
0
10
2.6668989663675253
20
2.5589837138148539
30
0
0
SPLINE
5
423
100
AcDbEntity
8
0
100
AcDbSpline
70
0
71
2
72
6
73
3
74
0
42
0.000000001
43
0.0000000001
44
0.0000000001
40
0
40
0
40
0
40
1
40
1
40
1
10
2.6668989663675253
20
2.5589837138148539
30
0
10
2.666541291566082
20
2.557696159622123
30
0
10
2.6664697659923515
20
2.5574100338608057
30
0
0
LINE
5
424
100
AcDbEntity
8
0
100
AcDbLine
10
2.6664697659923515
20
2.5574100338608057
30
0
11
2.6656114121747949
21
2.5536189085895415
31
0
0
SPLINE
5
425
100
AcDbEntity
8
0
100
AcDbSpline
70
0
71
2
72
6
73
3
74
0
42
0.000000001
43
0.0000000001
44
0.0000000001
40
0
40
0
40
0
40
1
40
1
40
1
10
2.6656114121747949
20
2.5536189085895415
30
0
10
2.6647530114244469
20
2.549684708704421
30
0
10
2.6646814858507164
20
2.5490409316080558
30
0
0
LINE
5
426
100
AcDbEntity
8
0
100
AcDbLine
10
2.6646814858507164
20
2.5490409316080558
30
0
11
2.6601035206024282
21
2.5174243517788173
31
0
0
LINE
5
427
100
AcDbEntity
8
0
100
AcDbLine
10
2.6601035206024282
20
2.5174243517788173
30
0
11
2.659459743506063
21
2.5128463630641336
31
0
0
SPLINE
5
428
100
AcDbEntity
8
0
100
AcDbSpline
70
0
71
2
72
6
73
3
74
0
42
0.000000001
43
0.0000000001
44
0.0000000001
40
0
40
0
40
0
40
1
40
1
40
1
10
2.659459743506063
20
2.5128463630641336
30
0
10
2.6585298641147754
20
2.5060509407654319
30
0
10
2.6585298641147754
20
2.5037619581412875
30
0
0
SPLINE
5
429
100
AcDbEntity
8
0
100
AcDbSpline
70
0
71
2
72
6
73
3
74
0
42
0.000000001
43
0.0000000001
44
0.0000000001
40
0
40
0
40
0
40
1
40
1
40
1
10
2.6585298641147754
20
2.5037619581412875
30
0
10
2.6585298641147754
20
2.5006861472733175
30
0
10
2.6603180973236196
20
2.5006861472733175
30
0
0
SPLINE
5
430
100
AcDbEntity
8
0
100
AcDbSpline
70
0
71
2
72
6
73
3
74
0
42
0.000000001
43
0.0000000001
44
0.0000000001
40
0
40
0
40
0
40
1
40
1
40
1
10
2.6603180973236196
20
2.5006861472733175
30
0
10
2.6663267148448906
20
2.5006861472733175
30
0
10
2.6726213877282921
20
2.5141339172568644
30
0
0
SPLINE
5
431
100
AcDbEntity
8
0
100
AcDbSpline
70
0
71
2
72
6
73
3
74
0
42
0.000000001
43
0.0000000001
44
0.0000000001
40
0
40
0
40
0
40
1
40
1
40
1
10
2.6726213877282921
20
2.5141339172568644
30
0
10
2.6745527190173886
20
2.51298943767799
30
0
10
2.6745527190173886
20
2.5118449346327201
30
0
0
SPLINE
5
432
100
AcDbEntity
8
0
100
AcDbSpline
70
0
71
2
72
6
73
3
74
0
42
0.000000001
43
0.0000000001
44
0.0000000001
40
0
40
0
40
0
40
1
40
1
40
1
10
2.6745527190173886
20
2.5118449346327201
30
0
10
2.6745527190173886
20
2.5093413752873848
30
0
10
2.6684010972814476
20
2.501759101278461
30
0
0
SPLINE
5
433
100
AcDbEntity
8
0
100
AcDbSpline
70
0
71
2
72
6
73
3
74
0
42
0.000000001
43
0.0000000001
44
0.0000000001
40
0
40
0
40
0
40
1
40
1
40
1
10
2.6684010972814476
20
2.501759101278461
30
0
10
2.6600319950286977
20
2.4914586677366151
30
0
10
2.6528789213949482
20
2.4914586677366151
30
0
0
SPLINE
5
434
100
AcDbEntity
8
0
100
AcDbSpline
70
0
71
2
72
6
73
3
74
0
42
0.000000001
43
0.0000000001
44
0.0000000001
40
0
40
0
40
0
40
1
40
1
40
1
10
2.6528789213949482
20
2.4914586677366151
30
0
10
2.6476571790502943
20
2.4914586677366151
30
0
10
2.6476571790502943
20
2.4984686902229036
30
0
0
SPLINE
5
435
100
AcDbEntity
8
0
100
AcDbSpline
70
0
71
2
72
6
73
3
74
0
42
0.000000001
43
0.0000000001
44
0.0000000001
40
0
40
0
40
0
40
1
40
1
40
1
10
2.6476571790502943
20
2.4984686902229036
30
0
10
2.6476571790502943
20
2.500614621699587
30
0
10
2.648157904999199
20
2.5044057352376532
30
0
0
LINE
5
436
100
AcDbEntity
8
0
100
AcDbLine
10
2.648157904999199
20
2.5044057352376532
30
0
11
2.6488732076692947
21
2.5101282035312109
31
0
0
LINE
5
437
100
AcDbEntity
8
0
100
AcDbLine
10
2.6488732076692947
20
2.5101282035312109
30
0
11
2.6498030870605822
21
2.5164228998810083
31
0
0
LINE
5
438
100
AcDbEntity
8
0
100
AcDbLine
10
2.6498030870605822
20
2.5164228998810083
30
0
11
2.6505899153044084
21
2.5217161912657877
31
0
0
SPLINE
5
439
100
AcDbEntity
8
0
100
AcDbSpline
70
0
71
2
72
6
73
3
74
0
42
0.000000001
43
0.0000000001
44
0.0000000001
40
0
40
0
40
0
40
1
40
1
40
1
10
2.6546672015365833
20
2.5501139090795952
30
0
10
2.648157904999199
20
2.5537619714702005
30
0
10
2.6415055103815628
20
2.5537619714702005
30
0
0
SPLINE
5
440
100
AcDbEntity
8
0
100
AcDbSpline
70
0
71
2
72
6
73
3
74
0
42
0.000000001
43
0.0000000001
44
0.0000000001
40
0
40
0
40
0
40
1
40
1
40
1
10
2.6415055103815628
20
2.5537619714702005
30
0
10
2.6314912260674297
20
2.5537619714702005
30
0
10
2.6246957803023321
20
2.541530206639258
30
0
0
SPLINE
5
441
100
AcDbEntity
8
0
100
AcDbSpline
70
0
71
2
72
6
73
3
74
0
42
0.000000001
43
0.0000000001
44
0.0000000001
40
0
40
0
40
0
40
1
40
1
40
1
10
2.6246957803023321
20
2.541530206639258
30
0
10
2.6179003814700259
20
2.529298441808316
30
0
10
2.6179003814700259
20
2.5112011575363549
30
0
0
SPLINE
5
442
100
AcDbEntity
8
0
100
AcDbSpline
70
0
71
2
72
6
73
3
74
0
42
0.000000001
43
0.0000000001
44
0.0000000001
40
0
40
0
40
0
40
1
40
1
40
1
10
2.6179003814700259
20
2.5112011575363549
30
0
10
2.6179003814700259
20
2.5019021758923174
30
0
10
2.6234082261096017
20
2.5019021758923174
30
0
0
SPLINE
5
443
100
AcDbEntity
8
0
100
AcDbSpline
70
0
71
2
72
6
73
3
74
0
42
0.000000001
43
0.0000000001
44
0.0000000001
40
0
40
0
40
0
40
1
40
1
40
1
10
2.6234082261096017
20
2.5019021758923174
30
0
10
2.6297744714995246
20
2.5019021758923174
30
0
10
2.6387873508486401
20
2.5116303579115287
30
0
0
SPLINE
5
444
100
AcDbEntity
8
0
100
AcDbSpline
70
0
71
2
72
6
73
3
74
0
42
0.000000001
43
0.0000000001
44
0.0000000001
40
0
40
0
40
0
40
1
40
1
40
1
10
2.6387873508486401
20
2.5116303579115287
30
0
10
2.6509475901058517
20
2.5247204765600277
30
0
10
2.6535226984913134
20
2.5423885839232105
30
0
0
LINE
5
445
100
AcDbEntity
8
0
100
AcDbLine
10
2.6535226984913134
20
2.5423885839232105
30
0
11
2.6546672015365833
21
2.5501139090795952
31
0
0
SPLINE
5
446
100
AcDbEntity
8
0
100
AcDbSpline
70
0
71
2
72
6
73
3
74
0
42
0.000000001
43
0.0000000001
44
0.0000000001
40
0
40
0
40
0
40
1
40
1
40
1
10
2.7330648857465119
20
2.5214300655044704
30
0
10
2.7249104071477448
20
2.5089121749122105
30
0
10
2.7146814991796289
20
2.5001854213244128
30
0
0
SPLINE
5
447
100
AcDbEntity
8
0
100
AcDbSpline
70
0
71
2
72
6
73
3
74
0
42
0.000000001
43
0.0000000001
44
0.0000000001
40
0
40
0
40
0
40
1
40
1
40
1
10
2.7146814991796289
20
2.5001854213244128
30
0
10
2.7044525912115134
20
2.4914586677366151
30
0
10
2.6980148202478595
20
2.4914586677366151
30
0
0
SPLINE
5
448
100
AcDbEntity
8
0
100
AcDbSpline
70
0
71
2
72
6
73
3
74
0
42
0.000000001
43
0.0000000001
44
0.0000000001
40
0
40
0
40
0
40
1
40
1
40
1
10
2.6980148202478595
20
2.4914586677366151
30
0
10
2.690933295654236
20
2.4914586677366151
30
0
10
2.690933295654236
20
2.5009007239945089
30
0
0
SPLINE
5
449
100
AcDbEntity
8
0
100
AcDbSpline
70
0
71
2
72
6
73
3
74
0
42
0.000000001
43
0.0000000001
44
0.0000000001
40
0
40
0
40
0
40
1
40
1
40
1
10
2.690933295654236
20
2.5009007239945089
30
0
10
2.690933295654236
20
2.5044057352376532
30
0
10
2.6918631515791276
20
2.5124171861553553
30
0
0
LINE
5
450
100
AcDbEntity
8
0
100
AcDbLine
10
2.6918631515791276
20
2.5124171861553553
30
0
11
2.6944382599645893
21
2.5358792756526283
31
0
0
SPLINE
5
451
100
AcDbEntity
8
0
100
AcDbSpline
70
0
71
2
72
6
73
3
74
0
42
0.000000001
43
0.0000000001
44
0.0000000001
40
0
40
0
40
0
40
1
40
1
40
1
10
2.6944382599645893
20
2.5358792756526283
30
0
10
2.6945098794039017
20
2.536379989868335
30
0
10
2.6947959816988236
20
2.5400280639921382
30
0
0
LINE
5
452
100
AcDbEntity
8
0
100
AcDbLine
10
2.6947959816988236
20
2.5400280639921382
30
0
11
2.6952251351412064
21
2.5446775665473544
31
0
0
SPLINE
5
453
100
AcDbEntity
8
0
100
AcDbSpline
70
0
71
2
72
6
73
3
74
0
42
0.000000001
43
0.0000000001
44
0.0000000001
40
0
40
0
40
0
40
1
40
1
40
1
10
2.6952251351412064
20
2.5446775665473544
30
0
10
2.6954397118623978
20
2.5467519489839114
30
0
10
2.6954397118623978
20
2.5483971545116901
30
0
0
SPLINE
5
454
100
AcDbEntity
8
0
100
AcDbSpline
70
0
71
2
72
6
73
3
74
0
42
0.000000001
43
0.0000000001
44
0.0000000001
40
0
40
0
40
0
40
1
40
1
40
1
10
2.6954397118623978
20
2.5483971545116901
30
0
10
2.6954397118623978
20
2.5525459428512001
30
0
10
2.693079180198128
20
2.5525459428512001
30
0
0
SPLINE
5
455
100
AcDbEntity
8
0
100
AcDbSpline
70
0
71
2
72
6
73
3
74
0
42
0.000000001
43
0.0000000001
44
0.0000000001
40
0
40
0
40
0
40
1
40
1
40
1
10
2.693079180198128
20
2.5525459428512001
30
0
10
2.6876428845986786
20
2.5525459428512001
30
0
10
2.6813481647824857
20
2.5403141897534556
30
0
0
SPLINE
5
456
100
AcDbEntity
8
0
100
AcDbSpline
70
0
71
2
72
6
73
3
74
0
42
0.000000001
43
0.0000000001
44
0.0000000001
40
0
40
0
40
0
40
1
40
1
40
1
10
2.6813481647824857
20
2.5403141897534556
30
0
10
2.6799890850160244
20
2.5413871437585995
30
0
10
2.6799890850160244
20
2.5426031723775999
30
0
0
SPLINE
5
457
100
AcDbEntity
8
0
100
AcDbSpline
70
0
71
2
72
6
73
3
74
0
42
0.000000001
43
0.0000000001
44
0.0000000001
40
0
40
0
40
0
40
1
40
1
40
1
10
2.6799890850160244
20
2.5426031723775999
30
0
10
2.6799890850160244
20
2.5470380747452293
30
0
10
2.68785746131987
20
2.5544057485665657
30
0
0
SPLINE
5
458
100
AcDbEntity
8
0
100
AcDbSpline
70
0
71
2
72
6
73
3
74
0
42
0.000000001
43
0.0000000001
44
0.0000000001
40
0
40
0
40
0
40
1
40
1
40
1
10
2.68785746131987
20
2.5544057485665657
30
0
10
2.6957974335966326
20
2.5617734223879025
30
0
10
2.7004468774858603
20
2.5617734223879025
30
0
0
SPLINE
5
459
100
AcDbEntity
8
0
100
AcDbSpline
70
0
71
2
72
6
73
3
74
0
42
0.000000001
43
0.0000000001
44
0.0000000001
40
0
40
0
40
0
40
1
40
1
40
1
10
2.7004468774858603
20
2.5617734223879025
30
0
10
2.7063839694334009
20
2.5617734223879025
30
0
10
2.7063839694334009
20
2.5536189085895415
30
0
0
SPLINE
5
460
100
AcDbEntity
8
0
100
AcDbSpline
70
0
71
2
72
6
73
3
74
0
42
0.000000001
43
0.0000000001
44
0.0000000001
40
0
40
0
40
0
40
1
40
1
40
1
10
2.7063839694334009
20
2.5536189085895415
30
0
10
2.7063839694334009
20
2.5516875773004455
30
0
10
2.7060977732728966
20
2.5491124689149838
30
0
0
LINE
5
461
100
AcDbEntity
8
0
100
AcDbLine
10
2.7060977732728966
20
2.5491124689149838
30
0
11
2.7054540431093224
21
2.543604600809013
31
0
0
LINE
5
462
100
AcDbEntity
8
0
100
AcDbLine
10
2.7054540431093224
20
2.543604600809013
30
0
11
2.7048102190801657
21
2.5375960184873354
31
0
0
LINE
5
463
100
AcDbEntity
8
0
100
AcDbLine
10
2.7048102190801657
20
2.5375960184873354
30
0
11
2.7025213068552083
21
2.5171382260174999
31
0
0
SPLINE
5
464
100
AcDbEntity
8
0
100
AcDbSpline
70
0
71
2
72
6
73
3
74
0
42
0.000000001
43
0.0000000001
44
0.0000000001
40
0
40
0
40
0
40
1
40
1
40
1
10
2.7025213068552083
20
2.5171382260174999
30
0
10
2.7019490083997821
20
2.511916483672846
30
0
10
2.7019490083997821
20
2.5065516667143362
30
0
0
SPLINE
5
465
100
AcDbEntity
8
0
100
AcDbSpline
70
0
71
2
72
6
73
3
74
0
42
0.000000001
43
0.0000000001
44
0.0000000001
40
0
40
0
40
0
40
1
40
1
40
1
10
2.7019490083997821
20
2.5065516667143362
30
0
10
2.7019490083997821
20
2.5016160501310001
30
0
10
2.7055970942567833
20
2.5016160501310001
30
0
0
SPLINE
5
466
100
AcDbEntity
8
0
100
AcDbSpline
70
0
71
2
72
6
73
3
74
0
42
0.000000001
43
0.0000000001
44
0.0000000001
40
0
40
0
40
0
40
1
40
1
40
1
10
2.7055970942567833
20
2.5016160501310001
30
0
10
2.7136800472818199
20
2.5016160501310001
30
0
10
2.7238374296762053
20
2.5149207689670861
30
0
0
SPLINE
5
467
100
AcDbEntity
8
0
100
AcDbSpline
70
0
71
2
72
6
73
3
74
0
42
0.000000001
43
0.0000000001
44
0.0000000001
40
0
40
0
40
0
40
1
40
1
40
1
10
2.7238374296762053
20
2.5149207689670861
30
0
10
2.7340663376443208
20
2.528225487803172
30
0
10
2.7359261902924779
20
2.5412440808779406
30
0
0
LINE
5
468
100
AcDbEntity
8
0
100
AcDbLine
10
2.7359261902924779
20
2.5412440808779406
30
0
11
2.7383581536648958
21
2.5581968738378298
31
0
0
LINE
5
469
100
AcDbEntity
8
0
100
AcDbLine
10
2.7383581536648958
20
2.5581968738378298
30
0
11
2.7499461413994726
21
2.5621310737229503
31
0
0
SPLINE
5
470
100
AcDbEntity
8
0
100
AcDbSpline
70
0
71
2
72
6
73
3
74
0
42
0.000000001
43
0.0000000001
44
0.0000000001
40
0
40
0
40
0
40
1
40
1
40
1
10
2.7499461413994726
20
2.5621310737229503
30
0
10
2.7479433314694375
20
2.5538334970439309
30
0
10
2.7469418795716285
20
2.5473242005065466
30
0
0
LINE
5
471
100
AcDbEntity
8
0
100
AcDbLine
10
2.7469418795716285
20
2.5473242005065466
30
0
11
2.7426500635510536
21
2.5174243517788173
31
0
0
SPLINE
5
472
100
AcDbEntity
8
0
100
AcDbSpline
70
0
71
2
72
6
73
3
74
0
42
0.000000001
43
0.0000000001
44
0.0000000001
40
0
40
0
40
0
40
1
40
1
40
1
10
2.7426500635510536
20
2.5174243517788173
30
0
10
2.7422923418168188
20
2.5147061687794992
30
0
10
2.7420777650956274
20
2.5128463630641336
30
0
0
LINE
5
473
100
AcDbEntity
8
0
100
AcDbLine
10
2.7420777650956274
20
2.5128463630641336
30
0
11
2.7415770860795141
21
2.5089121749122105
31
0
0
SPLINE
5
474
100
AcDbEntity
8
0
100
AcDbSpline
70
0
71
2
72
6
73
3
74
0
42
0.000000001
43
0.0000000001
44
0.0000000001
40
0
40
0
40
0
40
1
40
1
40
1
10
2.7415770860795141
20
2.5089121749122105
30
0
10
2.7411479326371313
20
2.5052641125216053
30
0
10
2.7411479326371313
20
2.5037619581412875
30
0
0
SPLINE
5
475
100
AcDbEntity
8
0
100
AcDbSpline
70
0
71
2
72
6
73
3
74
0
42
0.000000001
43
0.0000000001
44
0.0000000001
40
0
40
0
40
0
40
1
40
1
40
1
10
2.7411479326371313
20
2.5037619581412875
30
0
10
2.7411479326371313
20
2.5006861472733175
30
0
10
2.742864640272245
20
2.5006861472733175
30
0
0
SPLINE
5
476
100
AcDbEntity
8
0
100
AcDbSpline
70
0
71
2
72
6
73
3
74
0
42
0.000000001
43
0.0000000001
44
0.0000000001
40
0
40
0
40
0
40
1
40
1
40
1
10
2.742864640272245
20
2.5006861472733175
30
0
10
2.748944783367246
20
2.5006861472733175
30
0
10
2.7552394093178569
20
2.5141339172568644
30
0
0
SPLINE
5
477
100
AcDbEntity
8
0
100
AcDbSpline
70
0
71
2
72
6
73
3
74
0
42
0.000000001
43
0.0000000001
44
0.0000000001
40
0
40
0
40
0
40
1
40
1
40
1
10
2.7552394093178569
20
2.5141339172568644
30
0
10
2.757170787539744
20
2.51298943767799
30
0
10
2.757170787539744
20
2.5118449346327201
30
0
0
SPLINE
5
478
100
AcDbEntity
8
0
100
AcDbSpline
70
0
71
2
72
6
73
3
74
0
42
0.000000001
43
0.0000000001
44
0.0000000001
40
0
40
0
40
0
40
1
40
1
40
1
10
2.757170787539744
20
2.5118449346327201
30
0
10
2.757170787539744
20
2.5093413752873848
30
0
10
2.7509475932972816
20
2.501759101278461
30
0
0
SPLINE
5
479
100
AcDbEntity
8
0
100
AcDbSpline
70
0
71
2
72
6
73
3
74
0
42
0.000000001
43
0.0000000001
44
0.0000000001
40
0
40
0
40
0
40
1
40
1
40
1
10
2.7509475932972816
20
2.501759101278461
30
0
10
2.7425785379773231
20
2.4914586677366151
30
0
10
2.7354254174107822
20
2.4914586677366151
30
0
0
SPLINE
5
480
100
AcDbEntity
8
0
100
AcDbSpline
70
0
71
2
72
6
73
3
74
0
42
0.000000001
43
0.0000000001
44
0.0000000001
40
0
40
0
40
0
40
1
40
1
40
1
10
2.7354254174107822
20
2.4914586677366151
30
0
10
2.7302036750661287
20
2.4914586677366151
30
0
10
2.7302036750661287
20
2.4984686902229036
30
0
0
SPLINE
5
481
100
AcDbEntity
8
0
100
AcDbSpline
70
0
71
2
72
6
73
3
74
0
42
0.000000001
43
0.0000000001
44
0.0000000001
40
0
40
0
40
0
40
1
40
1
40
1
10
2.7302036750661287
20
2.4984686902229036
30
0
10
2.7302036750661287
20
2.5006861472733175
30
0
10
2.730704354082242
20
2.5044057352376532
30
0
0
LINE
5
482
100
AcDbEntity
8
0
100
AcDbLine
10
2.730704354082242
20
2.5044057352376532
30
0
11
2.7314912292588591
21
2.5101282035312109
31
0
0
SPLINE
5
483
100
AcDbEntity
8
0
100
AcDbSpline
70
0
71
2
72
6
73
3
74
0
42
0.000000001
43
0.0000000001
44
0.0000000001
40
0
40
0
40
0
40
1
40
1
40
1
10
2.7314912292588591
20
2.5101282035312109
30
0
10
2.7321350532880158
20
2.5147776943532296
30
0
10
2.7323496300092072
20
2.5164228998810083
30
0
0
LINE
5
484
100
AcDbEntity
8
0
100
AcDbLine
10
2.7323496300092072
20
2.5164228998810083
30
0
11
2.7330648857465119
21
2.5214300655044704
31
0
0
LINE
5
485
100
AcDbEntity
8
0
100
AcDbLine
10
2.7588874951748577
20
2.4953213303148072
30
0
11
2.7687587752743208
21
2.5034043068062397
31
0
0
SPLINE
5
486
100
AcDbEntity
8
0
100
AcDbSpline
70
0
71
2
72
6
73
3
74
0
42
0.000000001
43
0.0000000001
44
0.0000000001
40
0
40
0
40
0
40
1
40
1
40
1
10
2.7687587752743208
20
2.5034043068062397
30
0
10
2.7743381454876266
20
2.4974672617914906
30
0
10
2.7827788202468984
20
2.4974672617914906
30
0
0
SPLINE
5
487
100
AcDbEntity
8
0
100
AcDbSpline
70
0
71
2
72
6
73
3
74
0
42
0.000000001
43
0.0000000001
44
0.0000000001
40
0
40
0
40
0
40
1
40
1
40
1
10
2.7827788202468984
20
2.4974672617914906
30
0
10
2.7930792537887443
20
2.4974672617914906
30
0
10
2.7930792537887443
20
2.5074100439982887
30
0
0
SPLINE
5
488
100
AcDbEntity
8
0
100
AcDbSpline
70
0
71
2
72
6
73
3
74
0
42
0.000000001
43
0.0000000001
44
0.0000000001
40
0
40
0
40
0
40
1
40
1
40
1
10
2.7930792537887443
20
2.5074100439982887
30
0
10
2.7930792537887443
20
2.5129179121042595
30
0
10
2.783637127131664
20
2.5227891452709317
30
0
0
LINE
5
489
100
AcDbEntity
8
0
100
AcDbLine
10
2.783637127131664
20
2.5227891452709317
30
0
11
2.7795598878322805
21
2.5270094591841716
31
0
0
SPLINE
5
490
100
AcDbEntity
8
0
100
AcDbSpline
70
0
71
2
72
6
73
3
74
0
42
0.000000001
43
0.0000000001
44
0.0000000001
40
0
40
0
40
0
40
1
40
1
40
1
10
2.7795598878322805
20
2.5270094591841716
30
0
10
2.7706185340568954
20
2.536379989868335
30
0
10
2.7706185340568954
20
2.5421739837356236
30
0
0
SPLINE
5
491
100
AcDbEntity
8
0
100
AcDbSpline
70
0
71
2
72
6
73
3
74
0
42
0.000000001
43
0.0000000001
44
0.0000000001
40
0
40
0
40
0
40
1
40
1
40
1
10
2.7706185340568954
20
2.5421739837356236
30
0
10
2.7706185340568954
20
2.5504715604146431
30
0
10
2.7777716546234363
20
2.5561224796680748
30
0
0
SPLINE
5
492
100
AcDbEntity
8
0
100
AcDbSpline
70
0
71
2
72
6
73
3
74
0
42
0.000000001
43
0.0000000001
44
0.0000000001
40
0
40
0
40
0
40
1
40
1
40
1
10
2.7777716546234363
20
2.5561224796680748
30
0
10
2.7849962068981253
20
2.5617734223879025
30
0
10
2.7955112171611627
20
2.5617734223879025
30
0
0
SPLINE
5
493
100
AcDbEntity
8
0
100
AcDbSpline
70
0
71
2
72
6
73
3
74
0
42
0.000000001
43
0.0000000001
44
0.0000000001
40
0
40
0
40
0
40
1
40
1
40
1
10
2.7955112171611627
20
2.5617734223879025
30
0
10
2.8012337323875118
20
2.5617734223879025
30
0
10
2.808029131219818
20
2.5596274909112191
30
0
0
LINE
5
494
100
AcDbEntity
8
0
100
AcDbLine
10
2.808029131219818
20
2.5596274909112191
30
0
11
2.7994454053130853
21
2.5516875773004455
31
0
0
SPLINE
5
495
100
AcDbEntity
8
0
100
AcDbSpline
70
0
71
2
72
6
73
3
74
0
42
0.000000001
43
0.0000000001
44
0.0000000001
40
0
40
0
40
0
40
1
40
1
40
1
10
2.7994454053130853
20
2.5516875773004455
30
0
10
2.7940090862472404
20
2.555764828333027
30
0
10
2.7873567385623952
20
2.555764828333027
30
0
0
SPLINE
5
496
100
AcDbEntity
8
0
100
AcDbSpline
70
0
71
2
72
6
73
3
74
0
42
0.000000001
43
0.0000000001
44
0.0000000001
40
0
40
0
40
0
40
1
40
1
40
1
10
2.7873567385623952
20
2.555764828333027
30
0
10
2.7795598878322805
20
2.555764828333027
30
0
10
2.7795598878322805
20
2.5492555317956427
30
0
0
SPLINE
5
497
100
AcDbEntity
8
0
100
AcDbSpline
70
0
71
2
72
6
73
3
74
0
42
0.000000001
43
0.0000000001
44
0.0000000001
40
0
40
0
40
0
40
1
40
1
40
1
10
2.7795598878322805
20
2.5492555317956427
30
0
10
2.7795598878322805
20
2.5446060292404264
30
0
10
2.7882151393127432
20
2.5355931616245089
30
0
0
LINE
5
498
100
AcDbEntity
8
0
100
AcDbLine
10
2.7882151393127432
20
2.5355931616245089
30
0
11
2.7926500064807791
21
2.5308721217623642
31
0
0
SPLINE
5
499
100
AcDbEntity
8
0
100
AcDbSpline
70
0
71
2
72
6
73
3
74
0
42
0.000000001
43
0.0000000001
44
0.0000000001
40
0
40
0
40
0
40
1
40
1
40
1
10
2.7926500064807791
20
2.5308721217623642
30
0
10
2.8025212865802427
20
2.5205716882205182
30
0
10
2.8025212865802427
20
2.5142769918707208
30
0
0
SPLINE
5
500
100
AcDbEntity
8
0
100
AcDbSpline
70
0
71
2
72
6
73
3
74
0
42
0.000000001
43
0.0000000001
44
0.0000000001
40
0
40
0
40
0
40
1
40
1
40
1
10
2.8025212865802427
20
2.5142769918707208
30
0
10
2.8025212865802427
20
2.5052641125216053
30
0
10
2.7938660350997795
20
2.4983256156090472
30
0
0
SPLINE
5
501
100
AcDbEntity
8
0
100
AcDbSpline
70
0
71
2
72
6
73
3
74
0
42
0.000000001
43
0.0000000001
44
0.0000000001
40
0
40
0
40
0
40
1
40
1
40
1
10
2.7938660350997795
20
2.4983256156090472
30
0
10
2.7852107836193167
20
2.4914586677366151
30
0
10
2.7739089920452438
20
2.4914586677366151
30
0
0
SPLINE
5
502
100
AcDbEntity
8
0
100
AcDbSpline
70
0
71
2
72
6
73
3
74
0
42
0.000000001
43
0.0000000001
44
0.0000000001
40
0
40
0
40
0
40
1
40
1
40
1
10
2.7739089920452438
20
2.4914586677366151
30
0
10
2.7658975645939377
20
2.4914586677366151
30
0
10
2.7588874951748577
20
2.4953213303148072
30
0
0
SPLINE
5
503
100
AcDbEntity
8
0
100
AcDbSpline
70
0
71
2
72
6
73
3
74
0
42
0.000000001
43
0.0000000001
44
0.0000000001
40
0
40
0
40
0
40
1
40
1
40
1
10
2.8589590004736225
20
2.5160652485459605
30
0
10
2.8607473275480486
20
2.5148492433933556
30
0
10
2.8607473275480486
20
2.5132040378655769
30
0
0
SPLINE
5
504
100
AcDbEntity
8
0
100
AcDbSpline
70
0
71
2
72
6
73
3
74
0
42
0.000000001
43
0.0000000001
44
0.0000000001
40
0
40
0
40
0
40
1
40
1
40
1
10
2.8607473275480486
20
2.5132040378655769
30
0
10
2.8607473275480486
20
2.5109865808151635
30
0
10
2.8561693153669694
20
2.5056217638566531
30
0
0
SPLINE
5
505
100
AcDbEntity
8
0
100
AcDbSpline
70
0
71
2
72
6
73
3
74
0
42
0.000000001
43
0.0000000001
44
0.0000000001
40
0
40
0
40
0
40
1
40
1
40
1
10
2.8561693153669694
20
2.5056217638566531
30
0
10
2.8439375974688184
20
2.4914586677366151
30
0
10
2.8319918880000068
20
2.4914586677366151
30
0
0
SPLINE
5
506
100
AcDbEntity
8
0
100
AcDbSpline
70
0
71
2
72
6
73
3
74
0
42
0.000000001
43
0.0000000001
44
0.0000000001
40
0
40
0
40
0
40
1
40
1
40
1
10
2.8319918880000068
20
2.4914586677366151
30
0
10
2.8246958101515873
20
2.4914586677366151
30
0
10
2.8199747468230472
20
2.4972526616039032
30
0
0
SPLINE
5
507
100
AcDbEntity
8
0
100
AcDbSpline
70
0
71
2
72
6
73
3
74
0
42
0.000000001
43
0.0000000001
44
0.0000000001
40
0
40
0
40
0
40
1
40
1
40
1
10
2.8199747468230472
20
2.4972526616039032
30
0
10
2.8152537773600894
20
2.5030466554711919
30
0
10
2.8152537773600894
20
2.512059534820307
30
0
0
SPLINE
5
508
100
AcDbEntity
8
0
100
AcDbSpline
70
0
71
2
72
6
73
3
74
0
42
0.000000001
43
0.0000000001
44
0.0000000001
40
0
40
0
40
0
40
1
40
1
40
1
10
2.8152537773600894
20
2.512059534820307
30
0
10
2.8152537773600894
20
2.5283685506838309
30
0
10
2.8275570208319709
20
2.5450352178824023
30
0
0
SPLINE
5
509
100
AcDbEntity
8
0
100
AcDbSpline
70
0
71
2
72
6
73
3
74
0
42
0.000000001
43
0.0000000001
44
0.0000000001
40
0
40
0
40
0
40
1
40
1
40
1
10
2.8275570208319709
20
2.5450352178824023
30
0
10
2.8399318837431653
20
2.5617734223879025
30
0
10
2.8520205504938554
20
2.5617734223879025
30
0
0
SPLINE
5
510
100
AcDbEntity
8
0
100
AcDbSpline
70
0
71
2
72
6
73
3
74
0
42
0.000000001
43
0.0000000001
44
0.0000000001
40
0
40
0
40
0
40
1
40
1
40
1
10
2.8520205504938554
20
2.5617734223879025
30
0
10
2.8607473275480486
20
2.5617734223879025
30
0
10
2.8607473275480486
20
2.5524028917037391
30
0
0
SPLINE
5
511
100
AcDbEntity
8
0
100
AcDbSpline
70
0
71
2
72
6
73
3
74
0
42
0.000000001
43
0.0000000001
44
0.0000000001
40
0
40
0
40
0
40
1
40
1
40
1
10
2.8607473275480486
20
2.5524028917037391
30
0
10
2.8607473275480486
20
2.5418878579743063
30
0
10
2.8505184195799331
20
2.5318735501937772
30
0
0
SPLINE
5
512
100
AcDbEntity
8
0
100
AcDbSpline
70
0
71
2
72
6
73
3
74
0
42
0.000000001
43
0.0000000001
44
0.0000000001
40
0
40
0
40
0
40
1
40
1
40
1
10
2.8505184195799331
20
2.5318735501937772
30
0
10
2.8403610371855481
20
2.5218592424132487
30
0
10
2.8256972620493963
20
2.5179250542613261
30
0
0
SPLINE
5
513
100
AcDbEntity
8
0
100
AcDbSpline
70
0
71
2
72
6
73
3
74
0
42
0.000000001
43
0.0000000001
44
0.0000000001
40
0
40
0
40
0
40
1
40
1
40
1
10
2.8256972620493963
20
2.5179250542613261
30
0
10
2.8271278673895881
20
2.5006861472733175
30
0
10
2.8392880597140087
20
2.5006861472733175
30
0
0
SPLINE
5
514
100
AcDbEntity
8
0
100
AcDbSpline
70
0
71
2
72
6
73
3
74
0
42
0.000000001
43
0.0000000001
44
0.0000000001
40
0
40
0
40
0
40
1
40
1
40
1
10
2.8392880597140087
20
2.5006861472733175
30
0
10
2.8513052008909683
20
2.5006861472733175
30
0
10
2.8589590004736225
20
2.5160652485459605
30
0
0
SPLINE
5
515
100
AcDbEntity
8
0
100
AcDbSpline
70
0
71
2
72
6
73
3
74
0
42
0.000000001
43
0.0000000001
44
0.0000000001
40
0
40
0
40
0
40
1
40
1
40
1
10
2.8259833643443182
20
2.5266518078491238
30
0
10
2.8280576998480842
20
2.5259365051790281
30
0
10
2.8297745013487798
20
2.5259365051790281
30
0
0
SPLINE
5
516
100
AcDbEntity
8
0
100
AcDbSpline
70
0
71
2
72
6
73
3
74
0
42
0.000000001
43
0.0000000001
44
0.0000000001
40
0
40
0
40
0
40
1
40
1
40
1
10
2.8297745013487798
20
2.5259365051790281
30
0
10
2.8386443295504344
20
2.5259365051790281
30
0
10
2.8452966772352797
20
2.5313728359780709
30
0
0
SPLINE
5
517
100
AcDbEntity
8
0
100
AcDbSpline
70
0
71
2
72
6
73
3
74
0
42
0.000000001
43
0.0000000001
44
0.0000000001
40
0
40
0
40
0
40
1
40
1
40
1
10
2.8452966772352797
20
2.5313728359780709
30
0
10
2.8519490249201249
20
2.5368091785103113
30
0
10
2.8519490249201249
20
2.5441053150247197
30
0
0
SPLINE
5
518
100
AcDbEntity
8
0
100
AcDbSpline
70
0
71
2
72
6
73
3
74
0
42
0.000000001
43
0.0000000001
44
0.0000000001
40
0
40
0
40
0
40
1
40
1
40
1
10
2.8519490249201249
20
2.5441053150247197
30
0
10
2.8519490249201249
20
2.5524744172774696
30
0
10
2.8434368245871227
20
2.5524744172774696
30
0
0
SPLINE
5
519
100
AcDbEntity
8
0
100
AcDbSpline
70
0
71
2
72
6
73
3
74
0
42
0.000000001
43
0.0000000001
44
0.0000000001
40
0
40
0
40
0
40
1
40
1
40
1
10
2.8434368245871227
20
2.5524744172774696
30
0
10
2.8372852497839731
20
2.5524744172774696
30
0
10
2.8322780841605111
20
2.5451067434561327
30
0
0
SPLINE
5
520
100
AcDbEntity
8
0
100
AcDbSpline
70
0
71
2
72
6
73
3
74
0
42
0.000000001
43
0.0000000001
44
0.0000000001
40
0
40
0
40
0
40
1
40
1
40
1
10
2.8322780841605111
20
2.5451067434561327
30
0
10
2.8273424441107795
20
2.5378106069417248
30
0
10
2.8259833643443182
20
2.5266518078491238
30
0
0
SPLINE
5
521
100
AcDbEntity
8
0
100
AcDbSpline
70
0
71
2
72
6
73
3
74
0
42
0.000000001
43
0.0000000001
44
0.0000000001
40
0
40
0
40
0
40
1
40
1
40
1
10
1.7774762839972686
20
1.5496481330317615
30
0
10
1.7634562536911884
20
1.5496481330317615
30
0
10
1.7545149072490522
20
1.5606638692437036
30
0
0
SPLINE
5
522
100
AcDbEntity
8
0
100
AcDbSpline
70
0
71
2
72
6
73
3
74
0
42
0.000000001
43
0.0000000001
44
0.0000000001
40
0
40
0
40
0
40
1
40
1
40
1
10
1.7545149072490522
20
1.5606638692437036
30
0
10
1.7456450922472453
20
1.5717511310293759
30
0
10
1.7456450922472453
20
1.5891331126312411
30
0
0
SPLINE
5
523
100
AcDbEntity
8
0
100
AcDbSpline
70
0
71
2
72
6
73
3
74
0
42
0.000000001
43
0.0000000001
44
0.0000000001
40
0
40
0
40
0
40
1
40
1
40
1
10
1.7456450922472453
20
1.5891331126312411
30
0
10
1.7456450922472453
20
1.614383470536952
30
0
10
1.7626694137141643
20
1.6329814690246198
30
0
0
SPLINE
5
524
100
AcDbEntity
8
0
100
AcDbSpline
70
0
71
2
72
6
73
3
74
0
42
0.000000001
43
0.0000000001
44
0.0000000001
40
0
40
0
40
0
40
1
40
1
40
1
10
1.7626694137141643
20
1.6329814690246198
30
0
10
1.7797652666214128
20
1.6516510048192157
30
0
10
1.802941233290668
20
1.6516510048192157
30
0
0
SPLINE
5
525
100
AcDbEntity
8
0
100
AcDbSpline
70
0
71
2
72
6
73
3
74
0
42
0.000000001
43
0.0000000001
44
0.0000000001
40
0
40
0
40
0
40
1
40
1
40
1
10
1.802941233290668
20
1.6516510048192157
30
0
10
1.8173189178650957
20
1.6516510048192157
30
0
10
1.8262602657738816
20
1.6407067941810043
30
0
0
SPLINE
5
526
100
AcDbEntity
8
0
100
AcDbSpline
70
0
71
2
72
6
73
3
74
0
42
0.000000001
43
0.0000000001
44
0.0000000001
40
0
40
0
40
0
40
1
40
1
40
1
10
1.8262602657738816
20
1.6407067941810043
30
0
10
1.8352016136826677
20
1.6298341208497211
30
0
10
1.8352016136826677
20
1.6122375507934665
30
0
0
SPLINE
5
527
100
AcDbEntity
8
0
100
AcDbSpline
70
0
71
2
72
6
73
3
74
0
42
0.000000001
43
0.0000000001
44
0.0000000001
40
0
40
0
40
0
40
1
40
1
40
1
10
1.8352016136826677
20
1.6122375507934665
30
0
10
1.8352016136826677
20
1.5867726044333665
30
0
10
1.8180342264017904
20
1.5681745942125012
30
0
0
SPLINE
5
528
100
AcDbEntity
8
0
100
AcDbSpline
70
0
71
2
72
6
73
3
74
0
42
0.000000001
43
0.0000000001
44
0.0000000001
40
0
40
0
40
0
40
1
40
1
40
1
10
1.8180342264017904
20
1.5681745942125012
30
0
10
1.8009383764278415
20
1.5496481330317615
30
0
10
1.7774762839972686
20
1.5496481330317615
30
0
0
SPLINE
5
529
100
AcDbEntity
8
0
100
AcDbSpline
70
0
71
2
72
6
73
3
74
0
42
0.000000001
43
0.0000000001
44
0.0000000001
40
0
40
0
40
0
40
1
40
1
40
1
10
1.7868468117481324
20
1.5554421268990499
30
0
10
1.8016536790979374
20
1.5554421268990499
30
0
10
1.8115964554381365
20
1.5696767485928189
30
0
0
SPLINE
5
530
100
AcDbEntity
8
0
100
AcDbSpline
70
0
71
2
72
6
73
3
74
0
42
0.000000001
43
0.0000000001
44
0.0000000001
40
0
40
0
40
0
40
1
40
1
40
1
10
1.8115964554381365
20
1.5696767485928189
30
0
10
1.8216107632186651
20
1.5839113702865877
30
0
10
1.8216107632186651
20
1.6050129398527886
30
0
0
SPLINE
5
531
100
AcDbEntity
8
0
100
AcDbSpline
70
0
71
2
72
6
73
3
74
0
42
0.000000001
43
0.0000000001
44
0.0000000001
40
0
40
0
40
0
40
1
40
1
40
1
10
1.8216107632186651
20
1.6050129398527886
30
0
10
1.8216107632186651
20
1.6226810472159714
30
0
10
1.8138139124885502
20
1.6342690232173505
30
0
0
SPLINE
5
532
100
AcDbEntity
8
0
100
AcDbSpline
70
0
71
2
72
6
73
3
74
0
42
0.000000001
43
0.0000000001
44
0.0000000001
40
0
40
0
40
0
40
1
40
1
40
1
10
1.8138139124885502
20
1.6342690232173505
30
0
10
1.8060170558918363
20
1.6459285482588555
30
0
10
1.7942144797028703
20
1.6459285482588555
30
0
0
SPLINE
5
533
100
AcDbEntity
8
0
100
AcDbSpline
70
0
71
2
72
6
73
3
74
0
42
0.000000001
43
0.0000000001
44
0.0000000001
40
0
40
0
40
0
40
1
40
1
40
1
10
1.7942144797028703
20
1.6459285482588555
30
0
10
1.779264552405706
20
1.6459285482588555
30
0
10
1.7692502446251774
20
1.6316939265650867
30
0
0
SPLINE
5
534
100
AcDbEntity
8
0
100
AcDbSpline
70
0
71
2
72
6
73
3
74
0
42
0.000000001
43
0.0000000001
44
0.0000000001
40
0
40
0
40
0
40
1
40
1
40
1
10
1.7692502446251774
20
1.6316939265650867
30
0
10
1.7592359383112985
20
1.6175308304450484
30
0
10
1.7592359383112985
20
1.5962861862649909
30
0
0
SPLINE
5
535
100
AcDbEntity
8
0
100
AcDbSpline
70
0
71
2
72
6
73
3
74
0
42
0.000000001
43
0.0000000001
44
0.0000000001
40
0
40
0
40
0
40
1
40
1
40
1
10
1.7592359383112985
20
1.5962861862649909
30
0
10
1.7592359383112985
20
1.5785465533280776
30
0
10
1.7670327905080634
20
1.5669585655935008
30
0
0
SPLINE
5
536
100
AcDbEntity
8
0
100
AcDbSpline
70
0
71
2
72
6
73
3
74
0
42
0.000000001
43
0.0000000001
44
0.0000000001
40
0
40
0
40
0
40
1
40
1
40
1
10
1.7670327905080634
20
1.5669585655935008
30
0
10
1.7748296441714777
20
1.5554421268990499
30
0
10
1.7868468117481324
20
1.5554421268990499
30
0
0
LINE
5
537
100
AcDbEntity
8
0
100
AcDbLine
10
1.8621687026898874
20
1.5550844755640021
30
0
11
1.8515106178129934
21
1.5507210870369053
31
0
0
LINE
5
538
100
AcDbEntity
8
0
100
AcDbLine
10
1.8515106178129934
20
1.5507210870369053
30
0
11
1.8517252180005805
21
1.552723943899732
31
0
0
LINE
5
539
100
AcDbEntity
8
0
100
AcDbLine
10
1.8517252180005805
20
1.552723943899732
30
0
11
1.8522974577900175
21
1.5580172352845114
31
0
0
LINE
5
540
100
AcDbEntity
8
0
100
AcDbLine
10
1.8522974577900175
20
1.5580172352845114
30
0
11
1.8528697093126525
21
1.563024377441578
31
0
0
LINE
5
541
100
AcDbEntity
8
0
100
AcDbLine
10
1.8528697093126525
20
1.563024377441578
30
0
11
1.8565893090101862
21
1.5962146606912604
31
0
0
LINE
5
542
100
AcDbEntity
8
0
100
AcDbLine
10
1.8565893090101862
20
1.5962146606912604
30
0
11
1.8570184859189645
21
1.6000057859625243
31
0
0
SPLINE
5
543
100
AcDbEntity
8
0
100
AcDbSpline
70
0
71
2
72
6
73
3
74
0
42
0.000000001
43
0.0000000001
44
0.0000000001
40
0
40
0
40
0
40
1
40
1
40
1
10
1.8570184859189645
20
1.6000057859625243
30
0
10
1.8574476745609407
20
1.6044406883301539
30
0
10
1.8574476745609407
20
1.6071588713294718
30
0
0
SPLINE
5
544
100
AcDbEntity
8
0
100
AcDbSpline
70
0
71
2
72
6
73
3
74
0
42
0.000000001
43
0.0000000001
44
0.0000000001
40
0
40
0
40
0
40
1
40
1
40
1
10
1.8574476745609407
20
1.6071588713294718
30
0
10
1.8574476745609407
20
1.61173683657776
30
0
10
1.8551586919367966
20
1.61173683657776
30
0
0
SPLINE
5
545
100
AcDbEntity
8
0
100
AcDbSpline
70
0
71
2
72
6
73
3
74
0
42
0.000000001
43
0.0000000001
44
0.0000000001
40
0
40
0
40
0
40
1
40
1
40
1
10
1.8551586919367966
20
1.61173683657776
30
0
10
1.8497938867114843
20
1.61173683657776
30
0
10
1.843642241509148
20
1.599576609053746
30
0
0
SPLINE
5
546
100
AcDbEntity
8
0
100
AcDbSpline
70
0
71
2
72
6
73
3
74
0
42
0.000000001
43
0.0000000001
44
0.0000000001
40
0
40
0
40
0
40
1
40
1
40
1
10
1.843642241509148
20
1.599576609053746
30
0
10
1.8419970242481716
20
1.6009356888202073
30
0
10
1.8419970242481716
20
1.6019371172516206
30
0
0
SPLINE
5
547
100
AcDbEntity
8
0
100
AcDbSpline
70
0
71
2
72
6
73
3
74
0
42
0.000000001
43
0.0000000001
44
0.0000000001
40
0
40
0
40
0
40
1
40
1
40
1
10
1.8419970242481716
20
1.6019371172516206
30
0
10
1.8419970242481716
20
1.606228968471789
30
0
10
1.8497938867114843
20
1.6135966422931256
30
0
0
SPLINE
5
548
100
AcDbEntity
8
0
100
AcDbSpline
70
0
71
2
72
6
73
3
74
0
42
0.000000001
43
0.0000000001
44
0.0000000001
40
0
40
0
40
0
40
1
40
1
40
1
10
1.8497938867114843
20
1.6135966422931256
30
0
10
1.8576622630153299
20
1.6210358416881927
30
0
10
1.8621687026898874
20
1.6210358416881927
30
0
0
SPLINE
5
549
100
AcDbEntity
8
0
100
AcDbSpline
70
0
71
2
72
6
73
3
74
0
42
0.000000001
43
0.0000000001
44
0.0000000001
40
0
40
0
40
0
40
1
40
1
40
1
10
1.8621687026898874
20
1.6210358416881927
30
0
10
1.8683203478922239
20
1.6210358416881927
30
0
10
1.8683203478922239
20
1.6131674419179516
30
0
0
SPLINE
5
550
100
AcDbEntity
8
0
100
AcDbSpline
70
0
71
2
72
6
73
3
74
0
42
0.000000001
43
0.0000000001
44
0.0000000001
40
0
40
0
40
0
40
1
40
1
40
1
10
1.8683203478922239
20
1.6131674419179516
30
0
10
1.8683203478922239
20
1.6111645850551251
30
0
10
1.8679626965571758
20
1.6078026484258372
30
0
0
LINE
5
551
100
AcDbEntity
8
0
100
AcDbLine
10
1.8679626965571758
20
1.6078026484258372
30
0
11
1.8673904450345411
21
1.6020086545585488
31
0
0
LINE
5
552
100
AcDbEntity
8
0
100
AcDbLine
10
1.8673904450345411
20
1.6020086545585488
30
0
11
1.8668182052451039
21
1.5971445635489432
31
0
0
LINE
5
553
100
AcDbEntity
8
0
100
AcDbLine
10
1.8668182052451039
20
1.5971445635489432
30
0
11
1.8662459537224689
21
1.5920658723517507
31
0
0
SPLINE
5
554
100
AcDbEntity
8
0
100
AcDbSpline
70
0
71
2
72
6
73
3
74
0
42
0.000000001
43
0.0000000001
44
0.0000000001
40
0
40
0
40
0
40
1
40
1
40
1
10
1.8662459537224689
20
1.5920658723517507
30
0
10
1.8746865932821473
20
1.6046552885177408
30
0
10
1.8847009010626758
20
1.6128097905829037
30
0
0
SPLINE
5
555
100
AcDbEntity
8
0
100
AcDbSpline
70
0
71
2
72
6
73
3
74
0
42
0.000000001
43
0.0000000001
44
0.0000000001
40
0
40
0
40
0
40
1
40
1
40
1
10
1.8847009010626758
20
1.6128097905829037
30
0
10
1.8947867344169349
20
1.6210358416881927
30
0
10
1.9018682824769542
20
1.6210358416881927
30
0
0
SPLINE
5
556
100
AcDbEntity
8
0
100
AcDbSpline
70
0
71
2
72
6
73
3
74
0
42
0.000000001
43
0.0000000001
44
0.0000000001
40
0
40
0
40
0
40
1
40
1
40
1
10
1.9018682824769542
20
1.6210358416881927
30
0
10
1.9088067676563145
20
1.6210358416881927
30
0
10
1.9088067676563145
20
1.611379185242712
30
0
0
SPLINE
5
557
100
AcDbEntity
8
0
100
AcDbSpline
70
0
71
2
72
6
73
3
74
0
42
0.000000001
43
0.0000000001
44
0.0000000001
40
0
40
0
40
0
40
1
40
1
40
1
10
1.9088067676563145
20
1.611379185242712
30
0
10
1.9088067676563145
20
1.6084464255222026
30
0
10
1.9080199276792904
20
1.602580894347986
30
0
0
LINE
5
558
100
AcDbEntity
8
0
100
AcDbLine
10
1.9080199276792904
20
1.602580894347986
30
0
11
1.9041572651010981
21
1.5758999193688856
31
0
0
SPLINE
5
559
100
AcDbEntity
8
0
100
AcDbSpline
70
0
71
2
72
6
73
3
74
0
42
0.000000001
43
0.0000000001
44
0.0000000001
40
0
40
0
40
0
40
1
40
1
40
1
10
1.9041572651010981
20
1.5758999193688856
30
0
10
1.9030127737890261
20
1.5678884684511836
30
0
10
1.9030127737890261
20
1.5632389776291651
30
0
0
SPLINE
5
560
100
AcDbEntity
8
0
100
AcDbSpline
70
0
71
2
72
6
73
3
74
0
42
0.000000001
43
0.0000000001
44
0.0000000001
40
0
40
0
40
0
40
1
40
1
40
1
10
1.9030127737890261
20
1.5632389776291651
30
0
10
1.9030127737890261
20
1.5595193661984337
30
0
10
1.9050156306518526
20
1.5595193661984337
30
0
0
SPLINE
5
561
100
AcDbEntity
8
0
100
AcDbSpline
70
0
71
2
72
6
73
3
74
0
42
0.000000001
43
0.0000000001
44
0.0000000001
40
0
40
0
40
0
40
1
40
1
40
1
10
1.9050156306518526
20
1.5595193661984337
30
0
10
1.9099512589683865
20
1.5595193661984337
30
0
10
1.9171758581758667
20
1.5726810338870587
30
0
0
SPLINE
5
562
100
AcDbEntity
8
0
100
AcDbSpline
70
0
71
2
72
6
73
3
74
0
42
0.000000001
43
0.0000000001
44
0.0000000001
40
0
40
0
40
0
40
1
40
1
40
1
10
1.9171758581758667
20
1.5726810338870587
30
0
10
1.9188926010105736
20
1.571608079881915
30
0
10
1.9188926010105736
20
1.5704635768366451
30
0
0
SPLINE
5
563
100
AcDbEntity
8
0
100
AcDbSpline
70
0
71
2
72
6
73
3
74
0
42
0.000000001
43
0.0000000001
44
0.0000000001
40
0
40
0
40
0
40
1
40
1
40
1
10
1.9188926010105736
20
1.5704635768366451
30
0
10
1.9188926010105736
20
1.5658140860146266
30
0
10
1.9108811500928715
20
1.5582318120057028
30
0
0
SPLINE
5
564
100
AcDbEntity
8
0
100
AcDbSpline
70
0
71
2
72
6
73
3
74
0
42
0.000000001
43
0.0000000001
44
0.0000000001
40
0
40
0
40
0
40
1
40
1
40
1
10
1.9108811500928715
20
1.5582318120057028
30
0
10
1.9029412364820979
20
1.5507210870369053
30
0
10
1.8979340825918336
20
1.5507210870369053
30
0
0
SPLINE
5
565
100
AcDbEntity
8
0
100
AcDbSpline
70
0
71
2
72
6
73
3
74
0
42
0.000000001
43
0.0000000001
44
0.0000000001
40
0
40
0
40
0
40
1
40
1
40
1
10
1.8979340825918336
20
1.5507210870369053
30
0
10
1.8923546889121321
20
1.5507210870369053
30
0
10
1.8923546889121321
20
1.5587325379546073
30
0
0
SPLINE
5
566
100
AcDbEntity
8
0
100
AcDbSpline
70
0
71
2
72
6
73
3
74
0
42
0.000000001
43
0.0000000001
44
0.0000000001
40
0
40
0
40
0
40
1
40
1
40
1
10
1.8923546889121321
20
1.5587325379546073
30
0
10
1.8923546889121321
20
1.5645980573956262
30
0
10
1.8938568315592521
20
1.5749700165112028
30
0
0
LINE
5
567
100
AcDbEntity
8
0
100
AcDbLine
10
1.8938568315592521
20
1.5749700165112028
30
0
11
1.8963604143709831
21
1.5922804725393376
31
0
0
SPLINE
5
568
100
AcDbEntity
8
0
100
AcDbSpline
70
0
71
2
72
6
73
3
74
0
42
0.000000001
43
0.0000000001
44
0.0000000001
40
0
40
0
40
0
40
1
40
1
40
1
10
1.8963604143709831
20
1.5922804725393376
30
0
10
1.8975764312567855
20
1.6007211003658179
30
0
10
1.8975764312567855
20
1.605656716949154
30
0
0
SPLINE
5
569
100
AcDbEntity
8
0
100
AcDbSpline
70
0
71
2
72
6
73
3
74
0
42
0.000000001
43
0.0000000001
44
0.0000000001
40
0
40
0
40
0
40
1
40
1
40
1
10
1.8975764312567855
20
1.605656716949154
30
0
10
1.8975764312567855
20
1.6113076479357837
30
0
10
1.893642243104863
20
1.6113076479357837
30
0
0
SPLINE
5
570
100
AcDbEntity
8
0
100
AcDbSpline
70
0
71
2
72
6
73
3
74
0
42
0.000000001
43
0.0000000001
44
0.0000000001
40
0
40
0
40
0
40
1
40
1
40
1
10
1.893642243104863
20
1.6113076479357837
30
0
10
1.8844863008750887
20
1.6113076479357837
30
0
10
1.8750442446171951
20
1.5988612946504523
30
0
0
SPLINE
5
571
100
AcDbEntity
8
0
100
AcDbSpline
70
0
71
2
72
6
73
3
74
0
42
0.000000001
43
0.0000000001
44
0.0000000001
40
0
40
0
40
0
40
1
40
1
40
1
10
1.8750442446171951
20
1.5988612946504523
30
0
10
1.8656737139330319
20
1.5864864786720492
30
0
10
1.8641000339789837
20
1.5722518569782804
30
0
0
LINE
5
572
100
AcDbEntity
8
0
100
AcDbLine
10
1.8641000339789837
20
1.5722518569782804
30
0
11
1.8621687026898874
21
1.5550844755640021
31
0
0
LINE
5
573
100
AcDbEntity
8
0
100
AcDbLine
10
1.9025835851470498
20
1.5220372669281763
30
0
11
2.0017967366282576
21
1.6760429971741719
31
0
0
LINE
5
574
100
AcDbEntity
8
0
100
AcDbLine
10
2.0017967366282576
20
1.6760429971741719
30
0
11
2.0157452560271047
21
1.6820515794958495
31
0
0
LINE
5
575
100
AcDbEntity
8
0
100
AcDbLine
10
2.0157452560271047
20
1.6820515794958495
30
0
11
1.9164605555057708
21
1.5279027863691952
31
0
0
LINE
5
576
100
AcDbEntity
8
0
100
AcDbLine
10
1.9164605555057708
20
1.5279027863691952
30
0
11
1.9025835851470498
21
1.5220372669281763
31
0
0
SPLINE
5
577
100
AcDbEntity
8
0
100
AcDbSpline
70
0
71
2
72
6
73
3
74
0
42
0.000000001
43
0.0000000001
44
0.0000000001
40
0
40
0
40
0
40
1
40
1
40
1
10
2.0241143582798546
20
1.5496481330317615
30
0
10
2.0100943602400685
20
1.5496481330317615
30
0
10
2.0011530064646834
20
1.5606638692437036
30
0
0
SPLINE
5
578
100
AcDbEntity
8
0
100
AcDbSpline
70
0
71
2
72
6
73
3
74
0
42
0.000000001
43
0.0000000001
44
0.0000000001
40
0
40
0
40
0
40
1
40
1
40
1
10
2.0011530064646834
20
1.5606638692437036
30
0
10
1.9922831782630293
20
1.5717511310293759
30
0
10
1.9922831782630293
20
1.5891331126312411
30
0
0
SPLINE
5
579
100
AcDbEntity
8
0
100
AcDbSpline
70
0
71
2
72
6
73
3
74
0
42
0.000000001
43
0.0000000001
44
0.0000000001
40
0
40
0
40
0
40
1
40
1
40
1
10
1.9922831782630293
20
1.5891331126312411
30
0
10
1.9922831782630293
20
1.614383470536952
30
0
10
2.0093074850634509
20
1.6329814690246198
30
0
0
SPLINE
5
580
100
AcDbEntity
8
0
100
AcDbSpline
70
0
71
2
72
6
73
3
74
0
42
0.000000001
43
0.0000000001
44
0.0000000001
40
0
40
0
40
0
40
1
40
1
40
1
10
2.0093074850634509
20
1.6329814690246198
30
0
10
2.0264033643703945
20
1.6516510048192157
30
0
10
2.0495793398395481
20
1.6516510048192157
30
0
0
SPLINE
5
581
100
AcDbEntity
8
0
100
AcDbSpline
70
0
71
2
72
6
73
3
74
0
42
0.000000001
43
0.0000000001
44
0.0000000001
40
0
40
0
40
0
40
1
40
1
40
1
10
2.0495793398395481
20
1.6516510048192157
30
0
10
2.063957012680778
20
1.6516510048192157
30
0
10
2.0728983664561627
20
1.6407067941810043
30
0
0
SPLINE
5
582
100
AcDbEntity
8
0
100
AcDbSpline
70
0
71
2
72
6
73
3
74
0
42
0.000000001
43
0.0000000001
44
0.0000000001
40
0
40
0
40
0
40
1
40
1
40
1
10
2.0728983664561627
20
1.6407067941810043
30
0
10
2.0818396732987563
20
1.6298341208497211
30
0
10
2.0818396732987563
20
1.6122375507934665
30
0
0
SPLINE
5
583
100
AcDbEntity
8
0
100
AcDbSpline
70
0
71
2
72
6
73
3
74
0
42
0.000000001
43
0.0000000001
44
0.0000000001
40
0
40
0
40
0
40
1
40
1
40
1
10
2.0818396732987563
20
1.6122375507934665
30
0
10
2.0818396732987563
20
1.5867726044333665
30
0
10
2.0646723153508737
20
1.5681745942125012
30
0
0
SPLINE
5
584
100
AcDbEntity
8
0
100
AcDbSpline
70
0
71
2
72
6
73
3
74
0
42
0.000000001
43
0.0000000001
44
0.0000000001
40
0
40
0
40
0
40
1
40
1
40
1
10
2.0646723153508737
20
1.5681745942125012
30
0
10
2.0475764360439301
20
1.5496481330317615
30
0
10
2.0241143582798546
20
1.5496481330317615
30
0
0
SPLINE
5
585
100
AcDbEntity
8
0
100
AcDbSpline
70
0
71
2
72
6
73
3
74
0
42
0.000000001
43
0.0000000001
44
0.0000000001
40
0
40
0
40
0
40
1
40
1
40
1
10
2.0334849124304135
20
1.5554421268990499
30
0
10
2.0482917856468172
20
1.5554421268990499
30
0
10
2.0582345443872199
20
1.5696767485928189
30
0
0
SPLINE
5
586
100
AcDbEntity
8
0
100
AcDbSpline
70
0
71
2
72
6
73
3
74
0
42
0.000000001
43
0.0000000001
44
0.0000000001
40
0
40
0
40
0
40
1
40
1
40
1
10
2.0582345443872199
20
1.5696767485928189
30
0
10
2.068248828701353
20
1.5839113702865877
30
0
10
2.068248828701353
20
1.6050129398527886
30
0
0
SPLINE
5
587
100
AcDbEntity
8
0
100
AcDbSpline
70
0
71
2
72
6
73
3
74
0
42
0.000000001
43
0.0000000001
44
0.0000000001
40
0
40
0
40
0
40
1
40
1
40
1
10
2.068248828701353
20
1.6050129398527886
30
0
10
2.068248828701353
20
1.6226810472159714
30
0
10
2.0604519779712378
20
1.6342690232173505
30
0
0
SPLINE
5
588
100
AcDbEntity
8
0
100
AcDbSpline
70
0
71
2
72
6
73
3
74
0
42
0.000000001
43
0.0000000001
44
0.0000000001
40
0
40
0
40
0
40
1
40
1
40
1
10
2.0604519779712378
20
1.6342690232173505
30
0
10
2.0526551272411231
20
1.6459285482588555
30
0
10
2.0408525627853544
20
1.6459285482588555
30
0
0
SPLINE
5
589
100
AcDbEntity
8
0
100
AcDbSpline
70
0
71
2
72
6
73
3
74
0
42
0.000000001
43
0.0000000001
44
0.0000000001
40
0
40
0
40
0
40
1
40
1
40
1
10
2.0408525627853544
20
1.6459285482588555
30
0
10
2.0259026384214898
20
1.6459285482588555
30
0
10
2.0158883071745657
20
1.6316939265650867
30
0
0
SPLINE
5
590
100
AcDbEntity
8
0
100
AcDbSpline
70
0
71
2
72
6
73
3
74
0
42
0.000000001
43
0.0000000001
44
0.0000000001
40
0
40
0
40
0
40
1
40
1
40
1
10
2.0158883071745657
20
1.6316939265650867
30
0
10
2.0058740228604326
20
1.6175308304450484
30
0
10
2.0058740228604326
20
1.5962861862649909
30
0
0
SPLINE
5
591
100
AcDbEntity
8
0
100
AcDbSpline
70
0
71
2
72
6
73
3
74
0
42
0.000000001
43
0.0000000001
44
0.0000000001
40
0
40
0
40
0
40
1
40
1
40
1
10
2.0058740228604326
20
1.5962861862649909
30
0
10
2.0058740228604326
20
1.5785465533280776
30
0
10
2.0136708735905477
20
1.5669585655935008
30
0
0
SPLINE
5
592
100
AcDbEntity
8
0
100
AcDbSpline
70
0
71
2
72
6
73
3
74
0
42
0.000000001
43
0.0000000001
44
0.0000000001
40
0
40
0
40
0
40
1
40
1
40
1
10
2.0136708735905477
20
1.5669585655935008
30
0
10
2.0214677243206629
20
1.5554421268990499
30
0
10
2.0334849124304135
20
1.5554421268990499
30
0
0
LINE
5
593
100
AcDbEntity
8
0
100
AcDbLine
10
2.1121687224016599
20
1.6108784592938077
30
0
11
2.1063747285343712
21
1.5530100696610494
31
0
0
SPLINE
5
594
100
AcDbEntity
8
0
100
AcDbSpline
70
0
71
2
72
6
73
3
74
0
42
0.000000001
43
0.0000000001
44
0.0000000001
40
0
40
0
40
0
40
1
40
1
40
1
10
2.1063747285343712
20
1.5530100696610494
30
0
10
2.1044433972452752
20
1.53333910543504
30
0
10
2.1003661579458917
20
1.5230386953595896
30
0
0
SPLINE
5
595
100
AcDbEntity
8
0
100
AcDbSpline
70
0
71
2
72
6
73
3
74
0
42
0.000000001
43
0.0000000001
44
0.0000000001
40
0
40
0
40
0
40
1
40
1
40
1
10
2.1003661579458917
20
1.5230386953595896
30
0
10
2.0963604442202382
20
1.5127382618177434
30
0
10
2.0873475648711231
20
1.5045122107124544
30
0
0
SPLINE
5
596
100
AcDbEntity
8
0
100
AcDbSpline
70
0
71
2
72
6
73
3
74
0
42
0.000000001
43
0.0000000001
44
0.0000000001
40
0
40
0
40
0
40
1
40
1
40
1
10
2.0873475648711231
20
1.5045122107124544
30
0
10
2.0741143481423721
20
1.4924235204953689
30
0
10
2.0576622928645851
20
1.4924235204953689
30
0
0
SPLINE
5
597
100
AcDbEntity
8
0
100
AcDbSpline
70
0
71
2
72
6
73
3
74
0
42
0.000000001
43
0.0000000001
44
0.0000000001
40
0
40
0
40
0
40
1
40
1
40
1
10
2.0576622928645851
20
1.4924235204953689
30
0
10
2.0543718818090277
20
1.4924235204953689
30
0
10
2.0492216650381048
20
1.494211800637004
30
0
0
LINE
5
598
100
AcDbEntity
8
0
100
AcDbLine
10
2.0492216650381048
20
1.494211800637004
30
0
11
2.0587352703361241
21
1.5029385307584062
31
0
0
SPLINE
5
599
100
AcDbEntity
8
0
100
AcDbSpline
70
0
71
2
72
6
73
3
74
0
42
0.000000001
43
0.0000000001
44
0.0000000001
40
0
40
0
40
0
40
1
40
1
40
1
10
2.0587352703361241
20
1.5029385307584062
30
0
10
2.0648153664983346
20
1.5009356738955797
30
0
10
2.0697510065480662
20
1.5009356738955797
30
0
0
SPLINE
5
600
100
AcDbEntity
8
0
100
AcDbSpline
70
0
71
2
72
6
73
3
74
0
42
0.000000001
43
0.0000000001
44
0.0000000001
40
0
40
0
40
0
40
1
40
1
40
1
10
2.0697510065480662
20
1.5009356738955797
30
0
10
2.0908525526478718
20
1.5009356738955797
30
0
10
2.0941429637034292
20
1.5329099285262617
30
0
0
LINE
5
601
100
AcDbEntity
8
0
100
AcDbLine
10
2.0941429637034292
20
1.5329099285262617
30
0
11
2.0960027694187948
21
1.5506495614631748
31
0
0
LINE
5
602
100
AcDbEntity
8
0
100
AcDbLine
10
2.0960027694187948
20
1.5506495614631748
30
0
11
2.1020113400072744
21
1.6108784592938077
31
0
0
LINE
5
603
100
AcDbEntity
8
0
100
AcDbLine
10
2.1020113400072744
20
1.6108784592938077
30
0
11
2.0890642725062367
21
1.6108784592938077
31
0
0
LINE
5
604
100
AcDbEntity
8
0
100
AcDbLine
10
2.0890642725062367
20
1.6108784592938077
30
0
11
2.0972187980377952
21
1.6191760359728271
31
0
0
LINE
5
605
100
AcDbEntity
8
0
100
AcDbLine
10
2.0972187980377952
20
1.6191760359728271
30
0
11
2.1028697407576225
21
1.6191760359728271
31
0
0
LINE
5
606
100
AcDbEntity
8
0
100
AcDbLine
10
2.1028697407576225
20
1.6191760359728271
30
0
11
2.1032988942000053
21
1.6233248243123368
31
0
0
SPLINE
5
607
100
AcDbEntity
8
0
100
AcDbSpline
70
0
71
2
72
6
73
3
74
0
42
0.000000001
43
0.0000000001
44
0.0000000001
40
0
40
0
40
0
40
1
40
1
40
1
10
2.1032988942000053
20
1.6233248243123368
30
0
10
2.105874002585467
20
1.6497911991038501
30
0
10
2.1185349677915832
20
1.6645265350133256
30
0
0
SPLINE
5
608
100
AcDbEntity
8
0
100
AcDbSpline
70
0
71
2
72
6
73
3
74
0
42
0.000000001
43
0.0000000001
44
0.0000000001
40
0
40
0
40
0
40
1
40
1
40
1
10
2.1185349677915832
20
1.6645265350133256
30
0
10
2.1311959329976995
20
1.6793334082297293
30
0
10
2.1512245485587567
20
1.6793334082297293
30
0
0
SPLINE
5
609
100
AcDbEntity
8
0
100
AcDbSpline
70
0
71
2
72
6
73
3
74
0
42
0.000000001
43
0.0000000001
44
0.0000000001
40
0
40
0
40
0
40
1
40
1
40
1
10
2.1512245485587567
20
1.6793334082297293
30
0
10
2.1550156855632183
20
1.6793334082297293
30
0
10
2.1597367019589675
20
1.6786180938264357
30
0
0
LINE
5
610
100
AcDbEntity
8
0
100
AcDbLine
10
2.1597367019589675
20
1.6786180938264357
30
0
11
2.1497223707120434
21
1.6687468489265658
31
0
0
SPLINE
5
611
100
AcDbEntity
8
0
100
AcDbSpline
70
0
71
2
72
6
73
3
74
0
42
0.000000001
43
0.0000000001
44
0.0000000001
40
0
40
0
40
0
40
1
40
1
40
1
10
2.1497223707120434
20
1.6687468489265658
30
0
10
2.1443575772199286
20
1.6708212430963207
30
0
10
2.1392073604490056
20
1.6708212430963207
30
0
0
SPLINE
5
612
100
AcDbEntity
8
0
100
AcDbSpline
70
0
71
2
72
6
73
3
74
0
42
0.000000001
43
0.0000000001
44
0.0000000001
40
0
40
0
40
0
40
1
40
1
40
1
10
2.1392073604490056
20
1.6708212430963207
30
0
10
2.1269040700443331
20
1.6708212430963207
30
0
10
2.1216823276996797
20
1.6623090896961097
30
0
0
SPLINE
5
613
100
AcDbEntity
8
0
100
AcDbSpline
70
0
71
2
72
6
73
3
74
0
42
0.000000001
43
0.0000000001
44
0.0000000001
40
0
40
0
40
0
40
1
40
1
40
1
10
2.1216823276996797
20
1.6623090896961097
30
0
10
2.1164605853550258
20
1.6537969245627011
30
0
10
2.1141000536907559
20
1.6296910579690624
30
0
0
LINE
5
614
100
AcDbEntity
8
0
100
AcDbLine
10
2.1141000536907559
20
1.6296910579690624
30
0
11
2.1130270762192165
21
1.6191760359728271
31
0
0
LINE
5
615
100
AcDbEntity
8
0
100
AcDbLine
10
2.1130270762192165
20
1.6191760359728271
30
0
11
2.1419970455556587
21
1.6191760359728271
31
0
0
LINE
5
616
100
AcDbEntity
8
0
100
AcDbLine
10
2.1419970455556587
20
1.6191760359728271
30
0
11
2.1334848921554479
21
1.6108784592938077
31
0
0
LINE
5
617
100
AcDbEntity
8
0
100
AcDbLine
10
2.1334848921554479
20
1.6108784592938077
30
0
11
2.1121687224016599
21
1.6108784592938077
31
0
0
LINE
5
618
100
AcDbEntity
8
0
100
AcDbLine
10
2.1578768962436019
20
1.6108784592938077
30
0
11
2.1520829023763133
21
1.5530100696610494
31
0
0
SPLINE
5
619
100
AcDbEntity
8
0
100
AcDbSpline
70
0
71
2
72
6
73
3
74
0
42
0.000000001
43
0.0000000001
44
0.0000000001
40
0
40
0
40
0
40
1
40
1
40
1
10
2.1520829023763133
20
1.5530100696610494
30
0
10
2.1501515710872172
20
1.53333910543504
30
0
10
2.1460743317878337
20
1.5230386953595896
30
0
0
SPLINE
5
620
100
AcDbEntity
8
0
100
AcDbSpline
70
0
71
2
72
6
73
3
74
0
42
0.000000001
43
0.0000000001
44
0.0000000001
40
0
40
0
40
0
40
1
40
1
40
1
10
2.1460743317878337
20
1.5230386953595896
30
0
10
2.1420686180621802
20
1.5127382618177434
30
0
10
2.1330557387130651
20
1.5045122107124544
30
0
0
SPLINE
5
621
100
AcDbEntity
8
0
100
AcDbSpline
70
0
71
2
72
6
73
3
74
0
42
0.000000001
43
0.0000000001
44
0.0000000001
40
0
40
0
40
0
40
1
40
1
40
1
10
2.1330557387130651
20
1.5045122107124544
30
0
10
2.1198225219843136
20
1.4924235204953689
30
0
10
2.1033704667065272
20
1.4924235204953689
30
0
0
SPLINE
5
622
100
AcDbEntity
8
0
100
AcDbSpline
70
0
71
2
72
6
73
3
74
0
42
0.000000001
43
0.0000000001
44
0.0000000001
40
0
40
0
40
0
40
1
40
1
40
1
10
2.1033704667065272
20
1.4924235204953689
30
0
10
2.1000800556509698
20
1.4924235204953689
30
0
10
2.0949298388800468
20
1.494211800637004
30
0
0
LINE
5
623
100
AcDbEntity
8
0
100
AcDbLine
10
2.0949298388800468
20
1.494211800637004
30
0
11
2.1044434441780662
21
1.5029385307584062
31
0
0
SPLINE
5
624
100
AcDbEntity
8
0
100
AcDbSpline
70
0
71
2
72
6
73
3
74
0
42
0.000000001
43
0.0000000001
44
0.0000000001
40
0
40
0
40
0
40
1
40
1
40
1
10
2.1044434441780662
20
1.5029385307584062
30
0
10
2.1105235403402767
20
1.5009356738955797
30
0
10
2.1154591803900082
20
1.5009356738955797
30
0
0
SPLINE
5
625
100
AcDbEntity
8
0
100
AcDbSpline
70
0
71
2
72
6
73
3
74
0
42
0.000000001
43
0.0000000001
44
0.0000000001
40
0
40
0
40
0
40
1
40
1
40
1
10
2.1154591803900082
20
1.5009356738955797
30
0
10
2.1365607264898139
20
1.5009356738955797
30
0
10
2.1398511375453713
20
1.5329099285262617
30
0
0
LINE
5
626
100
AcDbEntity
8
0
100
AcDbLine
10
2.1398511375453713
20
1.5329099285262617
30
0
11
2.1417109432607369
21
1.5506495614631748
31
0
0
LINE
5
627
100
AcDbEntity
8
0
100
AcDbLine
10
2.1417109432607369
20
1.5506495614631748
30
0
11
2.1477195607820079
21
1.6108784592938077
31
0
0
LINE
5
628
100
AcDbEntity
8
0
100
AcDbLine
10
2.1477195607820079
20
1.6108784592938077
30
0
11
2.1347724932809697
21
1.6108784592938077
31
0
0
LINE
5
629
100
AcDbEntity
8
0
100
AcDbLine
10
2.1347724932809697
20
1.6108784592938077
30
0
11
2.1429269718797372
21
1.6191760359728271
31
0
0
LINE
5
630
100
AcDbEntity
8
0
100
AcDbLine
10
2.1429269718797372
20
1.6191760359728271
30
0
11
2.1485779145995645
21
1.6191760359728271
31
0
0
LINE
5
631
100
AcDbEntity
8
0
100
AcDbLine
10
2.1485779145995645
20
1.6191760359728271
30
0
11
2.1490071149747387
21
1.6233248243123368
31
0
0
SPLINE
5
632
100
AcDbEntity
8
0
100
AcDbSpline
70
0
71
2
72
6
73
3
74
0
42
0.000000001
43
0.0000000001
44
0.0000000001
40
0
40
0
40
0
40
1
40
1
40
1
10
2.1490071149747387
20
1.6233248243123368
30
0
10
2.1515822233602
20
1.6497911991038501
30
0
10
2.1642431416335253
20
1.6645265350133256
30
0
0
SPLINE
5
633
100
AcDbEntity
8
0
100
AcDbSpline
70
0
71
2
72
6
73
3
74
0
42
0.000000001
43
0.0000000001
44
0.0000000001
40
0
40
0
40
0
40
1
40
1
40
1
10
2.1642431416335253
20
1.6645265350133256
30
0
10
2.1769041068396411
20
1.6793334082297293
30
0
10
2.1969327224006987
20
1.6793334082297293
30
0
0
SPLINE
5
634
100
AcDbEntity
8
0
100
AcDbSpline
70
0
71
2
72
6
73
3
74
0
42
0.000000001
43
0.0000000001
44
0.0000000001
40
0
40
0
40
0
40
1
40
1
40
1
10
2.1969327224006987
20
1.6793334082297293
30
0
10
2.2007238594051604
20
1.6793334082297293
30
0
10
2.2054448758009095
20
1.6786180938264357
30
0
0
LINE
5
635
100
AcDbEntity
8
0
100
AcDbLine
10
2.2054448758009095
20
1.6786180938264357
30
0
11
2.1954305445539855
21
1.6687468489265658
31
0
0
SPLINE
5
636
100
AcDbEntity
8
0
100
AcDbSpline
70
0
71
2
72
6
73
3
74
0
42
0.000000001
43
0.0000000001
44
0.0000000001
40
0
40
0
40
0
40
1
40
1
40
1
10
2.1954305445539855
20
1.6687468489265658
30
0
10
2.1900657510618706
20
1.6708212430963207
30
0
10
2.1849155342909476
20
1.6708212430963207
30
0
0
SPLINE
5
637
100
AcDbEntity
8
0
100
AcDbSpline
70
0
71
2
72
6
73
3
74
0
42
0.000000001
43
0.0000000001
44
0.0000000001
40
0
40
0
40
0
40
1
40
1
40
1
10
2.1849155342909476
20
1.6708212430963207
30
0
10
2.1726122438862752
20
1.6708212430963207
30
0
10
2.1673905015416217
20
1.6623090896961097
30
0
0
SPLINE
5
638
100
AcDbEntity
8
0
100
AcDbSpline
70
0
71
2
72
6
73
3
74
0
42
0.000000001
43
0.0000000001
44
0.0000000001
40
0
40
0
40
0
40
1
40
1
40
1
10
2.1673905015416217
20
1.6623090896961097
30
0
10
2.1621687591969678
20
1.6537969245627011
30
0
10
2.159808227532698
20
1.6296910579690624
30
0
0
LINE
5
639
100
AcDbEntity
8
0
100
AcDbLine
10
2.159808227532698
20
1.6296910579690624
30
0
11
2.1587352969939495
21
1.6191760359728271
31
0
0
LINE
5
640
100
AcDbEntity
8
0
100
AcDbLine
10
2.1587352969939495
20
1.6191760359728271
30
0
11
2.1877052193976008
21
1.6191760359728271
31
0
0
LINE
5
641
100
AcDbEntity
8
0
100
AcDbLine
10
2.1877052193976008
20
1.6191760359728271
30
0
11
2.1791930659973899
21
1.6108784592938077
31
0
0
LINE
5
642
100
AcDbEntity
8
0
100
AcDbLine
10
2.1791930659973899
20
1.6108784592938077
30
0
11
2.1578768962436019
21
1.6108784592938077
31
0
0
ENDSEC
0
SECTION
2
OBJECTS
0
DICTIONARY
5
C
100
AcDbDictionary
3
ACAD_GROUP
350
D
3
ACAD_MLINESTYLE
350
17
0
DICTIONARY
5
D
100
AcDbDictionary
0
DICTIONARY
5
1A
330
C
100
AcDbDictionary
0
DICTIONARY
5
17
100
AcDbDictionary
0
ENDSEC
0
EOF
