0
SECTION
2
HEADER
9
$INSUNITS
70
1
9
$ACADVER
1
AC1014
9
$HANDSEED
5
FFFF
0
ENDSEC
0
SECTION
2
TABLES
0
TABLE
2
VPORT
5
8
100
AcDbSymbolTable
0
ENDTAB
0
TABLE
2
LTYPE
5
5
100
AcDbSymbolTable
0
LTYPE
5
14
100
AcDbSymbolTableRecord
100
AcDbLinetypeTableRecord
2
BYBLOCK
70
0
0
LTYPE
5
15
100
AcDbSymbolTableRecord
100
AcDbLinetypeTableRecord
2
BYLAYER
70
0
0
LTYPE
5
16
100
AcDbSymbolTableRecord
100
AcDbLinetypeTableRecord
2
DASHED
70
0
3
Dashed __ __ __ __ __ __ __ __ __ __ __ __ __ _
72
65
73
2
40
0.75
49
0.5
74
0
49
-0.25
74
0
0
ENDTAB
0
TABLE
2
LAYER
5
2
100
AcDbSymbolTable
70
3
0
LAYER
5
50
100
AcDbSymbolTableRecord
100
AcDbLayerTableRecord
2
1
70
0
62
7
6
DASHED
0
LAYER
5
51
100
AcDbSymbolTableRecord
100
AcDbLayerTableRecord
2
0
70
0
62
7
6
CONTINUOUS
0
ENDTAB
0
TABLE
2
STYLE
5
3
100
AcDbSymbolTable
70
1
0
STYLE
5
11
100
AcDbSymbolTableRecord
100
AcDbTextStyleTableRecord
2
STANDARD
70
0
0
ENDTAB
0
TABLE
2
VIEW
5
6
100
AcDbSymbolTable
70
0
0
ENDTAB
0
TABLE
2
UCS
5
7
100
AcDbSymbolTable
70
0
0
ENDTAB
0
TABLE
2
APPID
5
9
100
AcDbSymbolTable
70
2
0
APPID
5
12
100
AcDbSymbolTableRecord
100
AcDbRegAppTableRecord
2
ACAD
70
0
0
ENDTAB
0
TABLE
2
DIMSTYLE
5
A
100
AcDbSymbolTable
70
1
0
ENDTAB
0
TABLE
2
BLOCK_RECORD
5
1
100
AcDbSymbolTable
70
1
0
BLOCK_RECORD
5
1F
100
AcDbSymbolTableRecord
100
AcDbBlockTableRecord
2
*MODEL_SPACE
0
BLOCK_RECORD
5
1B
100
AcDbSymbolTableRecord
100
AcDbBlockTableRecord
2
*PAPER_SPACE
0
ENDTAB
0
ENDSEC
0
SECTION
2
BLOCKS
0
BLOCK
5
20
100
AcDbEntity
100
AcDbBlockBegin
2
*MODEL_SPACE
0
ENDBLK
5
21
100
AcDbEntity
100
AcDbBlockEnd
0
BLOCK
5
1C
100
AcDbEntity
100
AcDbBlockBegin
2
*PAPER_SPACE
0
ENDBLK
5
1D
100
AcDbEntity
100
AcDbBlockEnd
0
ENDSEC
0
SECTION
2
ENTITIES
0
LWPOLYLINE
5
100
100
AcDbEntity
8
0
100
AcDbPolyline
90
4
70
1
43
0.0
10
4.2030213729020538
20
0.12499999999999999
10
2.2000000702114555
20
0.12499999999999999
10
2.2000000702114555
20
0.65065504233452431
10
4.2030213729020538
20
0.65065504233452431
0
LWPOLYLINE
5
101
100
AcDbEntity
8
0
100
AcDbPolyline
90
28
70
1
43
0.0
10
7.3750000000000053
20
4.1249999999999991
10
0.12500000000000658
20
4.1249999999999991
10
0.12500000000000588
20
3.3750000000000004
10
6.2941777774024621e-15
20
3.3750000000000004
10
6.2941777774024621e-15
20
2.6249999999999996
10
0.12500000000000588
20
2.6249999999999996
10
0.12500000000000588
20
1.8749999999999991
10
6.2941777774024621e-15
20
1.8749999999999991
10
6.2941777774024621e-15
20
1.1249999999999998
10
0.12500000000000588
20
1.1249999999999998
10
0.12500000000000588
20
0.12499999999999994
10
1.0000000000000051
20
0.12499999999999999
10
1.0000000000000051
20
0
10
4.600000000000005
20
0
10
4.600000000000005
20
0.12499999999999999
10
5.5000000000000053
20
0.12499999999999999
10
5.5000000000000053
20
0
10
6.5000000000000053
20
0
10
6.5000000000000053
20
0.12499999999999999
10
7.3750000000000053
20
0.12499999999999999
10
7.3750000000000053
20
1.1249999999999998
10
7.5000000000000053
20
1.1249999999999998
10
7.5000000000000053
20
1.8749999999999991
10
7.3750000000000053
20
1.8749999999999991
10
7.3750000000000053
20
2.6249999999999996
10
7.5000000000000053
20
2.6249999999999996
10
7.5000000000000053
20
3.3750000000000004
10
7.3750000000000053
20
3.3750000000000004
0
LINE
5
102
100
AcDbEntity
8
1
100
AcDbLine
10
0.12500000000000658
20
0.12500000000000031
30
0
11
7.3750000000000053
21
0.12499999999999999
31
0
0
LINE
5
103
100
AcDbEntity
8
1
100
AcDbLine
10
7.3750000000000053
20
0.12499999999999999
30
0
11
7.3750000000000053
21
4.1249999999999991
31
0
0
LINE
5
104
100
AcDbEntity
8
1
100
AcDbLine
10
7.3750000000000053
20
4.1249999999999991
30
0
11
0.12500000000000658
21
4.1249999999999991
31
0
0
LINE
5
105
100
AcDbEntity
8
1
100
AcDbLine
10
0.12500000000000658
20
4.1249999999999991
30
0
11
0.12500000000000658
21
0.12500000000000031
31
0
0
LINE
5
106
100
AcDbEntity
8
0
100
AcDbLine
10
1.8033648705858005
20
2.4641093926166922
30
0
11
1.7470344450530166
21
2.4087446561948513
31
0
0
SPLINE
5
107
100
AcDbEntity
8
0
100
AcDbSpline
70
0
71
2
72
6
73
3
74
0
42
0.000000001
43
0.0000000001
44
0.0000000001
40
0
40
0
40
0
40
1
40
1
40
1
10
1.7470344450530166
20
2.4087446561948513
30
0
10
1.734158903125709
20
2.511105261449738
30
0
10
1.7016481832256529
20
2.6408261821025931
30
0
0
SPLINE
5
108
100
AcDbEntity
8
0
100
AcDbSpline
70
0
71
2
72
6
73
3
74
0
42
0.000000001
43
0.0000000001
44
0.0000000001
40
0
40
0
40
0
40
1
40
1
40
1
10
1.7016481832256529
20
2.6408261821025931
30
0
10
1.6736439499329456
20
2.7512338837300692
30
0
10
1.6581932996201767
20
2.7837446036301254
30
0
0
SPLINE
5
109
100
AcDbEntity
8
0
100
AcDbSpline
70
0
71
2
72
6
73
3
74
0
42
0.000000001
43
0.0000000001
44
0.0000000001
40
0
40
0
40
0
40
1
40
1
40
1
10
1.6581932996201767
20
2.7837446036301254
30
0
10
1.6430645143891947
20
2.8165772824775508
30
0
10
1.6186009847273102
20
2.8165772824775508
30
0
0
SPLINE
5
110
100
AcDbEntity
8
0
100
AcDbSpline
70
0
71
2
72
6
73
3
74
0
42
0.000000001
43
0.0000000001
44
0.0000000001
40
0
40
0
40
0
40
1
40
1
40
1
10
1.6186009847273102
20
2.8165772824775508
30
0
10
1.5764335614489824
20
2.8165772824775508
30
0
10
1.5577640725871773
20
2.7521995728410129
30
0
0
SPLINE
5
111
100
AcDbEntity
8
0
100
AcDbSpline
70
0
71
2
72
6
73
3
74
0
42
0.000000001
43
0.0000000001
44
0.0000000001
40
0
40
0
40
0
40
1
40
1
40
1
10
1.5577640725871773
20
2.7521995728410129
30
0
10
1.5458542197708134
20
2.7547746812264746
30
0
10
1.5464979499343876
20
2.7650751147683206
30
0
0
SPLINE
5
112
100
AcDbEntity
8
0
100
AcDbSpline
70
0
71
2
72
6
73
3
74
0
42
0.000000001
43
0.0000000001
44
0.0000000001
40
0
40
0
40
0
40
1
40
1
40
1
10
1.5464979499343876
20
2.7650751147683206
30
0
10
1.5474636390453311
20
2.7850322516884387
30
0
10
1.5709614795962719
20
2.8223712294120484
30
0
0
SPLINE
5
113
100
AcDbEntity
8
0
100
AcDbSpline
70
0
71
2
72
6
73
3
74
0
42
0.000000001
43
0.0000000001
44
0.0000000001
40
0
40
0
40
0
40
1
40
1
40
1
10
1.5709614795962719
20
2.8223712294120484
30
0
10
1.5992876718363489
20
2.8674356261576248
30
0
10
1.6430645143891947
20
2.8674356261576248
30
0
0
SPLINE
5
114
100
AcDbEntity
8
0
100
AcDbSpline
70
0
71
2
72
6
73
3
74
0
42
0.000000001
43
0.0000000001
44
0.0000000001
40
0
40
0
40
0
40
1
40
1
40
1
10
1.6430645143891947
20
2.8674356261576248
30
0
10
1.6791159379200733
20
2.8674356261576248
30
0
10
1.6990730748401912
20
2.8346030411757814
30
0
0
SPLINE
5
115
100
AcDbEntity
8
0
100
AcDbSpline
70
0
71
2
72
6
73
3
74
0
42
0.000000001
43
0.0000000001
44
0.0000000001
40
0
40
0
40
0
40
1
40
1
40
1
10
1.6990730748401912
20
2.8346030411757814
30
0
10
1.7190302117603093
20
2.8020923212757256
30
0
10
1.7451030668311294
20
2.7003756339155776
30
0
0
SPLINE
5
116
100
AcDbEntity
8
0
100
AcDbSpline
70
0
71
2
72
6
73
3
74
0
42
0.000000001
43
0.0000000001
44
0.0000000001
40
0
40
0
40
0
40
1
40
1
40
1
10
1.7451030668311294
20
2.7003756339155776
30
0
10
1.7740731769659448
20
2.586105175844327
30
0
10
1.7911332465532319
20
2.496620112516748
30
0
0
SPLINE
5
117
100
AcDbEntity
8
0
100
AcDbSpline
70
0
71
2
72
6
73
3
74
0
42
0.000000001
43
0.0000000001
44
0.0000000001
40
0
40
0
40
0
40
1
40
1
40
1
10
1.7911332465532319
20
2.496620112516748
30
0
10
1.9317985186426718
20
2.6936159978701366
30
0
10
1.9317985186426718
20
2.7711910206501873
30
0
0
SPLINE
5
118
100
AcDbEntity
8
0
100
AcDbSpline
70
0
71
2
72
6
73
3
74
0
42
0.000000001
43
0.0000000001
44
0.0000000001
40
0
40
0
40
0
40
1
40
1
40
1
10
1.9317985186426718
20
2.7711910206501873
30
0
10
1.9317985186426718
20
2.8014485911121514
30
0
10
1.9073348951152052
20
2.8152898221504024
30
0
0
LINE
5
119
100
AcDbEntity
8
0
100
AcDbLine
10
1.9073348951152052
20
2.8152898221504024
30
0
11
1.9546525351644561
21
2.8674356261576248
31
0
0
SPLINE
5
120
100
AcDbEntity
8
0
100
AcDbSpline
70
0
71
2
72
6
73
3
74
0
42
0.000000001
43
0.0000000001
44
0.0000000001
40
0
40
0
40
0
40
1
40
1
40
1
10
1.9546525351644561
20
2.8674356261576248
30
0
10
1.9868412961171429
20
2.8494099613249766
30
0
10
1.9868412961171429
20
2.8117490246539973
30
0
0
SPLINE
5
121
100
AcDbEntity
8
0
100
AcDbSpline
70
0
71
2
72
6
73
3
74
0
42
0.000000001
43
0.0000000001
44
0.0000000001
40
0
40
0
40
0
40
1
40
1
40
1
10
1.9868412961171429
20
2.8117490246539973
30
0
10
1.9868412961171429
20
2.7641094256573768
30
0
10
1.9092662733370924
20
2.6408261821025931
30
0
0
LINE
5
122
100
AcDbEntity
8
0
100
AcDbLine
10
1.9092662733370924
20
2.6408261821025931
30
0
11
1.8728927969932616
21
2.5848175277860141
31
0
0
LINE
5
123
100
AcDbEntity
8
0
100
AcDbLine
10
1.8728927969932616
20
2.5848175277860141
30
0
11
1.8464979829750723
21
2.5432940224024247
31
0
0
SPLINE
5
124
100
AcDbEntity
8
0
100
AcDbSpline
70
0
71
2
72
6
73
3
74
0
42
0.000000001
43
0.0000000001
44
0.0000000001
40
0
40
0
40
0
40
1
40
1
40
1
10
1.8464979829750723
20
2.5432940224024247
30
0
10
1.8442448335369801
20
2.5397532249060197
30
0
10
1.8307253737149336
20
2.5162554782206614
30
0
0
LINE
5
125
100
AcDbEntity
8
0
100
AcDbLine
10
1.8307253737149336
20
2.5162554782206614
30
0
11
1.8159186412969035
21
2.4901824354186766
31
0
0
SPLINE
5
126
100
AcDbEntity
8
0
100
AcDbSpline
70
0
71
2
72
6
73
3
74
0
42
0.000000001
43
0.0000000001
44
0.0000000001
40
0
40
0
40
0
40
1
40
1
40
1
10
1.8159186412969035
20
2.4901824354186766
30
0
10
1.812699615016703
20
2.4847102597003841
30
0
10
1.8033648705858005
20
2.4641093926166922
30
0
0
SPLINE
5
127
100
AcDbEntity
8
0
100
AcDbSpline
70
0
71
2
72
6
73
3
74
0
42
0.000000001
43
0.0000000001
44
0.0000000001
40
0
40
0
40
0
40
1
40
1
40
1
10
2.2080038142955272
20
2.5494099282842915
30
0
10
2.1716303379516964
20
2.4895387052551023
30
0
10
2.1278536831300152
20
2.4512338506893845
30
0
0
SPLINE
5
128
100
AcDbEntity
8
0
100
AcDbSpline
70
0
71
2
72
6
73
3
74
0
42
0.000000001
43
0.0000000001
44
0.0000000001
40
0
40
0
40
0
40
1
40
1
40
1
10
2.1278536831300152
20
2.4512338506893845
30
0
10
2.0843986117933739
20
2.4132511428022005
30
0
10
2.0522098508406872
20
2.4132511428022005
30
0
0
SPLINE
5
129
100
AcDbEntity
8
0
100
AcDbSpline
70
0
71
2
72
6
73
3
74
0
42
0.000000001
43
0.0000000001
44
0.0000000001
40
0
40
0
40
0
40
1
40
1
40
1
10
2.0522098508406872
20
2.4132511428022005
30
0
10
2.0081110493404721
20
2.4132511428022005
30
0
10
2.0081110493404721
20
2.4843884884841794
30
0
0
SPLINE
5
130
100
AcDbEntity
8
0
100
AcDbSpline
70
0
71
2
72
6
73
3
74
0
42
0.000000001
43
0.0000000001
44
0.0000000001
40
0
40
0
40
0
40
1
40
1
40
1
10
2.0081110493404721
20
2.4843884884841794
30
0
10
2.0081110493404721
20
2.5822426071317173
30
0
10
2.0721669877608053
20
2.6537017240299008
30
0
0
SPLINE
5
131
100
AcDbEntity
8
0
100
AcDbSpline
70
0
71
2
72
6
73
3
74
0
42
0.000000001
43
0.0000000001
44
0.0000000001
40
0
40
0
40
0
40
1
40
1
40
1
10
2.0721669877608053
20
2.6537017240299008
30
0
10
2.1365445096661788
20
2.7254827998754543
30
0
10
2.2244201537192398
20
2.7254827998754543
30
0
0
SPLINE
5
132
100
AcDbEntity
8
0
100
AcDbSpline
70
0
71
2
72
6
73
3
74
0
42
0.000000001
43
0.0000000001
44
0.0000000001
40
0
40
0
40
0
40
1
40
1
40
1
10
2.2244201537192398
20
2.7254827998754543
30
0
10
2.2578965627302394
20
2.7254827998754543
30
0
10
2.2813943094155982
20
2.7171137445554954
30
0
0
SPLINE
5
133
100
AcDbEntity
8
0
100
AcDbSpline
70
0
71
2
72
6
73
3
74
0
42
0.000000001
43
0.0000000001
44
0.0000000001
40
0
40
0
40
0
40
1
40
1
40
1
10
2.2813943094155982
20
2.7171137445554954
30
0
10
2.2797848901410802
20
2.7113197976209982
30
0
10
2.2794631189248755
20
2.7100321495626849
30
0
0
LINE
5
134
100
AcDbEntity
8
0
100
AcDbLine
10
2.2794631189248755
20
2.7100321495626849
30
0
11
2.275600362481101
21
2.692972079975398
31
0
0
SPLINE
5
135
100
AcDbEntity
8
0
100
AcDbSpline
70
0
71
2
72
6
73
3
74
0
42
0.000000001
43
0.0000000001
44
0.0000000001
40
0
40
0
40
0
40
1
40
1
40
1
10
2.275600362481101
20
2.692972079975398
30
0
10
2.271737606037326
20
2.6752682802245369
30
0
10
2.2714158348211213
20
2.6723712128917056
30
0
0
LINE
5
136
100
AcDbEntity
8
0
100
AcDbLine
10
2.2714158348211213
20
2.6723712128917056
30
0
11
2.2508149677374294
21
2.530096521527748
31
0
0
LINE
5
137
100
AcDbEntity
8
0
100
AcDbLine
10
2.2508149677374294
20
2.530096521527748
30
0
11
2.2479179004045982
21
2.5094956544440556
31
0
0
SPLINE
5
138
100
AcDbEntity
8
0
100
AcDbSpline
70
0
71
2
72
6
73
3
74
0
42
0.000000001
43
0.0000000001
44
0.0000000001
40
0
40
0
40
0
40
1
40
1
40
1
10
2.2479179004045982
20
2.5094956544440556
30
0
10
2.2437333727446189
20
2.4789163127658869
30
0
10
2.2437333727446189
20
2.4686158792240409
30
0
0
SPLINE
5
139
100
AcDbEntity
8
0
100
AcDbSpline
70
0
71
2
72
6
73
3
74
0
42
0.000000001
43
0.0000000001
44
0.0000000001
40
0
40
0
40
0
40
1
40
1
40
1
10
2.2437333727446189
20
2.4686158792240409
30
0
10
2.2437333727446189
20
2.4547746481857895
30
0
10
2.2517806568483727
20
2.4547746481857895
30
0
0
SPLINE
5
140
100
AcDbEntity
8
0
100
AcDbSpline
70
0
71
2
72
6
73
3
74
0
42
0.000000001
43
0.0000000001
44
0.0000000001
40
0
40
0
40
0
40
1
40
1
40
1
10
2.2517806568483727
20
2.4547746481857895
30
0
10
2.2788192010301365
20
2.4547746481857895
30
0
10
2.3071453932702131
20
2.5152897891097177
30
0
0
SPLINE
5
141
100
AcDbEntity
8
0
100
AcDbSpline
70
0
71
2
72
6
73
3
74
0
42
0.000000001
43
0.0000000001
44
0.0000000001
40
0
40
0
40
0
40
1
40
1
40
1
10
2.3071453932702131
20
2.5152897891097177
30
0
10
2.3158364075375415
20
2.5101395723387947
30
0
10
2.3158364075375415
20
2.5049893555678717
30
0
0
SPLINE
5
142
100
AcDbEntity
8
0
100
AcDbSpline
70
0
71
2
72
6
73
3
74
0
42
0.000000001
43
0.0000000001
44
0.0000000001
40
0
40
0
40
0
40
1
40
1
40
1
10
2.3158364075375415
20
2.5049893555678717
30
0
10
2.3158364075375415
20
2.4937232329150816
30
0
10
2.2881539454610391
20
2.4596030937405078
30
0
0
SPLINE
5
143
100
AcDbEntity
8
0
100
AcDbSpline
70
0
71
2
72
6
73
3
74
0
42
0.000000001
43
0.0000000001
44
0.0000000001
40
0
40
0
40
0
40
1
40
1
40
1
10
2.2881539454610391
20
2.4596030937405078
30
0
10
2.2504930087900599
20
2.4132511428022005
30
0
10
2.2183042478373731
20
2.4132511428022005
30
0
0
SPLINE
5
144
100
AcDbEntity
8
0
100
AcDbSpline
70
0
71
2
72
6
73
3
74
0
42
0.000000001
43
0.0000000001
44
0.0000000001
40
0
40
0
40
0
40
1
40
1
40
1
10
2.2183042478373731
20
2.4132511428022005
30
0
10
2.19480631342085
20
2.4132511428022005
30
0
10
2.19480631342085
20
2.4447961735913131
30
0
0
SPLINE
5
145
100
AcDbEntity
8
0
100
AcDbSpline
70
0
71
2
72
6
73
3
74
0
42
0.000000001
43
0.0000000001
44
0.0000000001
40
0
40
0
40
0
40
1
40
1
40
1
10
2.19480631342085
20
2.4447961735913131
30
0
10
2.19480631342085
20
2.4544528769695848
30
0
10
2.1970596505901065
20
2.4715129465568717
30
0
0
LINE
5
146
100
AcDbEntity
8
0
100
AcDbLine
10
2.1970596505901065
20
2.4715129465568717
30
0
11
2.2002784891391425
21
2.497264030411487
31
0
0
LINE
5
147
100
AcDbEntity
8
0
100
AcDbLine
10
2.2002784891391425
20
2.497264030411487
30
0
11
2.2044630167991217
21
2.5255902226515636
31
0
0
LINE
5
148
100
AcDbEntity
8
0
100
AcDbLine
10
2.2044630167991217
20
2.5255902226515636
30
0
11
2.2080038142955272
21
2.5494099282842915
31
0
0
SPLINE
5
149
100
AcDbEntity
8
0
100
AcDbSpline
70
0
71
2
72
6
73
3
74
0
42
0.000000001
43
0.0000000001
44
0.0000000001
40
0
40
0
40
0
40
1
40
1
40
1
10
2.2263513442099625
20
2.6771996584464239
30
0
10
2.1970596505901065
20
2.6936159978701366
30
0
10
2.167124039075512
20
2.6936159978701366
30
0
0
SPLINE
5
150
100
AcDbEntity
8
0
100
AcDbSpline
70
0
71
2
72
6
73
3
74
0
42
0.000000001
43
0.0000000001
44
0.0000000001
40
0
40
0
40
0
40
1
40
1
40
1
10
2.167124039075512
20
2.6936159978701366
30
0
10
2.1220595484643532
20
2.6936159978701366
30
0
10
2.0914802067861844
20
2.6385730326645014
30
0
0
SPLINE
5
151
100
AcDbEntity
8
0
100
AcDbSpline
70
0
71
2
72
6
73
3
74
0
42
0.000000001
43
0.0000000001
44
0.0000000001
40
0
40
0
40
0
40
1
40
1
40
1
10
2.0914802067861844
20
2.6385730326645014
30
0
10
2.0609008651080156
20
2.5835300674588657
30
0
10
2.0609008651080156
20
2.5020922882350405
30
0
0
SPLINE
5
152
100
AcDbEntity
8
0
100
AcDbSpline
70
0
71
2
72
6
73
3
74
0
42
0.000000001
43
0.0000000001
44
0.0000000001
40
0
40
0
40
0
40
1
40
1
40
1
10
2.0609008651080156
20
2.5020922882350405
30
0
10
2.0609008651080156
20
2.460246823904082
30
0
10
2.0856862598516872
20
2.460246823904082
30
0
0
SPLINE
5
153
100
AcDbEntity
8
0
100
AcDbSpline
70
0
71
2
72
6
73
3
74
0
42
0.000000001
43
0.0000000001
44
0.0000000001
40
0
40
0
40
0
40
1
40
1
40
1
10
2.0856862598516872
20
2.460246823904082
30
0
10
2.1143342233079685
20
2.460246823904082
30
0
10
2.1548922273117785
20
2.504023666456928
30
0
0
SPLINE
5
154
100
AcDbEntity
8
0
100
AcDbSpline
70
0
71
2
72
6
73
3
74
0
42
0.000000001
43
0.0000000001
44
0.0000000001
40
0
40
0
40
0
40
1
40
1
40
1
10
2.1548922273117785
20
2.504023666456928
30
0
10
2.2096132335700447
20
2.5629292003751734
30
0
10
2.2212011274390395
20
2.6424356013771111
30
0
0
LINE
5
155
100
AcDbEntity
8
0
100
AcDbLine
10
2.2212011274390395
20
2.6424356013771111
30
0
11
2.2263513442099625
21
2.6771996584464239
31
0
0
SPLINE
5
156
100
AcDbEntity
8
0
100
AcDbSpline
70
0
71
2
72
6
73
3
74
0
42
0.000000001
43
0.0000000001
44
0.0000000001
40
0
40
0
40
0
40
1
40
1
40
1
10
2.4777714328503104
20
2.5162554782206614
30
0
10
2.4871061772812131
20
2.5117489916133122
30
0
10
2.4871061772812131
20
2.5046673966205022
30
0
0
SPLINE
5
157
100
AcDbEntity
8
0
100
AcDbSpline
70
0
71
2
72
6
73
3
74
0
42
0.000000001
43
0.0000000001
44
0.0000000001
40
0
40
0
40
0
40
1
40
1
40
1
10
2.4871061772812131
20
2.5046673966205022
30
0
10
2.4871061772812131
20
2.4814914211513486
30
0
10
2.4523423079430646
20
2.4473712819767743
30
0
0
SPLINE
5
158
100
AcDbEntity
8
0
100
AcDbSpline
70
0
71
2
72
6
73
3
74
0
42
0.000000001
43
0.0000000001
44
0.0000000001
40
0
40
0
40
0
40
1
40
1
40
1
10
2.4523423079430646
20
2.4473712819767743
30
0
10
2.4179002098211213
20
2.4132511428022005
30
0
10
2.3944022754045982
20
2.4132511428022005
30
0
0
SPLINE
5
159
100
AcDbEntity
8
0
100
AcDbSpline
70
0
71
2
72
6
73
3
74
0
42
0.000000001
43
0.0000000001
44
0.0000000001
40
0
40
0
40
0
40
1
40
1
40
1
10
2.3944022754045982
20
2.4132511428022005
30
0
10
2.3676855024390395
20
2.4132511428022005
30
0
10
2.3676855024390395
20
2.4518777685841231
30
0
0
SPLINE
5
160
100
AcDbEntity
8
0
100
AcDbSpline
70
0
71
2
72
6
73
3
74
0
42
0.000000001
43
0.0000000001
44
0.0000000001
40
0
40
0
40
0
40
1
40
1
40
1
10
2.3676855024390395
20
2.4518777685841231
30
0
10
2.3676855024390395
20
2.4753755152694819
30
0
10
2.3705825697718703
20
2.4998391387969483
30
0
0
LINE
5
161
100
AcDbEntity
8
0
100
AcDbLine
10
2.3705825697718703
20
2.4998391387969483
30
0
11
2.3741233672682753
21
2.52848710225323
31
0
0
LINE
5
162
100
AcDbEntity
8
0
100
AcDbLine
10
2.3741233672682753
20
2.52848710225323
30
0
11
2.3989087620119469
21
2.7525215317883824
31
0
0
SPLINE
5
163
100
AcDbEntity
8
0
100
AcDbSpline
70
0
71
2
72
6
73
3
74
0
42
0.000000001
43
0.0000000001
44
0.0000000001
40
0
40
0
40
0
40
1
40
1
40
1
10
2.3989087620119469
20
2.7525215317883824
30
0
10
2.4104968436121061
20
2.8548819493121043
30
0
10
2.4690806063141468
20
2.9234441866086218
30
0
0
SPLINE
5
164
100
AcDbEntity
8
0
100
AcDbSpline
70
0
71
2
72
6
73
3
74
0
42
0.000000001
43
0.0000000001
44
0.0000000001
40
0
40
0
40
0
40
1
40
1
40
1
10
2.4690806063141468
20
2.9234441866086218
30
0
10
2.5279861402323927
20
2.9920064239051394
30
0
10
2.6045954739014996
20
2.9920064239051394
30
0
0
SPLINE
5
165
100
AcDbEntity
8
0
100
AcDbSpline
70
0
71
2
72
6
73
3
74
0
42
0.000000001
43
0.0000000001
44
0.0000000001
40
0
40
0
40
0
40
1
40
1
40
1
10
2.6045954739014996
20
2.9920064239051394
30
0
10
2.6232649627633045
20
2.9920064239051394
30
0
10
2.6361406924217765
20
2.9887875853561034
30
0
0
LINE
5
166
100
AcDbEntity
8
0
100
AcDbLine
10
2.6361406924217765
20
2.9887875853561034
30
0
11
2.5904322839158787
21
2.9421137693360091
31
0
0
SPLINE
5
167
100
AcDbEntity
8
0
100
AcDbSpline
70
0
71
2
72
6
73
3
74
0
42
0.000000001
43
0.0000000001
44
0.0000000001
40
0
40
0
40
0
40
1
40
1
40
1
10
2.5904322839158787
20
2.9421137693360091
30
0
10
2.5753037802816436
20
2.9472639861069321
30
0
10
2.5550246844141564
20
2.9472639861069321
30
0
0
SPLINE
5
168
100
AcDbEntity
8
0
100
AcDbSpline
70
0
71
2
72
6
73
3
74
0
42
0.000000001
43
0.0000000001
44
0.0000000001
40
0
40
0
40
0
40
1
40
1
40
1
10
2.5550246844141564
20
2.9472639861069321
30
0
10
2.5067413552539617
20
2.9472639861069321
30
0
10
2.4825998784050287
20
2.9131437530667759
30
0
0
SPLINE
5
169
100
AcDbEntity
8
0
100
AcDbSpline
70
0
71
2
72
6
73
3
74
0
42
0.000000001
43
0.0000000001
44
0.0000000001
40
0
40
0
40
0
40
1
40
1
40
1
10
2.4825998784050287
20
2.9131437530667759
30
0
10
2.4587801727723009
20
2.8793455728395712
30
0
10
2.4497671995576034
20
2.7982295648319511
30
0
0
LINE
5
170
100
AcDbEntity
8
0
100
AcDbLine
10
2.4497671995576034
20
2.7982295648319511
30
0
11
2.4198315880430088
21
2.52848710225323
31
0
0
SPLINE
5
171
100
AcDbEntity
8
0
100
AcDbSpline
70
0
71
2
72
6
73
3
74
0
42
0.000000001
43
0.0000000001
44
0.0000000001
40
0
40
0
40
0
40
1
40
1
40
1
10
2.4198315880430088
20
2.52848710225323
30
0
10
2.4162907905466033
20
2.497264030411487
30
0
10
2.4162907905466033
20
2.4837445705894403
30
0
0
SPLINE
5
172
100
AcDbEntity
8
0
100
AcDbSpline
70
0
71
2
72
6
73
3
74
0
42
0.000000001
43
0.0000000001
44
0.0000000001
40
0
40
0
40
0
40
1
40
1
40
1
10
2.4162907905466033
20
2.4837445705894403
30
0
10
2.4162907905466033
20
2.4547746481857895
30
0
10
2.4262692651410802
20
2.4547746481857895
30
0
0
SPLINE
5
173
100
AcDbEntity
8
0
100
AcDbSpline
70
0
71
2
72
6
73
3
74
0
42
0.000000001
43
0.0000000001
44
0.0000000001
40
0
40
0
40
0
40
1
40
1
40
1
10
2.4262692651410802
20
2.4547746481857895
30
0
10
2.438179305688609
20
2.4547746481857895
30
0
10
2.4542734984337873
20
2.4737660959949639
30
0
0
SPLINE
5
174
100
AcDbEntity
8
0
100
AcDbSpline
70
0
71
2
72
6
73
3
74
0
42
0.000000001
43
0.0000000001
44
0.0000000001
40
0
40
0
40
0
40
1
40
1
40
1
10
2.4542734984337873
20
2.4737660959949639
30
0
10
2.4703680666412953
20
2.4930795027515074
30
0
10
2.4777714328503104
20
2.5162554782206614
30
0
0
SPLINE
5
175
100
AcDbEntity
8
0
100
AcDbSpline
70
0
71
2
72
6
73
3
74
0
42
0.000000001
43
0.0000000001
44
0.0000000001
40
0
40
0
40
0
40
1
40
1
40
1
10
2.7195348181123871
20
2.5239806156458813
30
0
10
2.7275819144849764
20
2.5185086276587532
30
0
10
2.7275819144849764
20
2.511105261449738
30
0
0
SPLINE
5
176
100
AcDbEntity
8
0
100
AcDbSpline
70
0
71
2
72
6
73
3
74
0
42
0.000000001
43
0.0000000001
44
0.0000000001
40
0
40
0
40
0
40
1
40
1
40
1
10
2.7275819144849764
20
2.511105261449738
30
0
10
2.7275819144849764
20
2.5011265991240967
30
0
10
2.7069810474012841
20
2.4769849345439994
30
0
0
SPLINE
5
177
100
AcDbEntity
8
0
100
AcDbSpline
70
0
71
2
72
6
73
3
74
0
42
0.000000001
43
0.0000000001
44
0.0000000001
40
0
40
0
40
0
40
1
40
1
40
1
10
2.7069810474012841
20
2.4769849345439994
30
0
10
2.6519382699268133
20
2.4132511428022005
30
0
10
2.5981829527794904
20
2.4132511428022005
30
0
0
SPLINE
5
178
100
AcDbEntity
8
0
100
AcDbSpline
70
0
71
2
72
6
73
3
74
0
42
0.000000001
43
0.0000000001
44
0.0000000001
40
0
40
0
40
0
40
1
40
1
40
1
10
2.5981829527794904
20
2.4132511428022005
30
0
10
2.5653502739320651
20
2.4132511428022005
30
0
10
2.5441054889536341
20
2.4393239978730206
30
0
0
SPLINE
5
179
100
AcDbEntity
8
0
100
AcDbSpline
70
0
71
2
72
6
73
3
74
0
42
0.000000001
43
0.0000000001
44
0.0000000001
40
0
40
0
40
0
40
1
40
1
40
1
10
2.5441054889536341
20
2.4393239978730206
30
0
10
2.5228610794375324
20
2.465397040675005
30
0
10
2.5228610794375324
20
2.505955044678815
30
0
0
SPLINE
5
180
100
AcDbEntity
8
0
100
AcDbSpline
70
0
71
2
72
6
73
3
74
0
42
0.000000001
43
0.0000000001
44
0.0000000001
40
0
40
0
40
0
40
1
40
1
40
1
10
2.5228610794375324
20
2.505955044678815
30
0
10
2.5228610794375324
20
2.579345539798886
30
0
10
2.5782256281282079
20
2.654345454193475
30
0
0
SPLINE
5
181
100
AcDbEntity
8
0
100
AcDbSpline
70
0
71
2
72
6
73
3
74
0
42
0.000000001
43
0.0000000001
44
0.0000000001
40
0
40
0
40
0
40
1
40
1
40
1
10
2.5782256281282079
20
2.654345454193475
30
0
10
2.6339123234974178
20
2.7296673275354335
30
0
10
2.6883115585394792
20
2.7296673275354335
30
0
0
SPLINE
5
182
100
AcDbEntity
8
0
100
AcDbSpline
70
0
71
2
72
6
73
3
74
0
42
0.000000001
43
0.0000000001
44
0.0000000001
40
0
40
0
40
0
40
1
40
1
40
1
10
2.6883115585394792
20
2.7296673275354335
30
0
10
2.7275819144849764
20
2.7296673275354335
30
0
10
2.7275819144849764
20
2.6875000919882703
30
0
0
SPLINE
5
183
100
AcDbEntity
8
0
100
AcDbSpline
70
0
71
2
72
6
73
3
74
0
42
0.000000001
43
0.0000000001
44
0.0000000001
40
0
40
0
40
0
40
1
40
1
40
1
10
2.7275819144849764
20
2.6875000919882703
30
0
10
2.7275819144849764
20
2.6401824519390189
30
0
10
2.6815519224940383
20
2.5951179613278601
30
0
0
SPLINE
5
184
100
AcDbEntity
8
0
100
AcDbSpline
70
0
71
2
72
6
73
3
74
0
42
0.000000001
43
0.0000000001
44
0.0000000001
40
0
40
0
40
0
40
1
40
1
40
1
10
2.6815519224940383
20
2.5951179613278601
30
0
10
2.6358437017193053
20
2.5500536584478657
30
0
10
2.569856572808249
20
2.5323498586970046
30
0
0
SPLINE
5
185
100
AcDbEntity
8
0
100
AcDbSpline
70
0
71
2
72
6
73
3
74
0
42
0.000000001
43
0.0000000001
44
0.0000000001
40
0
40
0
40
0
40
1
40
1
40
1
10
2.569856572808249
20
2.5323498586970046
30
0
10
2.5762944376374852
20
2.4547746481857895
30
0
10
2.6310154438957514
20
2.4547746481857895
30
0
0
SPLINE
5
186
100
AcDbEntity
8
0
100
AcDbSpline
70
0
71
2
72
6
73
3
74
0
42
0.000000001
43
0.0000000001
44
0.0000000001
40
0
40
0
40
0
40
1
40
1
40
1
10
2.6310154438957514
20
2.4547746481857895
30
0
10
2.6850927199904433
20
2.4547746481857895
30
0
10
2.7195348181123871
20
2.5239806156458813
30
0
0
SPLINE
5
187
100
AcDbEntity
8
0
100
AcDbSpline
70
0
71
2
72
6
73
3
74
0
42
0.000000001
43
0.0000000001
44
0.0000000001
40
0
40
0
40
0
40
1
40
1
40
1
10
2.5711442208665622
20
2.5716202146425018
30
0
10
2.5804789652974649
20
2.5684013760934659
30
0
10
2.5882042904538491
20
2.5684013760934659
30
0
0
SPLINE
5
188
100
AcDbEntity
8
0
100
AcDbSpline
70
0
71
2
72
6
73
3
74
0
42
0.000000001
43
0.0000000001
44
0.0000000001
40
0
40
0
40
0
40
1
40
1
40
1
10
2.5882042904538491
20
2.5684013760934659
30
0
10
2.628118564294085
20
2.5684013760934659
30
0
10
2.65805417580868
20
2.5928648118897679
30
0
0
SPLINE
5
189
100
AcDbEntity
8
0
100
AcDbSpline
70
0
71
2
72
6
73
3
74
0
42
0.000000001
43
0.0000000001
44
0.0000000001
40
0
40
0
40
0
40
1
40
1
40
1
10
2.65805417580868
20
2.5928648118897679
30
0
10
2.6879897873232745
20
2.6173284354172348
30
0
10
2.6879897873232745
20
2.6501609265334958
30
0
0
SPLINE
5
190
100
AcDbEntity
8
0
100
AcDbSpline
70
0
71
2
72
6
73
3
74
0
42
0.000000001
43
0.0000000001
44
0.0000000001
40
0
40
0
40
0
40
1
40
1
40
1
10
2.6879897873232745
20
2.6501609265334958
30
0
10
2.6879897873232745
20
2.687821863204475
30
0
10
2.6496851204887211
20
2.687821863204475
30
0
0
SPLINE
5
191
100
AcDbEntity
8
0
100
AcDbSpline
70
0
71
2
72
6
73
3
74
0
42
0.000000001
43
0.0000000001
44
0.0000000001
40
0
40
0
40
0
40
1
40
1
40
1
10
2.6496851204887211
20
2.687821863204475
30
0
10
2.6220026584122187
20
2.687821863204475
30
0
10
2.5994704131066388
20
2.6546674131408445
30
0
0
SPLINE
5
192
100
AcDbEntity
8
0
100
AcDbSpline
70
0
71
2
72
6
73
3
74
0
42
0.000000001
43
0.0000000001
44
0.0000000001
40
0
40
0
40
0
40
1
40
1
40
1
10
2.5994704131066388
20
2.6546674131408445
30
0
10
2.577260126748429
20
2.6218347342934192
30
0
10
2.5711442208665622
20
2.5716202146425018
30
0
0
LINE
5
193
100
AcDbEntity
8
0
100
AcDbLine
10
2.8566844486814844
20
2.4328863207749487
30
0
11
2.8087230784686592
21
2.4132511428022005
31
0
0
LINE
5
194
100
AcDbEntity
8
0
100
AcDbLine
10
2.8087230784686592
20
2.4132511428022005
30
0
11
2.809688767579603
21
2.4222639282857332
31
0
0
LINE
5
195
100
AcDbEntity
8
0
100
AcDbLine
10
2.809688767579603
20
2.4222639282857332
30
0
11
2.8122636882338998
21
2.4460836339184615
31
0
0
LINE
5
196
100
AcDbEntity
8
0
100
AcDbLine
10
2.8122636882338998
20
2.4460836339184615
30
0
11
2.8148389843505259
21
2.4686158792240409
31
0
0
LINE
5
197
100
AcDbEntity
8
0
100
AcDbLine
10
2.8148389843505259
20
2.4686158792240409
30
0
11
2.8315770949904433
21
2.617972165580809
31
0
0
LINE
5
198
100
AcDbEntity
8
0
100
AcDbLine
10
2.8315770949904433
20
2.617972165580809
30
0
11
2.8335084732123308
21
2.6350322351680959
31
0
0
SPLINE
5
199
100
AcDbEntity
8
0
100
AcDbSpline
70
0
71
2
72
6
73
3
74
0
42
0.000000001
43
0.0000000001
44
0.0000000001
40
0
40
0
40
0
40
1
40
1
40
1
10
2.8335084732123308
20
2.6350322351680959
30
0
10
2.8354398514342178
20
2.6549893720882141
30
0
10
2.8354398514342178
20
2.6672209961207827
30
0
0
SPLINE
5
200
100
AcDbEntity
8
0
100
AcDbSpline
70
0
71
2
72
6
73
3
74
0
42
0.000000001
43
0.0000000001
44
0.0000000001
40
0
40
0
40
0
40
1
40
1
40
1
10
2.8354398514342178
20
2.6672209961207827
30
0
10
2.8354398514342178
20
2.687821863204475
30
0
10
2.8251394178923719
20
2.687821863204475
30
0
0
SPLINE
5
201
100
AcDbEntity
8
0
100
AcDbSpline
70
0
71
2
72
6
73
3
74
0
42
0.000000001
43
0.0000000001
44
0.0000000001
40
0
40
0
40
0
40
1
40
1
40
1
10
2.8251394178923719
20
2.687821863204475
30
0
10
2.8009977533122745
20
2.687821863204475
30
0
10
2.7733152912357721
20
2.6331008569462089
30
0
0
SPLINE
5
202
100
AcDbEntity
8
0
100
AcDbSpline
70
0
71
2
72
6
73
3
74
0
42
0.000000001
43
0.0000000001
44
0.0000000001
40
0
40
0
40
0
40
1
40
1
40
1
10
2.7733152912357721
20
2.6331008569462089
30
0
10
2.765911925026757
20
2.6392167628280756
30
0
10
2.765911925026757
20
2.6437232494354244
30
0
0
SPLINE
5
203
100
AcDbEntity
8
0
100
AcDbSpline
70
0
71
2
72
6
73
3
74
0
42
0.000000001
43
0.0000000001
44
0.0000000001
40
0
40
0
40
0
40
1
40
1
40
1
10
2.765911925026757
20
2.6437232494354244
30
0
10
2.765911925026757
20
2.6630364684608034
30
0
10
2.8009977533122745
20
2.6961909185244335
30
0
0
SPLINE
5
204
100
AcDbEntity
8
0
100
AcDbSpline
70
0
71
2
72
6
73
3
74
0
42
0.000000001
43
0.0000000001
44
0.0000000001
40
0
40
0
40
0
40
1
40
1
40
1
10
2.8009977533122745
20
2.6961909185244335
30
0
10
2.8364055405451616
20
2.7296673275354335
30
0
10
2.8566844486814844
20
2.7296673275354335
30
0
0
SPLINE
5
205
100
AcDbEntity
8
0
100
AcDbSpline
70
0
71
2
72
6
73
3
74
0
42
0.000000001
43
0.0000000001
44
0.0000000001
40
0
40
0
40
0
40
1
40
1
40
1
10
2.8566844486814844
20
2.7296673275354335
30
0
10
2.8843667230268224
20
2.7296673275354335
30
0
10
2.8843667230268224
20
2.6942597280337108
30
0
0
SPLINE
5
206
100
AcDbEntity
8
0
100
AcDbSpline
70
0
71
2
72
6
73
3
74
0
42
0.000000001
43
0.0000000001
44
0.0000000001
40
0
40
0
40
0
40
1
40
1
40
1
10
2.8843667230268224
20
2.6942597280337108
30
0
10
2.8843667230268224
20
2.6852467548190133
30
0
10
2.8827574914834693
20
2.6701180634536135
30
0
0
LINE
5
207
100
AcDbEntity
8
0
100
AcDbLine
10
2.8827574914834693
20
2.6701180634536135
30
0
11
2.8801821953668427
21
2.6440450206516291
31
0
0
LINE
5
208
100
AcDbEntity
8
0
100
AcDbLine
10
2.8801821953668427
20
2.6440450206516291
30
0
11
2.8776072747125458
21
2.6221566932407883
31
0
0
LINE
5
209
100
AcDbEntity
8
0
100
AcDbLine
10
2.8776072747125458
20
2.6221566932407883
30
0
11
2.8750319785959197
21
2.5993026767190042
31
0
0
SPLINE
5
210
100
AcDbEntity
8
0
100
AcDbSpline
70
0
71
2
72
6
73
3
74
0
42
0.000000001
43
0.0000000001
44
0.0000000001
40
0
40
0
40
0
40
1
40
1
40
1
10
2.8750319785959197
20
2.5993026767190042
30
0
10
2.9130148742142685
20
2.655954873467993
30
0
10
2.9580793648254273
20
2.6926503087591933
30
0
0
SPLINE
5
211
100
AcDbEntity
8
0
100
AcDbSpline
70
0
71
2
72
6
73
3
74
0
42
0.000000001
43
0.0000000001
44
0.0000000001
40
0
40
0
40
0
40
1
40
1
40
1
10
2.9580793648254273
20
2.6926503087591933
30
0
10
3.0034656266527913
20
2.7296673275354335
30
0
10
3.0353326163892729
20
2.7296673275354335
30
0
0
SPLINE
5
212
100
AcDbEntity
8
0
100
AcDbSpline
70
0
71
2
72
6
73
3
74
0
42
0.000000001
43
0.0000000001
44
0.0000000001
40
0
40
0
40
0
40
1
40
1
40
1
10
3.0353326163892729
20
2.7296673275354335
30
0
10
3.0665556882310163
20
2.7296673275354335
30
0
10
3.0665556882310163
20
2.6862124439299571
30
0
0
SPLINE
5
213
100
AcDbEntity
8
0
100
AcDbSpline
70
0
71
2
72
6
73
3
74
0
42
0.000000001
43
0.0000000001
44
0.0000000001
40
0
40
0
40
0
40
1
40
1
40
1
10
3.0665556882310163
20
2.6862124439299571
30
0
10
3.0665556882310163
20
2.6730151307864447
30
0
10
3.0630148907346109
20
2.6466201290370908
30
0
0
LINE
5
214
100
AcDbEntity
8
0
100
AcDbLine
10
3.0630148907346109
20
2.6466201290370908
30
0
11
3.0456330499311193
21
2.5265559117625074
31
0
0
SPLINE
5
215
100
AcDbEntity
8
0
100
AcDbSpline
70
0
71
2
72
6
73
3
74
0
42
0.000000001
43
0.0000000001
44
0.0000000001
40
0
40
0
40
0
40
1
40
1
40
1
10
3.0456330499311193
20
2.5265559117625074
30
0
10
3.0404828331601963
20
2.4905043943660461
30
0
10
3.0404828331601963
20
2.4695815683349842
30
0
0
SPLINE
5
216
100
AcDbEntity
8
0
100
AcDbSpline
70
0
71
2
72
6
73
3
74
0
42
0.000000001
43
0.0000000001
44
0.0000000001
40
0
40
0
40
0
40
1
40
1
40
1
10
3.0404828331601963
20
2.4695815683349842
30
0
10
3.0404828331601963
20
2.4528434576950668
30
0
10
3.049495618643729
20
2.4528434576950668
30
0
0
SPLINE
5
217
100
AcDbEntity
8
0
100
AcDbSpline
70
0
71
2
72
6
73
3
74
0
42
0.000000001
43
0.0000000001
44
0.0000000001
40
0
40
0
40
0
40
1
40
1
40
1
10
3.049495618643729
20
2.4528434576950668
30
0
10
3.0717059050019393
20
2.4528434576950668
30
0
10
3.1042166249019951
20
2.5120707628295174
30
0
0
SPLINE
5
218
100
AcDbEntity
8
0
100
AcDbSpline
70
0
71
2
72
6
73
3
74
0
42
0.000000001
43
0.0000000001
44
0.0000000001
40
0
40
0
40
0
40
1
40
1
40
1
10
3.1042166249019951
20
2.5120707628295174
30
0
10
3.1119419500583798
20
2.5072425050059635
30
0
10
3.1119419500583798
20
2.5020922882350405
30
0
0
SPLINE
5
219
100
AcDbEntity
8
0
100
AcDbSpline
70
0
71
2
72
6
73
3
74
0
42
0.000000001
43
0.0000000001
44
0.0000000001
40
0
40
0
40
0
40
1
40
1
40
1
10
3.1119419500583798
20
2.5020922882350405
30
0
10
3.1119419500583798
20
2.4811696499351434
30
0
10
3.0758904326619185
20
2.4470493230294048
30
0
0
SPLINE
5
220
100
AcDbEntity
8
0
100
AcDbSpline
70
0
71
2
72
6
73
3
74
0
42
0.000000001
43
0.0000000001
44
0.0000000001
40
0
40
0
40
0
40
1
40
1
40
1
10
3.0758904326619185
20
2.4470493230294048
30
0
10
3.0401606864816619
20
2.4132511428022005
30
0
10
3.0176286289072474
20
2.4132511428022005
30
0
0
SPLINE
5
221
100
AcDbEntity
8
0
100
AcDbSpline
70
0
71
2
72
6
73
3
74
0
42
0.000000001
43
0.0000000001
44
0.0000000001
40
0
40
0
40
0
40
1
40
1
40
1
10
3.0176286289072474
20
2.4132511428022005
30
0
10
2.9925212752162063
20
2.4132511428022005
30
0
10
2.9925212752162063
20
2.4493026601986618
30
0
0
SPLINE
5
222
100
AcDbEntity
8
0
100
AcDbSpline
70
0
71
2
72
6
73
3
74
0
42
0.000000001
43
0.0000000001
44
0.0000000001
40
0
40
0
40
0
40
1
40
1
40
1
10
2.9925212752162063
20
2.4493026601986618
30
0
10
2.9925212752162063
20
2.4756974742168509
30
0
10
2.9992810989928116
20
2.5223711963713633
30
0
0
LINE
5
223
100
AcDbEntity
8
0
100
AcDbLine
10
2.9992810989928116
20
2.5223711963713633
30
0
11
3.0105472216456017
21
2.6002681780987831
31
0
0
SPLINE
5
224
100
AcDbEntity
8
0
100
AcDbSpline
70
0
71
2
72
6
73
3
74
0
42
0.000000001
43
0.0000000001
44
0.0000000001
40
0
40
0
40
0
40
1
40
1
40
1
10
3.0105472216456017
20
2.6002681780987831
30
0
10
3.0160192096327294
20
2.6382510737171319
30
0
10
3.0160192096327294
20
2.6604613600753417
30
0
0
SPLINE
5
225
100
AcDbEntity
8
0
100
AcDbSpline
70
0
71
2
72
6
73
3
74
0
42
0.000000001
43
0.0000000001
44
0.0000000001
40
0
40
0
40
0
40
1
40
1
40
1
10
3.0160192096327294
20
2.6604613600753417
30
0
10
3.0160192096327294
20
2.6858904849825875
30
0
10
2.9983154098818683
20
2.6858904849825875
30
0
0
SPLINE
5
226
100
AcDbEntity
8
0
100
AcDbSpline
70
0
71
2
72
6
73
3
74
0
42
0.000000001
43
0.0000000001
44
0.0000000001
40
0
40
0
40
0
40
1
40
1
40
1
10
2.9983154098818683
20
2.6858904849825875
30
0
10
2.9571136757144836
20
2.6858904849825875
30
0
10
2.9146242934887865
20
2.6298820183971729
30
0
0
SPLINE
5
227
100
AcDbEntity
8
0
100
AcDbSpline
70
0
71
2
72
6
73
3
74
0
42
0.000000001
43
0.0000000001
44
0.0000000001
40
0
40
0
40
0
40
1
40
1
40
1
10
2.9146242934887865
20
2.6298820183971729
30
0
10
2.8724570579416229
20
2.5741953230279631
30
0
10
2.8653754629488128
20
2.5101395723387947
30
0
0
LINE
5
228
100
AcDbEntity
8
0
100
AcDbLine
10
2.8653754629488128
20
2.5101395723387947
30
0
11
2.8566844486814844
21
2.4328863207749487
31
0
0
LINE
5
229
100
AcDbEntity
8
0
100
AcDbLine
10
3.2439413638565546
20
2.6839592944918649
30
0
11
3.2278469833802115
21
2.5416846031279072
31
0
0
SPLINE
5
230
100
AcDbEntity
8
0
100
AcDbSpline
70
0
71
2
72
6
73
3
74
0
42
0.000000001
43
0.0000000001
44
0.0000000001
40
0
40
0
40
0
40
1
40
1
40
1
10
3.2278469833802115
20
2.5416846031279072
30
0
10
3.2236624557202318
20
2.5033799362933538
30
0
10
3.2236624557202318
20
2.4850322186477536
30
0
0
SPLINE
5
231
100
AcDbEntity
8
0
100
AcDbSpline
70
0
71
2
72
6
73
3
74
0
42
0.000000001
43
0.0000000001
44
0.0000000001
40
0
40
0
40
0
40
1
40
1
40
1
10
3.2236624557202318
20
2.4850322186477536
30
0
10
3.2236624557202318
20
2.4486587423039228
30
0
10
3.2484480381950673
20
2.4486587423039228
30
0
0
SPLINE
5
232
100
AcDbEntity
8
0
100
AcDbSpline
70
0
71
2
72
6
73
3
74
0
42
0.000000001
43
0.0000000001
44
0.0000000001
40
0
40
0
40
0
40
1
40
1
40
1
10
3.2484480381950673
20
2.4486587423039228
30
0
10
3.2751644356982972
20
2.4486587423039228
30
0
10
3.3038125868857433
20
2.4924355848567687
30
0
0
SPLINE
5
233
100
AcDbEntity
8
0
100
AcDbSpline
70
0
71
2
72
6
73
3
74
0
42
0.000000001
43
0.0000000001
44
0.0000000001
40
0
40
0
40
0
40
1
40
1
40
1
10
3.3038125868857433
20
2.4924355848567687
30
0
10
3.3086406569781324
20
2.486319678974902
30
0
10
3.3086406569781324
20
2.4814914211513486
30
0
0
SPLINE
5
234
100
AcDbEntity
8
0
100
AcDbSpline
70
0
71
2
72
6
73
3
74
0
42
0.000000001
43
0.0000000001
44
0.0000000001
40
0
40
0
40
0
40
1
40
1
40
1
10
3.3086406569781324
20
2.4814914211513486
30
0
10
3.3086406569781324
20
2.4634656624531179
30
0
10
3.2767740427039795
20
2.4383583087620768
30
0
0
SPLINE
5
235
100
AcDbEntity
8
0
100
AcDbSpline
70
0
71
2
72
6
73
3
74
0
42
0.000000001
43
0.0000000001
44
0.0000000001
40
0
40
0
40
0
40
1
40
1
40
1
10
3.2767740427039795
20
2.4383583087620768
30
0
10
3.2452288241837031
20
2.4132511428022005
30
0
10
3.222374807661919
20
2.4132511428022005
30
0
0
SPLINE
5
236
100
AcDbEntity
8
0
100
AcDbSpline
70
0
71
2
72
6
73
3
74
0
42
0.000000001
43
0.0000000001
44
0.0000000001
40
0
40
0
40
0
40
1
40
1
40
1
10
3.222374807661919
20
2.4132511428022005
30
0
10
3.1766667746183503
20
2.4132511428022005
30
0
10
3.1766667746183503
20
2.4718347177730764
30
0
0
SPLINE
5
237
100
AcDbEntity
8
0
100
AcDbSpline
70
0
71
2
72
6
73
3
74
0
42
0.000000001
43
0.0000000001
44
0.0000000001
40
0
40
0
40
0
40
1
40
1
40
1
10
3.1766667746183503
20
2.4718347177730764
30
0
10
3.1766667746183503
20
2.4934012739677125
30
0
10
3.182138762605478
20
2.5416846031279072
30
0
0
LINE
5
238
100
AcDbEntity
8
0
100
AcDbLine
10
3.182138762605478
20
2.5416846031279072
30
0
11
3.1979113718656169
21
2.6839592944918649
31
0
0
LINE
5
239
100
AcDbEntity
8
0
100
AcDbLine
10
3.1979113718656169
20
2.6839592944918649
30
0
11
3.1299928647326736
21
2.6839592944918649
31
0
0
LINE
5
240
100
AcDbEntity
8
0
100
AcDbLine
10
3.1299928647326731
20
2.6839592944918649
30
0
11
3.1676538014036519
21
2.7212982722154746
31
0
0
LINE
5
241
100
AcDbEntity
8
0
100
AcDbLine
10
3.1676538014036528
20
2.7212982722154746
30
0
11
3.2020958995255961
21
2.7212982722154746
31
0
0
LINE
5
242
100
AcDbEntity
8
0
100
AcDbLine
10
3.2020958995255961
20
2.7212982722154746
30
0
11
3.2088555355710371
21
2.7798820349175153
31
0
0
LINE
5
243
100
AcDbEntity
8
0
100
AcDbLine
10
3.2088555355710371
20
2.7798820349175153
30
0
11
3.2561731756202881
21
2.7956544564464894
31
0
0
LINE
5
244
100
AcDbEntity
8
0
100
AcDbLine
10
3.2561731756202876
20
2.7956544564464894
30
0
11
3.2481258915165334
21
2.7212982722154746
31
0
0
LINE
5
245
100
AcDbEntity
8
0
100
AcDbLine
10
3.2481258915165334
20
2.7212982722154746
30
0
11
3.3846064482148295
21
2.7212982722154746
31
0
0
LINE
5
246
100
AcDbEntity
8
0
100
AcDbLine
10
3.3846064482148295
20
2.7212982722154746
30
0
11
3.3469456992750151
21
2.6839592944918649
31
0
0
LINE
5
247
100
AcDbEntity
8
0
100
AcDbLine
10
3.3469456992750151
20
2.6839592944918649
30
0
11
3.2439413638565542
21
2.6839592944918649
31
0
0
SPLINE
5
248
100
AcDbEntity
8
0
100
AcDbSpline
70
0
71
2
72
6
73
3
74
0
42
0.000000001
43
0.0000000001
44
0.0000000001
40
0
40
0
40
0
40
1
40
1
40
1
10
3.5333443481152509
20
2.5152897891097177
30
0
10
3.5420347991890853
20
2.5101395723387947
30
0
10
3.5420347991890853
20
2.5053111267840764
30
0
0
SPLINE
5
249
100
AcDbEntity
8
0
100
AcDbSpline
70
0
71
2
72
6
73
3
74
0
42
0.000000001
43
0.0000000001
44
0.0000000001
40
0
40
0
40
0
40
1
40
1
40
1
10
3.5420347991890853
20
2.5053111267840764
30
0
10
3.5420347991890853
20
2.4937232329150816
30
0
10
3.5140305658963777
20
2.4596030937405078
30
0
0
SPLINE
5
250
100
AcDbEntity
8
0
100
AcDbSpline
70
0
71
2
72
6
73
3
74
0
42
0.000000001
43
0.0000000001
44
0.0000000001
40
0
40
0
40
0
40
1
40
1
40
1
10
3.5140305658963777
20
2.4596030937405078
30
0
10
3.4763698169565633
20
2.4132511428022005
30
0
10
3.4441810560038766
20
2.4132511428022005
30
0
0
SPLINE
5
251
100
AcDbEntity
8
0
100
AcDbSpline
70
0
71
2
72
6
73
3
74
0
42
0.000000001
43
0.0000000001
44
0.0000000001
40
0
40
0
40
0
40
1
40
1
40
1
10
3.4441810560038766
20
2.4132511428022005
30
0
10
3.4206831215873534
20
2.4132511428022005
30
0
10
3.4206831215873534
20
2.4444742146439435
30
0
0
SPLINE
5
252
100
AcDbEntity
8
0
100
AcDbSpline
70
0
71
2
72
6
73
3
74
0
42
0.000000001
43
0.0000000001
44
0.0000000001
40
0
40
0
40
0
40
1
40
1
40
1
10
3.4206831215873534
20
2.4444742146439435
30
0
10
3.4206831215873534
20
2.4576717155186203
30
0
10
3.43034001269679
20
2.5255902226515636
30
0
0
LINE
5
253
100
AcDbEntity
8
0
100
AcDbLine
10
3.43034001269679
20
2.5255902226515636
30
0
11
3.4428932202143989
21
2.6131437200260907
31
0
0
LINE
5
254
100
AcDbEntity
8
0
100
AcDbLine
10
3.4428932202143989
20
2.6131437200260907
30
0
11
3.4461124342257636
21
2.6353540063843006
31
0
0
LINE
5
255
100
AcDbEntity
8
0
100
AcDbLine
10
3.4461124342257636
20
2.6353540063843006
30
0
11
3.4486873548800605
21
2.6530579938663266
31
0
0
SPLINE
5
256
100
AcDbEntity
8
0
100
AcDbSpline
70
0
71
2
72
6
73
3
74
0
42
0.000000001
43
0.0000000001
44
0.0000000001
40
0
40
0
40
0
40
1
40
1
40
1
10
3.4486873548800605
20
2.6530579938663266
30
0
10
3.4502969618857433
20
2.6643241165191163
30
0
10
3.4502969618857433
20
2.672049441675501
30
0
0
SPLINE
5
257
100
AcDbEntity
8
0
100
AcDbSpline
70
0
71
2
72
6
73
3
74
0
42
0.000000001
43
0.0000000001
44
0.0000000001
40
0
40
0
40
0
40
1
40
1
40
1
10
3.4502969618857433
20
2.672049441675501
30
0
10
3.4502969618857433
20
2.6881438221518446
30
0
10
3.4412839886710458
20
2.6881438221518446
30
0
0
SPLINE
5
258
100
AcDbEntity
8
0
100
AcDbSpline
70
0
71
2
72
6
73
3
74
0
42
0.000000001
43
0.0000000001
44
0.0000000001
40
0
40
0
40
0
40
1
40
1
40
1
10
3.4412839886710458
20
2.6881438221518446
30
0
10
3.4161768227111691
20
2.6881438221518446
30
0
10
3.3872069003075183
20
2.6327790857300037
30
0
0
SPLINE
5
259
100
AcDbEntity
8
0
100
AcDbSpline
70
0
71
2
72
6
73
3
74
0
42
0.000000001
43
0.0000000001
44
0.0000000001
40
0
40
0
40
0
40
1
40
1
40
1
10
3.3872069003075183
20
2.6327790857300037
30
0
10
3.3810906189633223
20
2.6382510737171319
30
0
10
3.3810906189633223
20
2.6437232494354244
30
0
0
SPLINE
5
260
100
AcDbEntity
8
0
100
AcDbSpline
70
0
71
2
72
6
73
3
74
0
42
0.000000001
43
0.0000000001
44
0.0000000001
40
0
40
0
40
0
40
1
40
1
40
1
10
3.3810906189633223
20
2.6437232494354244
30
0
10
3.3810906189633223
20
2.663358427408173
30
0
10
3.4171425118221128
20
2.696512877471803
30
0
0
SPLINE
5
261
100
AcDbEntity
8
0
100
AcDbSpline
70
0
71
2
72
6
73
3
74
0
42
0.000000001
43
0.0000000001
44
0.0000000001
40
0
40
0
40
0
40
1
40
1
40
1
10
3.4171425118221128
20
2.696512877471803
30
0
10
3.4535158004347788
20
2.7296673275354335
30
0
10
3.4750823566294149
20
2.7296673275354335
30
0
0
SPLINE
5
262
100
AcDbEntity
8
0
100
AcDbSpline
70
0
71
2
72
6
73
3
74
0
42
0.000000001
43
0.0000000001
44
0.0000000001
40
0
40
0
40
0
40
1
40
1
40
1
10
3.4750823566294149
20
2.7296673275354335
30
0
10
3.4992238334783474
20
2.7296673275354335
30
0
10
3.4992238334783474
20
2.6961909185244335
30
0
0
SPLINE
5
263
100
AcDbEntity
8
0
100
AcDbSpline
70
0
71
2
72
6
73
3
74
0
42
0.000000001
43
0.0000000001
44
0.0000000001
40
0
40
0
40
0
40
1
40
1
40
1
10
3.4992238334783474
20
2.6961909185244335
30
0
10
3.4992238334783474
20
2.6897532414263621
30
0
10
3.4966489128240505
20
2.6697961045062444
30
0
0
LINE
5
264
100
AcDbEntity
8
0
100
AcDbLine
10
3.4966489128240505
20
2.6697961045062444
30
0
11
3.4937518454912198
21
2.6482297360427731
31
0
0
SPLINE
5
265
100
AcDbEntity
8
0
100
AcDbSpline
70
0
71
2
72
6
73
3
74
0
42
0.000000001
43
0.0000000001
44
0.0000000001
40
0
40
0
40
0
40
1
40
1
40
1
10
3.4937518454912198
20
2.6482297360427731
30
0
10
3.4934296988126854
20
2.645654439926147
30
0
10
3.4902112357259791
20
2.6221566932407883
30
0
0
LINE
5
266
100
AcDbEntity
8
0
100
AcDbLine
10
3.4902112357259791
20
2.6221566932407883
30
0
11
3.4770137348513019
21
2.530096521527748
31
0
0
LINE
5
267
100
AcDbEntity
8
0
100
AcDbLine
10
3.4770137348513019
20
2.530096521527748
30
0
11
3.4737945208399372
21
2.5094956544440556
31
0
0
SPLINE
5
268
100
AcDbEntity
8
0
100
AcDbSpline
70
0
71
2
72
6
73
3
74
0
42
0.000000001
43
0.0000000001
44
0.0000000001
40
0
40
0
40
0
40
1
40
1
40
1
10
3.4737945208399372
20
2.5094956544440556
30
0
10
3.4696103686422868
20
2.4789163127658869
30
0
10
3.4696103686422868
20
2.4686158792240409
30
0
0
SPLINE
5
269
100
AcDbEntity
8
0
100
AcDbSpline
70
0
71
2
72
6
73
3
74
0
42
0.000000001
43
0.0000000001
44
0.0000000001
40
0
40
0
40
0
40
1
40
1
40
1
10
3.4696103686422868
20
2.4686158792240409
30
0
10
3.4696103686422868
20
2.4547746481857895
30
0
10
3.4776572772837118
20
2.4547746481857895
30
0
0
SPLINE
5
270
100
AcDbEntity
8
0
100
AcDbSpline
70
0
71
2
72
6
73
3
74
0
42
0.000000001
43
0.0000000001
44
0.0000000001
40
0
40
0
40
0
40
1
40
1
40
1
10
3.4776572772837118
20
2.4547746481857895
30
0
10
3.5046958214654755
20
2.4547746481857895
30
0
10
3.5333443481152509
20
2.5152897891097177
30
0
0
LINE
5
271
100
AcDbEntity
8
0
100
AcDbLine
10
3.4686446795313435
20
2.7711910206501873
30
0
11
3.4956832237131068
21
2.8378218797248174
31
0
0
SPLINE
5
272
100
AcDbEntity
8
0
100
AcDbSpline
70
0
71
2
72
6
73
3
74
0
42
0.000000001
43
0.0000000001
44
0.0000000001
40
0
40
0
40
0
40
1
40
1
40
1
10
3.4956832237131068
20
2.8378218797248174
30
0
10
3.5317343656472389
20
2.8526287998740121
30
0
10
3.5549105288475573
20
2.8787017488104145
30
0
0
SPLINE
5
273
100
AcDbEntity
8
0
100
AcDbSpline
70
0
71
2
72
6
73
3
74
0
42
0.000000001
43
0.0000000001
44
0.0000000001
40
0
40
0
40
0
40
1
40
1
40
1
10
3.5549105288475573
20
2.8787017488104145
30
0
10
3.5581293673965932
20
2.8741953560686482
30
0
10
3.5581293673965932
20
2.8693669105139299
30
0
0
SPLINE
5
274
100
AcDbEntity
8
0
100
AcDbSpline
70
0
71
2
72
6
73
3
74
0
42
0.000000001
43
0.0000000001
44
0.0000000001
40
0
40
0
40
0
40
1
40
1
40
1
10
3.5581293673965932
20
2.8693669105139299
30
0
10
3.5581293673965932
20
2.826233985855823
30
0
10
3.4686446795313435
20
2.7711910206501873
30
0
0
LINE
5
275
100
AcDbEntity
8
0
100
AcDbLine
10
3.6601931696801731
20
2.4328863207749487
30
0
11
3.6122319871985122
21
2.4132511428022005
31
0
0
LINE
5
276
100
AcDbEntity
8
0
100
AcDbLine
10
3.6122319871985122
20
2.4132511428022005
30
0
11
3.613197676309456
21
2.4222639282857332
31
0
0
LINE
5
277
100
AcDbEntity
8
0
100
AcDbLine
10
3.613197676309456
20
2.4222639282857332
30
0
11
3.6157725969637529
21
2.4460836339184615
31
0
0
LINE
5
278
100
AcDbEntity
8
0
100
AcDbLine
10
3.6157725969637529
20
2.4460836339184615
30
0
11
3.6183475176180497
21
2.4686158792240409
31
0
0
LINE
5
279
100
AcDbEntity
8
0
100
AcDbLine
10
3.6183475176180497
20
2.4686158792240409
30
0
11
3.6350860037202968
21
2.617972165580809
31
0
0
LINE
5
280
100
AcDbEntity
8
0
100
AcDbLine
10
3.6350860037202968
20
2.617972165580809
30
0
11
3.6370170064798546
21
2.6350322351680959
31
0
0
SPLINE
5
281
100
AcDbEntity
8
0
100
AcDbSpline
70
0
71
2
72
6
73
3
74
0
42
0.000000001
43
0.0000000001
44
0.0000000001
40
0
40
0
40
0
40
1
40
1
40
1
10
3.6370170064798546
20
2.6350322351680959
30
0
10
3.6389483847017421
20
2.6549893720882141
30
0
10
3.6389483847017421
20
2.6672209961207827
30
0
0
SPLINE
5
282
100
AcDbEntity
8
0
100
AcDbSpline
70
0
71
2
72
6
73
3
74
0
42
0.000000001
43
0.0000000001
44
0.0000000001
40
0
40
0
40
0
40
1
40
1
40
1
10
3.6389483847017421
20
2.6672209961207827
30
0
10
3.6389483847017421
20
2.687821863204475
30
0
10
3.6286479511598957
20
2.687821863204475
30
0
0
SPLINE
5
283
100
AcDbEntity
8
0
100
AcDbSpline
70
0
71
2
72
6
73
3
74
0
42
0.000000001
43
0.0000000001
44
0.0000000001
40
0
40
0
40
0
40
1
40
1
40
1
10
3.6286479511598957
20
2.687821863204475
30
0
10
3.6045064743109632
20
2.687821863204475
30
0
10
3.57682438769679
20
2.6331008569462089
30
0
0
SPLINE
5
284
100
AcDbEntity
8
0
100
AcDbSpline
70
0
71
2
72
6
73
3
74
0
42
0.000000001
43
0.0000000001
44
0.0000000001
40
0
40
0
40
0
40
1
40
1
40
1
10
3.57682438769679
20
2.6331008569462089
30
0
10
3.5694206460254456
20
2.6392167628280756
30
0
10
3.5694206460254456
20
2.6437232494354244
30
0
0
SPLINE
5
285
100
AcDbEntity
8
0
100
AcDbSpline
70
0
71
2
72
6
73
3
74
0
42
0.000000001
43
0.0000000001
44
0.0000000001
40
0
40
0
40
0
40
1
40
1
40
1
10
3.5694206460254456
20
2.6437232494354244
30
0
10
3.5694206460254456
20
2.6630364684608034
30
0
10
3.6045064743109632
20
2.6961909185244335
30
0
0
SPLINE
5
286
100
AcDbEntity
8
0
100
AcDbSpline
70
0
71
2
72
6
73
3
74
0
42
0.000000001
43
0.0000000001
44
0.0000000001
40
0
40
0
40
0
40
1
40
1
40
1
10
3.6045064743109632
20
2.6961909185244335
30
0
10
3.6399140738126854
20
2.7296673275354335
30
0
10
3.6601931696801731
20
2.7296673275354335
30
0
0
SPLINE
5
287
100
AcDbEntity
8
0
100
AcDbSpline
70
0
71
2
72
6
73
3
74
0
42
0.000000001
43
0.0000000001
44
0.0000000001
40
0
40
0
40
0
40
1
40
1
40
1
10
3.6601931696801731
20
2.7296673275354335
30
0
10
3.6878756317566754
20
2.7296673275354335
30
0
10
3.6878756317566754
20
2.6942597280337108
30
0
0
SPLINE
5
288
100
AcDbEntity
8
0
100
AcDbSpline
70
0
71
2
72
6
73
3
74
0
42
0.000000001
43
0.0000000001
44
0.0000000001
40
0
40
0
40
0
40
1
40
1
40
1
10
3.6878756317566754
20
2.6942597280337108
30
0
10
3.6878756317566754
20
2.6852467548190133
30
0
10
3.6862664002133223
20
2.6701180634536135
30
0
0
LINE
5
289
100
AcDbEntity
8
0
100
AcDbLine
10
3.6862664002133223
20
2.6701180634536135
30
0
11
3.6836911040966962
21
2.6440450206516291
31
0
0
LINE
5
290
100
AcDbEntity
8
0
100
AcDbLine
10
3.6836911040966962
20
2.6440450206516291
30
0
11
3.6811158079800701
21
2.6221566932407883
31
0
0
LINE
5
291
100
AcDbEntity
8
0
100
AcDbLine
10
3.6811158079800701
20
2.6221566932407883
30
0
11
3.6785408873257732
21
2.5993026767190042
31
0
0
SPLINE
5
292
100
AcDbEntity
8
0
100
AcDbSpline
70
0
71
2
72
6
73
3
74
0
42
0.000000001
43
0.0000000001
44
0.0000000001
40
0
40
0
40
0
40
1
40
1
40
1
10
3.6785408873257732
20
2.5993026767190042
30
0
10
3.7165237829441216
20
2.655954873467993
30
0
10
3.7615878980929511
20
2.6926503087591933
30
0
0
SPLINE
5
293
100
AcDbEntity
8
0
100
AcDbSpline
70
0
71
2
72
6
73
3
74
0
42
0.000000001
43
0.0000000001
44
0.0000000001
40
0
40
0
40
0
40
1
40
1
40
1
10
3.7615878980929511
20
2.6926503087591933
30
0
10
3.8069745353826443
20
2.7296673275354335
30
0
10
3.8388415251191264
20
2.7296673275354335
30
0
0
SPLINE
5
294
100
AcDbEntity
8
0
100
AcDbSpline
70
0
71
2
72
6
73
3
74
0
42
0.000000001
43
0.0000000001
44
0.0000000001
40
0
40
0
40
0
40
1
40
1
40
1
10
3.8388415251191264
20
2.7296673275354335
30
0
10
3.8700642214985401
20
2.7296673275354335
30
0
10
3.8700642214985401
20
2.6862124439299571
30
0
0
SPLINE
5
295
100
AcDbEntity
8
0
100
AcDbSpline
70
0
71
2
72
6
73
3
74
0
42
0.000000001
43
0.0000000001
44
0.0000000001
40
0
40
0
40
0
40
1
40
1
40
1
10
3.8700642214985401
20
2.6862124439299571
30
0
10
3.8700642214985401
20
2.6730151307864447
30
0
10
3.8665236117332995
20
2.6466201290370908
30
0
0
LINE
5
296
100
AcDbEntity
8
0
100
AcDbLine
10
3.8665236117332995
20
2.6466201290370908
30
0
11
3.8491419586609723
21
2.5265559117625074
31
0
0
SPLINE
5
297
100
AcDbEntity
8
0
100
AcDbSpline
70
0
71
2
72
6
73
3
74
0
42
0.000000001
43
0.0000000001
44
0.0000000001
40
0
40
0
40
0
40
1
40
1
40
1
10
3.8491419586609723
20
2.5265559117625074
30
0
10
3.8439913664277201
20
2.4905043943660461
30
0
10
3.8439913664277201
20
2.4695815683349842
30
0
0
SPLINE
5
298
100
AcDbEntity
8
0
100
AcDbSpline
70
0
71
2
72
6
73
3
74
0
42
0.000000001
43
0.0000000001
44
0.0000000001
40
0
40
0
40
0
40
1
40
1
40
1
10
3.8439913664277201
20
2.4695815683349842
30
0
10
3.8439913664277201
20
2.4528434576950668
30
0
10
3.8530043396424176
20
2.4528434576950668
30
0
0
SPLINE
5
299
100
AcDbEntity
8
0
100
AcDbSpline
70
0
71
2
72
6
73
3
74
0
42
0.000000001
43
0.0000000001
44
0.0000000001
40
0
40
0
40
0
40
1
40
1
40
1
10
3.8530043396424176
20
2.4528434576950668
30
0
10
3.8752148137317923
20
2.4528434576950668
30
0
10
3.9077253459006838
20
2.5120707628295174
30
0
0
SPLINE
5
300
100
AcDbEntity
8
0
100
AcDbSpline
70
0
71
2
72
6
73
3
74
0
42
0.000000001
43
0.0000000001
44
0.0000000001
40
0
40
0
40
0
40
1
40
1
40
1
10
3.9077253459006838
20
2.5120707628295174
30
0
10
3.9154508587882328
20
2.5072425050059635
30
0
10
3.9154508587882328
20
2.5020922882350405
30
0
0
SPLINE
5
301
100
AcDbEntity
8
0
100
AcDbSpline
70
0
71
2
72
6
73
3
74
0
42
0.000000001
43
0.0000000001
44
0.0000000001
40
0
40
0
40
0
40
1
40
1
40
1
10
3.9154508587882328
20
2.5020922882350405
30
0
10
3.9154508587882328
20
2.4811696499351434
30
0
10
3.8793989659294423
20
2.4470493230294048
30
0
0
SPLINE
5
302
100
AcDbEntity
8
0
100
AcDbSpline
70
0
71
2
72
6
73
3
74
0
42
0.000000001
43
0.0000000001
44
0.0000000001
40
0
40
0
40
0
40
1
40
1
40
1
10
3.8793989659294423
20
2.4470493230294048
30
0
10
3.8436695952115154
20
2.4132511428022005
30
0
10
3.8211377253682652
20
2.4132511428022005
30
0
0
SPLINE
5
303
100
AcDbEntity
8
0
100
AcDbSpline
70
0
71
2
72
6
73
3
74
0
42
0.000000001
43
0.0000000001
44
0.0000000001
40
0
40
0
40
0
40
1
40
1
40
1
10
3.8211377253682652
20
2.4132511428022005
30
0
10
3.7960301839460593
20
2.4132511428022005
30
0
10
3.7960301839460593
20
2.4493026601986618
30
0
0
SPLINE
5
304
100
AcDbEntity
8
0
100
AcDbSpline
70
0
71
2
72
6
73
3
74
0
42
0.000000001
43
0.0000000001
44
0.0000000001
40
0
40
0
40
0
40
1
40
1
40
1
10
3.7960301839460593
20
2.4493026601986618
30
0
10
3.7960301839460593
20
2.4756974742168509
30
0
10
3.8027896322603358
20
2.5223711963713633
30
0
0
LINE
5
305
100
AcDbEntity
8
0
100
AcDbLine
10
3.8027896322603358
20
2.5223711963713633
30
0
11
3.8140557549131255
21
2.6002681780987831
31
0
0
SPLINE
5
306
100
AcDbEntity
8
0
100
AcDbSpline
70
0
71
2
72
6
73
3
74
0
42
0.000000001
43
0.0000000001
44
0.0000000001
40
0
40
0
40
0
40
1
40
1
40
1
10
3.8140557549131255
20
2.6002681780987831
30
0
10
3.8195277429002532
20
2.6382510737171319
30
0
10
3.8195277429002532
20
2.6604613600753417
30
0
0
SPLINE
5
307
100
AcDbEntity
8
0
100
AcDbSpline
70
0
71
2
72
6
73
3
74
0
42
0.000000001
43
0.0000000001
44
0.0000000001
40
0
40
0
40
0
40
1
40
1
40
1
10
3.8195277429002532
20
2.6604613600753417
30
0
10
3.8195277429002532
20
2.6858904849825875
30
0
10
3.8018239431493921
20
2.6858904849825875
30
0
0
SPLINE
5
308
100
AcDbEntity
8
0
100
AcDbSpline
70
0
71
2
72
6
73
3
74
0
42
0.000000001
43
0.0000000001
44
0.0000000001
40
0
40
0
40
0
40
1
40
1
40
1
10
3.8018239431493921
20
2.6858904849825875
30
0
10
3.7606222089820078
20
2.6858904849825875
30
0
10
3.7181333899498044
20
2.6298820183971729
30
0
0
SPLINE
5
309
100
AcDbEntity
8
0
100
AcDbSpline
70
0
71
2
72
6
73
3
74
0
42
0.000000001
43
0.0000000001
44
0.0000000001
40
0
40
0
40
0
40
1
40
1
40
1
10
3.7181333899498044
20
2.6298820183971729
30
0
10
3.6759659666714763
20
2.5741953230279631
30
0
10
3.6688839962163367
20
2.5101395723387947
30
0
0
LINE
5
310
100
AcDbEntity
8
0
100
AcDbLine
10
3.6688839962163367
20
2.5101395723387947
30
0
11
3.6601931696801731
21
2.4328863207749487
31
0
0
SPLINE
5
311
100
AcDbEntity
8
0
100
AcDbSpline
70
0
71
2
72
6
73
3
74
0
42
0.000000001
43
0.0000000001
44
0.0000000001
40
0
40
0
40
0
40
1
40
1
40
1
10
4.1420851772225804
20
2.5239806156458813
30
0
10
4.1501328367886634
20
2.5185086276587532
30
0
10
4.1501328367886634
20
2.511105261449738
30
0
0
SPLINE
5
312
100
AcDbEntity
8
0
100
AcDbSpline
70
0
71
2
72
6
73
3
74
0
42
0.000000001
43
0.0000000001
44
0.0000000001
40
0
40
0
40
0
40
1
40
1
40
1
10
4.1501328367886634
20
2.511105261449738
30
0
10
4.1501328367886634
20
2.5011265991240967
30
0
10
4.1295319697049715
20
2.4769849345439994
30
0
0
SPLINE
5
313
100
AcDbEntity
8
0
100
AcDbSpline
70
0
71
2
72
6
73
3
74
0
42
0.000000001
43
0.0000000001
44
0.0000000001
40
0
40
0
40
0
40
1
40
1
40
1
10
4.1295319697049715
20
2.4769849345439994
30
0
10
4.074488816768171
20
2.4132511428022005
30
0
10
4.0207334996208486
20
2.4132511428022005
30
0
0
SPLINE
5
314
100
AcDbEntity
8
0
100
AcDbSpline
70
0
71
2
72
6
73
3
74
0
42
0.000000001
43
0.0000000001
44
0.0000000001
40
0
40
0
40
0
40
1
40
1
40
1
10
4.0207334996208486
20
2.4132511428022005
30
0
10
3.9879008207734232
20
2.4132511428022005
30
0
10
3.9666564112573215
20
2.4393239978730206
30
0
0
SPLINE
5
315
100
AcDbEntity
8
0
100
AcDbSpline
70
0
71
2
72
6
73
3
74
0
42
0.000000001
43
0.0000000001
44
0.0000000001
40
0
40
0
40
0
40
1
40
1
40
1
10
3.9666564112573215
20
2.4393239978730206
30
0
10
3.9454116262788905
20
2.465397040675005
30
0
10
3.9454116262788905
20
2.505955044678815
30
0
0
SPLINE
5
316
100
AcDbEntity
8
0
100
AcDbSpline
70
0
71
2
72
6
73
3
74
0
42
0.000000001
43
0.0000000001
44
0.0000000001
40
0
40
0
40
0
40
1
40
1
40
1
10
3.9454116262788905
20
2.505955044678815
30
0
10
3.9454116262788905
20
2.579345539798886
30
0
10
4.0007761749695661
20
2.654345454193475
30
0
0
SPLINE
5
317
100
AcDbEntity
8
0
100
AcDbSpline
70
0
71
2
72
6
73
3
74
0
42
0.000000001
43
0.0000000001
44
0.0000000001
40
0
40
0
40
0
40
1
40
1
40
1
10
4.0007761749695661
20
2.654345454193475
30
0
10
4.0564632458011056
20
2.7296673275354335
30
0
10
4.1108624808431662
20
2.7296673275354335
30
0
0
SPLINE
5
318
100
AcDbEntity
8
0
100
AcDbSpline
70
0
71
2
72
6
73
3
74
0
42
0.000000001
43
0.0000000001
44
0.0000000001
40
0
40
0
40
0
40
1
40
1
40
1
10
4.1108624808431662
20
2.7296673275354335
30
0
10
4.1501328367886634
20
2.7296673275354335
30
0
10
4.1501328367886634
20
2.6875000919882703
30
0
0
SPLINE
5
319
100
AcDbEntity
8
0
100
AcDbSpline
70
0
71
2
72
6
73
3
74
0
42
0.000000001
43
0.0000000001
44
0.0000000001
40
0
40
0
40
0
40
1
40
1
40
1
10
4.1501328367886634
20
2.6875000919882703
30
0
10
4.1501328367886634
20
2.6401824519390189
30
0
10
4.1041026570665613
20
2.5951179613278601
30
0
0
SPLINE
5
320
100
AcDbEntity
8
0
100
AcDbSpline
70
0
71
2
72
6
73
3
74
0
42
0.000000001
43
0.0000000001
44
0.0000000001
40
0
40
0
40
0
40
1
40
1
40
1
10
4.1041026570665613
20
2.5951179613278601
30
0
10
4.0583946240229922
20
2.5500536584478657
30
0
10
3.9924071196496072
20
2.5323498586970046
30
0
0
SPLINE
5
321
100
AcDbEntity
8
0
100
AcDbSpline
70
0
71
2
72
6
73
3
74
0
42
0.000000001
43
0.0000000001
44
0.0000000001
40
0
40
0
40
0
40
1
40
1
40
1
10
3.9924071196496072
20
2.5323498586970046
30
0
10
3.9988447967476786
20
2.4547746481857895
30
0
10
4.0535661784682739
20
2.4547746481857895
30
0
0
SPLINE
5
322
100
AcDbEntity
8
0
100
AcDbSpline
70
0
71
2
72
6
73
3
74
0
42
0.000000001
43
0.0000000001
44
0.0000000001
40
0
40
0
40
0
40
1
40
1
40
1
10
4.0535661784682739
20
2.4547746481857895
30
0
10
4.1076432668318015
20
2.4547746481857895
30
0
10
4.1420851772225804
20
2.5239806156458813
30
0
0
SPLINE
5
323
100
AcDbEntity
8
0
100
AcDbSpline
70
0
71
2
72
6
73
3
74
0
42
0.000000001
43
0.0000000001
44
0.0000000001
40
0
40
0
40
0
40
1
40
1
40
1
10
3.9936949554390848
20
2.5716202146425018
30
0
10
4.0030296998699875
20
2.5684013760934659
30
0
10
4.0107552127575365
20
2.5684013760934659
30
0
0
SPLINE
5
324
100
AcDbEntity
8
0
100
AcDbSpline
70
0
71
2
72
6
73
3
74
0
42
0.000000001
43
0.0000000001
44
0.0000000001
40
0
40
0
40
0
40
1
40
1
40
1
10
4.0107552127575365
20
2.5684013760934659
30
0
10
4.0506691111354431
20
2.5684013760934659
30
0
10
4.0806047226500377
20
2.5928648118897679
30
0
0
SPLINE
5
325
100
AcDbEntity
8
0
100
AcDbSpline
70
0
71
2
72
6
73
3
74
0
42
0.000000001
43
0.0000000001
44
0.0000000001
40
0
40
0
40
0
40
1
40
1
40
1
10
4.0806047226500377
20
2.5928648118897679
30
0
10
4.1105403341646323
20
2.6173284354172348
30
0
10
4.1105403341646323
20
2.6501609265334958
30
0
0
SPLINE
5
326
100
AcDbEntity
8
0
100
AcDbSpline
70
0
71
2
72
6
73
3
74
0
42
0.000000001
43
0.0000000001
44
0.0000000001
40
0
40
0
40
0
40
1
40
1
40
1
10
4.1105403341646323
20
2.6501609265334958
30
0
10
4.1105403341646323
20
2.687821863204475
30
0
10
4.0722356673300792
20
2.687821863204475
30
0
0
SPLINE
5
327
100
AcDbEntity
8
0
100
AcDbSpline
70
0
71
2
72
6
73
3
74
0
42
0.000000001
43
0.0000000001
44
0.0000000001
40
0
40
0
40
0
40
1
40
1
40
1
10
4.0722356673300792
20
2.687821863204475
30
0
10
4.0445532052535764
20
2.687821863204475
30
0
10
4.022020959947997
20
2.6546674131408445
30
0
0
SPLINE
5
328
100
AcDbEntity
8
0
100
AcDbSpline
70
0
71
2
72
6
73
3
74
0
42
0.000000001
43
0.0000000001
44
0.0000000001
40
0
40
0
40
0
40
1
40
1
40
1
10
4.022020959947997
20
2.6546674131408445
30
0
10
3.9998104858586223
20
2.6218347342934192
30
0
10
3.9936949554390848
20
2.5716202146425018
30
0
0
LINE
5
329
100
AcDbEntity
8
0
100
AcDbLine
10
4.2290204758719252
20
2.6697961045062444
30
0
11
4.2290204758719252
21
2.8288090942412842
31
0
0
LINE
5
330
100
AcDbEntity
8
0
100
AcDbLine
10
4.2290204758719252
20
2.8288090942412842
30
0
11
4.2747285089154934
21
2.8626072744684889
31
0
0
LINE
5
331
100
AcDbEntity
8
0
100
AcDbLine
10
4.2747285089154934
20
2.8626072744684889
30
0
11
4.2747285089154934
21
2.7003756339155776
31
0
0
LINE
5
332
100
AcDbEntity
8
0
100
AcDbLine
10
4.2747285089154934
20
2.7003756339155776
30
0
11
4.2290204758719252
21
2.6697961045062439
31
0
0
LINE
5
333
100
AcDbEntity
8
0
100
AcDbLine
10
4.2940670716481
20
2.4306329836056917
30
0
11
4.3384876443645206
21
2.4670064599495225
31
0
0
SPLINE
5
334
100
AcDbEntity
8
0
100
AcDbSpline
70
0
71
2
72
6
73
3
74
0
42
0.000000001
43
0.0000000001
44
0.0000000001
40
0
40
0
40
0
40
1
40
1
40
1
10
4.3384876443645206
20
2.4670064599495225
30
0
10
4.3635951857867257
20
2.4402896869839639
30
0
10
4.4015777059427448
20
2.4402896869839639
30
0
0
SPLINE
5
335
100
AcDbEntity
8
0
100
AcDbSpline
70
0
71
2
72
6
73
3
74
0
42
0.000000001
43
0.0000000001
44
0.0000000001
40
0
40
0
40
0
40
1
40
1
40
1
10
4.4015777059427448
20
2.4402896869839639
30
0
10
4.4479296568810529
20
2.4402896869839639
30
0
10
4.4479296568810529
20
2.4850322186477531
30
0
0
SPLINE
5
336
100
AcDbEntity
8
0
100
AcDbSpline
70
0
71
2
72
6
73
3
74
0
42
0.000000001
43
0.0000000001
44
0.0000000001
40
0
40
0
40
0
40
1
40
1
40
1
10
4.4479296568810529
20
2.4850322186477531
30
0
10
4.4479296568810529
20
2.5098176133914247
30
0
10
4.4054404623865198
20
2.5542381861078449
30
0
0
LINE
5
337
100
AcDbEntity
8
0
100
AcDbLine
10
4.4054404623865198
20
2.5542381861078449
30
0
11
4.3870927447409196
21
2.5732296339170193
31
0
0
SPLINE
5
338
100
AcDbEntity
8
0
100
AcDbSpline
70
0
71
2
72
6
73
3
74
0
42
0.000000001
43
0.0000000001
44
0.0000000001
40
0
40
0
40
0
40
1
40
1
40
1
10
4.3870927447409196
20
2.5732296339170193
30
0
10
4.3468566996844791
20
2.6153970571953473
30
0
10
4.3468566996844791
20
2.6414699122661673
30
0
0
SPLINE
5
339
100
AcDbEntity
8
0
100
AcDbSpline
70
0
71
2
72
6
73
3
74
0
42
0.000000001
43
0.0000000001
44
0.0000000001
40
0
40
0
40
0
40
1
40
1
40
1
10
4.3468566996844791
20
2.6414699122661673
30
0
10
4.3468566996844791
20
2.6788090777209415
30
0
10
4.3790454606371654
20
2.7042382026281873
30
0
0
SPLINE
5
340
100
AcDbEntity
8
0
100
AcDbSpline
70
0
71
2
72
6
73
3
74
0
42
0.000000001
43
0.0000000001
44
0.0000000001
40
0
40
0
40
0
40
1
40
1
40
1
10
4.3790454606371654
20
2.7042382026281873
30
0
10
4.4115563682683865
20
2.7296673275354331
30
0
10
4.4588740083176379
20
2.7296673275354331
30
0
0
SPLINE
5
341
100
AcDbEntity
8
0
100
AcDbSpline
70
0
71
2
72
6
73
3
74
0
42
0.000000001
43
0.0000000001
44
0.0000000001
40
0
40
0
40
0
40
1
40
1
40
1
10
4.4588740083176379
20
2.7296673275354331
30
0
10
4.4846247167099236
20
2.7296673275354331
30
0
10
4.515204621581586
20
2.7200108118883257
30
0
0
LINE
5
342
100
AcDbEntity
8
0
100
AcDbLine
10
4.515204621581586
20
2.7200108118883257
30
0
11
4.476577808068499
21
2.6842810657080696
31
0
0
SPLINE
5
343
100
AcDbEntity
8
0
100
AcDbSpline
70
0
71
2
72
6
73
3
74
0
42
0.000000001
43
0.0000000001
44
0.0000000001
40
0
40
0
40
0
40
1
40
1
40
1
10
4.476577808068499
20
2.6842810657080696
30
0
10
4.4521141845410321
20
2.7026287833536693
30
0
10
4.4221785730264376
20
2.7026287833536693
30
0
0
SPLINE
5
344
100
AcDbEntity
8
0
100
AcDbSpline
70
0
71
2
72
6
73
3
74
0
42
0.000000001
43
0.0000000001
44
0.0000000001
40
0
40
0
40
0
40
1
40
1
40
1
10
4.4221785730264376
20
2.7026287833536693
30
0
10
4.3870927447409196
20
2.7026287833536693
30
0
10
4.3870927447409196
20
2.673336902002649
30
0
0
SPLINE
5
345
100
AcDbEntity
8
0
100
AcDbSpline
70
0
71
2
72
6
73
3
74
0
42
0.000000001
43
0.0000000001
44
0.0000000001
40
0
40
0
40
0
40
1
40
1
40
1
10
4.3870927447409196
20
2.673336902002649
30
0
10
4.3870927447409196
20
2.6524142637027519
30
0
10
4.4260413294702117
20
2.6118562596989419
30
0
0
LINE
5
346
100
AcDbEntity
8
0
100
AcDbLine
10
4.4260413294702117
20
2.6118562596989419
30
0
11
4.4459982786591654
21
2.5906116624516757
31
0
0
SPLINE
5
347
100
AcDbEntity
8
0
100
AcDbSpline
70
0
71
2
72
6
73
3
74
0
42
0.000000001
43
0.0000000001
44
0.0000000001
40
0
40
0
40
0
40
1
40
1
40
1
10
4.4459982786591654
20
2.5906116624516757
30
0
10
4.4904188513755852
20
2.544259711513368
30
0
10
4.4904188513755852
20
2.5159335192732915
30
0
0
SPLINE
5
348
100
AcDbEntity
8
0
100
AcDbSpline
70
0
71
2
72
6
73
3
74
0
42
0.000000001
43
0.0000000001
44
0.0000000001
40
0
40
0
40
0
40
1
40
1
40
1
10
4.4904188513755852
20
2.5159335192732915
30
0
10
4.4904188513755852
20
2.4753755152694814
30
0
10
4.4514706421086228
20
2.4441524434277384
30
0
0
SPLINE
5
349
100
AcDbEntity
8
0
100
AcDbSpline
70
0
71
2
72
6
73
3
74
0
42
0.000000001
43
0.0000000001
44
0.0000000001
40
0
40
0
40
0
40
1
40
1
40
1
10
4.4514706421086228
20
2.4441524434277384
30
0
10
4.4125220573793298
20
2.4132511428022001
30
0
10
4.3616638075648382
20
2.4132511428022001
30
0
0
SPLINE
5
350
100
AcDbEntity
8
0
100
AcDbSpline
70
0
71
2
72
6
73
3
74
0
42
0.000000001
43
0.0000000001
44
0.0000000001
40
0
40
0
40
0
40
1
40
1
40
1
10
4.3616638075648382
20
2.4132511428022001
30
0
10
4.3256119147060481
20
2.4132511428022001
30
0
10
4.2940670716481
20
2.4306329836056917
30
0
0
LINE
5
351
100
AcDbEntity
8
0
100
AcDbLine
10
4.7637524234028366
20
2.430311212389487
30
0
11
4.8084951427977911
21
2.477628852438738
31
0
0
SPLINE
5
352
100
AcDbEntity
8
0
100
AcDbSpline
70
0
71
2
72
6
73
3
74
0
42
0.000000001
43
0.0000000001
44
0.0000000001
40
0
40
0
40
0
40
1
40
1
40
1
10
4.8084951427977911
20
2.477628852438738
30
0
10
4.8249114822215038
20
2.4715129465568713
30
0
10
4.8542031758413593
20
2.466684501002153
30
0
0
SPLINE
5
353
100
AcDbEntity
8
0
100
AcDbSpline
70
0
71
2
72
6
73
3
74
0
42
0.000000001
43
0.0000000001
44
0.0000000001
40
0
40
0
40
0
40
1
40
1
40
1
10
4.8542031758413593
20
2.466684501002153
30
0
10
4.8780228814740871
20
2.4811694622039786
30
0
10
4.8867137080102507
20
2.5033799362933533
30
0
0
SPLINE
5
354
100
AcDbEntity
8
0
100
AcDbSpline
70
0
71
2
72
6
73
3
74
0
42
0.000000001
43
0.0000000001
44
0.0000000001
40
0
40
0
40
0
40
1
40
1
40
1
10
4.8867137080102507
20
2.5033799362933533
30
0
10
4.895404910008744
20
2.5259119938677683
30
0
10
4.9028082762177592
20
2.591577351562619
30
0
0
LINE
5
355
100
AcDbEntity
8
0
100
AcDbLine
10
4.9028082762177592
20
2.591577351562619
30
0
11
4.9295250491833178
21
2.8313840148955811
31
0
0
SPLINE
5
356
100
AcDbEntity
8
0
100
AcDbSpline
70
0
71
2
72
6
73
3
74
0
42
0.000000001
43
0.0000000001
44
0.0000000001
40
0
40
0
40
0
40
1
40
1
40
1
10
4.9295250491833178
20
2.8313840148955811
30
0
10
4.7837097480541191
20
2.8143241330394586
30
0
10
4.7837097480541191
20
2.7261265300390281
30
0
0
SPLINE
5
357
100
AcDbEntity
8
0
100
AcDbSpline
70
0
71
2
72
6
73
3
74
0
42
0.000000001
43
0.0000000001
44
0.0000000001
40
0
40
0
40
0
40
1
40
1
40
1
10
4.7837097480541191
20
2.7261265300390281
30
0
10
4.7837097480541191
20
2.6997317160208385
30
0
10
4.7978725625774112
20
2.6710837525645568
30
0
0
LINE
5
358
100
AcDbEntity
8
0
100
AcDbLine
10
4.7978725625774112
20
2.6710837525645568
30
0
11
4.7457268524357712
21
2.6221566932407883
31
0
0
SPLINE
5
359
100
AcDbEntity
8
0
100
AcDbSpline
70
0
71
2
72
6
73
3
74
0
42
0.000000001
43
0.0000000001
44
0.0000000001
40
0
40
0
40
0
40
1
40
1
40
1
10
4.7457268524357712
20
2.6221566932407883
30
0
10
4.7386452574429603
20
2.6379291147697619
30
0
10
4.7386452574429603
20
2.6688304153953002
30
0
0
SPLINE
5
360
100
AcDbEntity
8
0
100
AcDbSpline
70
0
71
2
72
6
73
3
74
0
42
0.000000001
43
0.0000000001
44
0.0000000001
40
0
40
0
40
0
40
1
40
1
40
1
10
4.7386452574429603
20
2.6688304153953002
30
0
10
4.7386452574429603
20
2.7653970737156897
30
0
10
4.8136453595687136
20
2.8162553235301813
30
0
0
SPLINE
5
361
100
AcDbEntity
8
0
100
AcDbSpline
70
0
71
2
72
6
73
3
74
0
42
0.000000001
43
0.0000000001
44
0.0000000001
40
0
40
0
40
0
40
1
40
1
40
1
10
4.8136453595687136
20
2.8162553235301813
30
0
10
4.8889672329106721
20
2.8674356261576248
30
0
10
5.0305980063798916
20
2.8674356261576248
30
0
0
SPLINE
5
362
100
AcDbEntity
8
0
100
AcDbSpline
70
0
71
2
72
6
73
3
74
0
42
0.000000001
43
0.0000000001
44
0.0000000001
40
0
40
0
40
0
40
1
40
1
40
1
10
5.0305980063798916
20
2.8674356261576248
30
0
10
5.2642891392933153
20
2.8674356261576248
30
0
10
5.2642891392933153
20
2.7048819327917615
30
0
0
SPLINE
5
363
100
AcDbEntity
8
0
100
AcDbSpline
70
0
71
2
72
6
73
3
74
0
42
0.000000001
43
0.0000000001
44
0.0000000001
40
0
40
0
40
0
40
1
40
1
40
1
10
5.2642891392933153
20
2.7048819327917615
30
0
10
5.2642891392933153
20
2.6076717320389626
30
0
10
5.1986237815984646
20
2.5255902226515632
30
0
0
SPLINE
5
364
100
AcDbEntity
8
0
100
AcDbSpline
70
0
71
2
72
6
73
3
74
0
42
0.000000001
43
0.0000000001
44
0.0000000001
40
0
40
0
40
0
40
1
40
1
40
1
10
5.1986237815984646
20
2.5255902226515632
30
0
10
5.1113918677089778
20
2.4171137115148098
30
0
10
4.9327438877323537
20
2.4171137115148098
30
0
0
SPLINE
5
365
100
AcDbEntity
8
0
100
AcDbSpline
70
0
71
2
72
6
73
3
74
0
42
0.000000001
43
0.0000000001
44
0.0000000001
40
0
40
0
40
0
40
1
40
1
40
1
10
4.9327438877323537
20
2.4171137115148098
30
0
10
4.8577437856066004
20
2.4171137115148098
30
0
10
4.7637524234028366
20
2.430311212389487
30
0
0
LINE
5
366
100
AcDbEntity
8
0
100
AcDbLine
10
4.9823146772196969
20
2.8387875688357611
30
0
11
4.9552761330379331
21
2.5970493395497476
31
0
0
LINE
5
367
100
AcDbEntity
8
0
100
AcDbLine
10
4.9552761330379331
20
2.5970493395497471
30
0
11
4.9520572944888972
21
2.5667919568189479
31
0
0
SPLINE
5
368
100
AcDbEntity
8
0
100
AcDbSpline
70
0
71
2
72
6
73
3
74
0
42
0.000000001
43
0.0000000001
44
0.0000000001
40
0
40
0
40
0
40
1
40
1
40
1
10
4.9520572944888972
20
2.5667919568189479
30
0
10
4.9472288489341789
20
2.5246245335406199
30
0
10
4.9340313480595022
20
2.505311126784076
30
0
0
SPLINE
5
369
100
AcDbEntity
8
0
100
AcDbSpline
70
0
71
2
72
6
73
3
74
0
42
0.000000001
43
0.0000000001
44
0.0000000001
40
0
40
0
40
0
40
1
40
1
40
1
10
4.9340313480595022
20
2.505311126784076
30
0
10
4.9208342226471542
20
2.4859979077586969
30
0
10
4.8822074091340664
20
2.4634656624531175
30
0
0
SPLINE
5
370
100
AcDbEntity
8
0
100
AcDbSpline
70
0
71
2
72
6
73
3
74
0
42
0.000000001
43
0.0000000001
44
0.0000000001
40
0
40
0
40
0
40
1
40
1
40
1
10
4.8822074091340664
20
2.4634656624531175
30
0
10
4.9527008369213066
20
2.4538089590748453
30
0
10
5.0138598957399738
20
2.4538089590748453
30
0
0
SPLINE
5
371
100
AcDbEntity
8
0
100
AcDbSpline
70
0
71
2
72
6
73
3
74
0
42
0.000000001
43
0.0000000001
44
0.0000000001
40
0
40
0
40
0
40
1
40
1
40
1
10
5.0138598957399738
20
2.4538089590748453
30
0
10
5.0708340514363321
20
2.4538089590748453
30
0
10
5.10173535206187
20
2.4695815683349842
30
0
0
SPLINE
5
372
100
AcDbEntity
8
0
100
AcDbSpline
70
0
71
2
72
6
73
3
74
0
42
0.000000001
43
0.0000000001
44
0.0000000001
40
0
40
0
40
0
40
1
40
1
40
1
10
5.10173535206187
20
2.4695815683349842
30
0
10
5.132958423903613
20
2.4856759488113274
30
0
10
5.1625722642020033
20
2.5300965215277476
30
0
0
SPLINE
5
373
100
AcDbEntity
8
0
100
AcDbSpline
70
0
71
2
72
6
73
3
74
0
42
0.000000001
43
0.0000000001
44
0.0000000001
40
0
40
0
40
0
40
1
40
1
40
1
10
5.1625722642020033
20
2.5300965215277476
30
0
10
5.2040957695855923
20
2.5918991227788242
30
0
10
5.2040957695855923
20
2.6688304153953002
30
0
0
SPLINE
5
374
100
AcDbEntity
8
0
100
AcDbSpline
70
0
71
2
72
6
73
3
74
0
42
0.000000001
43
0.0000000001
44
0.0000000001
40
0
40
0
40
0
40
1
40
1
40
1
10
5.2040957695855923
20
2.6688304153953002
30
0
10
5.2040957695855923
20
2.8387875688357611
30
0
10
4.992936881977748
20
2.8387875688357611
30
0
0
LINE
5
375
100
AcDbEntity
8
0
100
AcDbLine
10
4.992936881977748
20
2.8387875688357611
30
0
11
4.9823146772196969
21
2.8387875688357611
31
0
0
SPLINE
5
376
100
AcDbEntity
8
0
100
AcDbSpline
70
0
71
2
72
6
73
3
74
0
42
0.000000001
43
0.0000000001
44
0.0000000001
40
0
40
0
40
0
40
1
40
1
40
1
10
5.4909234577276633
20
2.549409928284291
30
0
10
5.4545501691149969
20
2.4895387052551019
30
0
10
5.4107731388309865
20
2.451233850689384
30
0
0
SPLINE
5
377
100
AcDbEntity
8
0
100
AcDbSpline
70
0
71
2
72
6
73
3
74
0
42
0.000000001
43
0.0000000001
44
0.0000000001
40
0
40
0
40
0
40
1
40
1
40
1
10
5.4107731388309865
20
2.451233850689384
30
0
10
5.3673182552255101
20
2.4132511428022001
30
0
10
5.3351294942728229
20
2.4132511428022001
30
0
0
SPLINE
5
378
100
AcDbEntity
8
0
100
AcDbSpline
70
0
71
2
72
6
73
3
74
0
42
0.000000001
43
0.0000000001
44
0.0000000001
40
0
40
0
40
0
40
1
40
1
40
1
10
5.3351294942728229
20
2.4132511428022001
30
0
10
5.2910306927726083
20
2.4132511428022001
30
0
10
5.2910306927726083
20
2.4843884884841789
30
0
0
SPLINE
5
379
100
AcDbEntity
8
0
100
AcDbSpline
70
0
71
2
72
6
73
3
74
0
42
0.000000001
43
0.0000000001
44
0.0000000001
40
0
40
0
40
0
40
1
40
1
40
1
10
5.2910306927726083
20
2.4843884884841789
30
0
10
5.2910306927726083
20
2.5822426071317168
30
0
10
5.3550864434617766
20
2.6537017240299003
30
0
0
SPLINE
5
380
100
AcDbEntity
8
0
100
AcDbSpline
70
0
71
2
72
6
73
3
74
0
42
0.000000001
43
0.0000000001
44
0.0000000001
40
0
40
0
40
0
40
1
40
1
40
1
10
5.3550864434617766
20
2.6537017240299003
30
0
10
5.4194643408294789
20
2.7254827998754538
30
0
10
5.507339797151376
20
2.7254827998754538
30
0
0
SPLINE
5
381
100
AcDbEntity
8
0
100
AcDbSpline
70
0
71
2
72
6
73
3
74
0
42
0.000000001
43
0.0000000001
44
0.0000000001
40
0
40
0
40
0
40
1
40
1
40
1
10
5.507339797151376
20
2.7254827998754538
30
0
10
5.5408160184312107
20
2.7254827998754538
30
0
10
5.5643139528477343
20
2.7171137445554949
30
0
0
SPLINE
5
382
100
AcDbEntity
8
0
100
AcDbSpline
70
0
71
2
72
6
73
3
74
0
42
0.000000001
43
0.0000000001
44
0.0000000001
40
0
40
0
40
0
40
1
40
1
40
1
10
5.5643139528477343
20
2.7171137445554949
30
0
10
5.5627047213043808
20
2.7113197976209977
30
0
10
5.5623825746258468
20
2.7100321495626845
30
0
0
LINE
5
383
100
AcDbEntity
8
0
100
AcDbLine
10
5.5623825746258468
20
2.7100321495626845
30
0
11
5.5585198181820719
21
2.6929720799753976
31
0
0
SPLINE
5
384
100
AcDbEntity
8
0
100
AcDbSpline
70
0
71
2
72
6
73
3
74
0
42
0.000000001
43
0.0000000001
44
0.0000000001
40
0
40
0
40
0
40
1
40
1
40
1
10
5.5585198181820719
20
2.6929720799753976
30
0
10
5.5546574372006265
20
2.6752682802245364
30
0
10
5.5543352905220926
20
2.6723712128917052
30
0
0
LINE
5
385
100
AcDbEntity
8
0
100
AcDbLine
10
5.5543352905220926
20
2.6723712128917052
30
0
11
5.5337344234384007
21
2.5300965215277476
31
0
0
LINE
5
386
100
AcDbEntity
8
0
100
AcDbLine
10
5.5337344234384007
20
2.5300965215277476
30
0
11
5.5308377315678987
21
2.5094956544440552
31
0
0
SPLINE
5
387
100
AcDbEntity
8
0
100
AcDbSpline
70
0
71
2
72
6
73
3
74
0
42
0.000000001
43
0.0000000001
44
0.0000000001
40
0
40
0
40
0
40
1
40
1
40
1
10
5.5308377315678987
20
2.5094956544440552
30
0
10
5.5266532039079195
20
2.4789163127658864
30
0
10
5.5266532039079195
20
2.4686158792240405
30
0
0
SPLINE
5
388
100
AcDbEntity
8
0
100
AcDbSpline
70
0
71
2
72
6
73
3
74
0
42
0.000000001
43
0.0000000001
44
0.0000000001
40
0
40
0
40
0
40
1
40
1
40
1
10
5.5266532039079195
20
2.4686158792240405
30
0
10
5.5266532039079195
20
2.4547746481857891
30
0
10
5.534700112549344
20
2.4547746481857891
30
0
0
SPLINE
5
389
100
AcDbEntity
8
0
100
AcDbSpline
70
0
71
2
72
6
73
3
74
0
42
0.000000001
43
0.0000000001
44
0.0000000001
40
0
40
0
40
0
40
1
40
1
40
1
10
5.534700112549344
20
2.4547746481857891
30
0
10
5.5617390321934375
20
2.4547746481857891
30
0
10
5.5900650367023497
20
2.5152897891097172
30
0
0
SPLINE
5
390
100
AcDbEntity
8
0
100
AcDbSpline
70
0
71
2
72
6
73
3
74
0
42
0.000000001
43
0.0000000001
44
0.0000000001
40
0
40
0
40
0
40
1
40
1
40
1
10
5.5900650367023497
20
2.5152897891097172
30
0
10
5.5987558632385124
20
2.5101395723387943
30
0
10
5.5987558632385124
20
2.5049893555678713
30
0
0
SPLINE
5
391
100
AcDbEntity
8
0
100
AcDbSpline
70
0
71
2
72
6
73
3
74
0
42
0.000000001
43
0.0000000001
44
0.0000000001
40
0
40
0
40
0
40
1
40
1
40
1
10
5.5987558632385124
20
2.5049893555678713
30
0
10
5.5987558632385124
20
2.4937232329150816
30
0
10
5.5710737766243392
20
2.4596030937405073
30
0
0
SPLINE
5
392
100
AcDbEntity
8
0
100
AcDbSpline
70
0
71
2
72
6
73
3
74
0
42
0.000000001
43
0.0000000001
44
0.0000000001
40
0
40
0
40
0
40
1
40
1
40
1
10
5.5710737766243392
20
2.4596030937405073
30
0
10
5.5334126522221956
20
2.4132511428022001
30
0
10
5.5012238912695093
20
2.4132511428022001
30
0
0
SPLINE
5
393
100
AcDbEntity
8
0
100
AcDbSpline
70
0
71
2
72
6
73
3
74
0
42
0.000000001
43
0.0000000001
44
0.0000000001
40
0
40
0
40
0
40
1
40
1
40
1
10
5.5012238912695093
20
2.4132511428022001
30
0
10
5.4777259568529857
20
2.4132511428022001
30
0
10
5.4777259568529857
20
2.4447961735913126
30
0
0
SPLINE
5
394
100
AcDbEntity
8
0
100
AcDbSpline
70
0
71
2
72
6
73
3
74
0
42
0.000000001
43
0.0000000001
44
0.0000000001
40
0
40
0
40
0
40
1
40
1
40
1
10
5.4777259568529857
20
2.4447961735913126
30
0
10
5.4777259568529857
20
2.4544528769695844
30
0
10
5.4799791062910783
20
2.4715129465568713
30
0
0
LINE
5
395
100
AcDbEntity
8
0
100
AcDbLine
10
5.4799791062910783
20
2.4715129465568713
30
0
11
5.4831979448401134
21
2.4972640304114866
31
0
0
LINE
5
396
100
AcDbEntity
8
0
100
AcDbLine
10
5.4831979448401134
20
2.4972640304114866
30
0
11
5.4873824725000935
21
2.5255902226515632
31
0
0
LINE
5
397
100
AcDbEntity
8
0
100
AcDbLine
10
5.4873824725000935
20
2.5255902226515632
30
0
11
5.4909234577276633
21
2.549409928284291
31
0
0
SPLINE
5
398
100
AcDbEntity
8
0
100
AcDbSpline
70
0
71
2
72
6
73
3
74
0
42
0.000000001
43
0.0000000001
44
0.0000000001
40
0
40
0
40
0
40
1
40
1
40
1
10
5.5092711753732635
20
2.6771996584464235
30
0
10
5.4799791062910783
20
2.6936159978701366
30
0
10
5.4500434947764838
20
2.6936159978701366
30
0
0
SPLINE
5
399
100
AcDbEntity
8
0
100
AcDbSpline
70
0
71
2
72
6
73
3
74
0
42
0.000000001
43
0.0000000001
44
0.0000000001
40
0
40
0
40
0
40
1
40
1
40
1
10
5.4500434947764838
20
2.6936159978701366
30
0
10
5.4049793796276537
20
2.6936159978701366
30
0
10
5.3743998502183201
20
2.6385730326645009
30
0
0
SPLINE
5
400
100
AcDbEntity
8
0
100
AcDbSpline
70
0
71
2
72
6
73
3
74
0
42
0.000000001
43
0.0000000001
44
0.0000000001
40
0
40
0
40
0
40
1
40
1
40
1
10
5.3743998502183201
20
2.6385730326645009
30
0
10
5.3438203208089865
20
2.5835300674588653
30
0
10
5.3438203208089865
20
2.50209228823504
30
0
0
SPLINE
5
401
100
AcDbEntity
8
0
100
AcDbSpline
70
0
71
2
72
6
73
3
74
0
42
0.000000001
43
0.0000000001
44
0.0000000001
40
0
40
0
40
0
40
1
40
1
40
1
10
5.3438203208089865
20
2.50209228823504
30
0
10
5.3438203208089865
20
2.4602468239040816
30
0
10
5.3686057155526585
20
2.4602468239040816
30
0
0
SPLINE
5
402
100
AcDbEntity
8
0
100
AcDbSpline
70
0
71
2
72
6
73
3
74
0
42
0.000000001
43
0.0000000001
44
0.0000000001
40
0
40
0
40
0
40
1
40
1
40
1
10
5.3686057155526585
20
2.4602468239040816
30
0
10
5.3972538667401047
20
2.4602468239040816
30
0
10
5.4378116830127503
20
2.5040236664569275
30
0
0
SPLINE
5
403
100
AcDbEntity
8
0
100
AcDbSpline
70
0
71
2
72
6
73
3
74
0
42
0.000000001
43
0.0000000001
44
0.0000000001
40
0
40
0
40
0
40
1
40
1
40
1
10
5.4378116830127503
20
2.5040236664569275
30
0
10
5.492532689271016
20
2.5629292003751729
30
0
10
5.5041209586023401
20
2.6424356013771106
30
0
0
LINE
5
404
100
AcDbEntity
8
0
100
AcDbLine
10
5.5041209586023401
20
2.6424356013771106
30
0
11
5.5092711753732635
21
2.6771996584464235
31
0
0
SPLINE
5
405
100
AcDbEntity
8
0
100
AcDbSpline
70
0
71
2
72
6
73
3
74
0
42
0.000000001
43
0.0000000001
44
0.0000000001
40
0
40
0
40
0
40
1
40
1
40
1
10
5.8659487488701645
20
2.5497316995004962
30
0
10
5.8334378412389434
20
2.4905043943660456
30
0
10
5.7977080950586872
20
2.4518777685841227
30
0
0
SPLINE
5
406
100
AcDbEntity
8
0
100
AcDbSpline
70
0
71
2
72
6
73
3
74
0
42
0.000000001
43
0.0000000001
44
0.0000000001
40
0
40
0
40
0
40
1
40
1
40
1
10
5.7977080950586872
20
2.4518777685841227
30
0
10
5.7623004955569641
20
2.4132511428022001
30
0
10
5.7397682502513847
20
2.4132511428022001
30
0
0
SPLINE
5
407
100
AcDbEntity
8
0
100
AcDbSpline
70
0
71
2
72
6
73
3
74
0
42
0.000000001
43
0.0000000001
44
0.0000000001
40
0
40
0
40
0
40
1
40
1
40
1
10
5.7397682502513847
20
2.4132511428022001
30
0
10
5.7088669496258468
20
2.4132511428022001
30
0
10
5.7056481110768109
20
2.4782725826023122
30
0
0
LINE
5
408
100
AcDbEntity
8
0
100
AcDbLine
10
5.7056481110768109
20
2.4782725826023122
30
0
11
5.7033949616387192
21
2.5230151142661019
31
0
0
LINE
5
409
100
AcDbEntity
8
0
100
AcDbLine
10
5.7033949616387192
20
2.5230151142661019
30
0
11
5.6992104339787391
21
2.614109409137034
31
0
0
LINE
5
410
100
AcDbEntity
8
0
100
AcDbLine
10
5.6992104339787391
20
2.614109409137034
30
0
11
5.6982447448677958
21
2.6401824519390189
31
0
0
SPLINE
5
411
100
AcDbEntity
8
0
100
AcDbSpline
70
0
71
2
72
6
73
3
74
0
42
0.000000001
43
0.0000000001
44
0.0000000001
40
0
40
0
40
0
40
1
40
1
40
1
10
5.6982447448677958
20
2.6401824519390189
30
0
10
5.695347677534965
20
2.6920063908644538
30
0
10
5.6792534847897862
20
2.6920063908644538
30
0
0
SPLINE
5
412
100
AcDbEntity
8
0
100
AcDbSpline
70
0
71
2
72
6
73
3
74
0
42
0.000000001
43
0.0000000001
44
0.0000000001
40
0
40
0
40
0
40
1
40
1
40
1
10
5.6792534847897862
20
2.6920063908644538
30
0
10
5.6541459433675803
20
2.6920063908644538
30
0
10
5.6303262377348524
20
2.6443669795989981
30
0
0
SPLINE
5
413
100
AcDbEntity
8
0
100
AcDbSpline
70
0
71
2
72
6
73
3
74
0
42
0.000000001
43
0.0000000001
44
0.0000000001
40
0
40
0
40
0
40
1
40
1
40
1
10
5.6303262377348524
20
2.6443669795989981
30
0
10
5.6219571824148939
20
2.6501609265334953
30
0
10
5.6219571824148939
20
2.6569205625789363
30
0
0
SPLINE
5
414
100
AcDbEntity
8
0
100
AcDbSpline
70
0
71
2
72
6
73
3
74
0
42
0.000000001
43
0.0000000001
44
0.0000000001
40
0
40
0
40
0
40
1
40
1
40
1
10
5.6219571824148939
20
2.6569205625789363
30
0
10
5.6219571824148939
20
2.6743025911135927
30
0
10
5.6531802542566369
20
2.7019850531900951
30
0
0
SPLINE
5
415
100
AcDbEntity
8
0
100
AcDbSpline
70
0
71
2
72
6
73
3
74
0
42
0.000000001
43
0.0000000001
44
0.0000000001
40
0
40
0
40
0
40
1
40
1
40
1
10
5.6531802542566369
20
2.7019850531900951
30
0
10
5.6844037015607096
20
2.7296673275354331
30
0
10
5.7040388795334573
20
2.7296673275354331
30
0
0
SPLINE
5
416
100
AcDbEntity
8
0
100
AcDbSpline
70
0
71
2
72
6
73
3
74
0
42
0.000000001
43
0.0000000001
44
0.0000000001
40
0
40
0
40
0
40
1
40
1
40
1
10
5.7040388795334573
20
2.7296673275354331
30
0
10
5.7243175999386162
20
2.7296673275354331
30
0
10
5.7326866552585747
20
2.7113197976209977
30
0
0
SPLINE
5
417
100
AcDbEntity
8
0
100
AcDbSpline
70
0
71
2
72
6
73
3
74
0
42
0.000000001
43
0.0000000001
44
0.0000000001
40
0
40
0
40
0
40
1
40
1
40
1
10
5.7326866552585747
20
2.7113197976209977
30
0
10
5.7410560860408628
20
2.6932940389227671
30
0
10
5.7436310066951597
20
2.6443669795989981
30
0
0
LINE
5
418
100
AcDbEntity
8
0
100
AcDbLine
10
5.7436310066951597
20
2.6443669795989981
30
0
11
5.7494251413608213
21
2.5317061285334299
31
0
0
SPLINE
5
419
100
AcDbEntity
8
0
100
AcDbSpline
70
0
71
2
72
6
73
3
74
0
42
0.000000001
43
0.0000000001
44
0.0000000001
40
0
40
0
40
0
40
1
40
1
40
1
10
5.7494251413608213
20
2.5317061285334299
30
0
10
5.7526439799098572
20
2.467328418896892
30
0
10
5.7700260084445141
20
2.467328418896892
30
0
0
SPLINE
5
420
100
AcDbEntity
8
0
100
AcDbSpline
70
0
71
2
72
6
73
3
74
0
42
0.000000001
43
0.0000000001
44
0.0000000001
40
0
40
0
40
0
40
1
40
1
40
1
10
5.7700260084445141
20
2.467328418896892
30
0
10
5.7960988635153337
20
2.467328418896892
30
0
10
5.8347253015660918
20
2.5268776829787116
30
0
0
SPLINE
5
421
100
AcDbEntity
8
0
100
AcDbSpline
70
0
71
2
72
6
73
3
74
0
42
0.000000001
43
0.0000000001
44
0.0000000001
40
0
40
0
40
0
40
1
40
1
40
1
10
5.8347253015660918
20
2.5268776829787116
30
0
10
5.8733521150791796
20
2.5867489060079012
30
0
10
5.884296091053435
20
2.6443669795989981
30
0
0
LINE
5
422
100
AcDbEntity
8
0
100
AcDbLine
10
5.884296091053435
20
2.6443669795989981
30
0
11
5.8968500494957024
21
2.7100321495626845
31
0
0
LINE
5
423
100
AcDbEntity
8
0
100
AcDbLine
10
5.8968500494957024
20
2.7100321495626845
30
0
11
5.9541459764082658
21
2.7299892864828026
31
0
0
SPLINE
5
424
100
AcDbEntity
8
0
100
AcDbSpline
70
0
71
2
72
6
73
3
74
0
42
0.000000001
43
0.0000000001
44
0.0000000001
40
0
40
0
40
0
40
1
40
1
40
1
10
5.9541459764082658
20
2.7299892864828026
30
0
10
5.9432020004340096
20
2.701663094242726
30
0
10
5.9316137311026864
20
2.6443669795989981
30
0
0
LINE
5
425
100
AcDbEntity
8
0
100
AcDbLine
10
5.9316137311026864
20
2.6443669795989981
30
0
11
5.8884806187134142
21
2.4283798341675995
31
0
0
SPLINE
5
426
100
AcDbEntity
8
0
100
AcDbSpline
70
0
71
2
72
6
73
3
74
0
42
0.000000001
43
0.0000000001
44
0.0000000001
40
0
40
0
40
0
40
1
40
1
40
1
10
5.8884806187134142
20
2.4283798341675995
30
0
10
5.8630516815373328
20
2.3015557931164108
30
0
10
5.8099399068224207
20
2.2410408399236474
30
0
0
SPLINE
5
427
100
AcDbEntity
8
0
100
AcDbSpline
70
0
71
2
72
6
73
3
74
0
42
0.000000001
43
0.0000000001
44
0.0000000001
40
0
40
0
40
0
40
1
40
1
40
1
10
5.8099399068224207
20
2.2410408399236474
30
0
10
5.7304335058204829
20
2.1509120464324942
30
0
10
5.625819938858668
20
2.1509120464324942
30
0
0
SPLINE
5
428
100
AcDbEntity
8
0
100
AcDbSpline
70
0
71
2
72
6
73
3
74
0
42
0.000000001
43
0.0000000001
44
0.0000000001
40
0
40
0
40
0
40
1
40
1
40
1
10
5.625819938858668
20
2.1509120464324942
30
0
10
5.6039316114478277
20
2.1509120464324942
30
0
10
5.57657092058753
20
2.160568749810766
30
0
0
LINE
5
429
100
AcDbEntity
8
0
100
AcDbLine
10
5.57657092058753
20
2.160568749810766
30
0
11
5.6161630477492315
21
2.2040236334162424
31
0
0
SPLINE
5
430
100
AcDbEntity
8
0
100
AcDbSpline
70
0
71
2
72
6
73
3
74
0
42
0.000000001
43
0.0000000001
44
0.0000000001
40
0
40
0
40
0
40
1
40
1
40
1
10
5.6161630477492315
20
2.2040236334162424
30
0
10
5.6464208059423608
20
2.1905043613253605
30
0
10
5.6792534847897862
20
2.1905043613253605
30
0
0
SPLINE
5
431
100
AcDbEntity
8
0
100
AcDbSpline
70
0
71
2
72
6
73
3
74
0
42
0.000000001
43
0.0000000001
44
0.0000000001
40
0
40
0
40
0
40
1
40
1
40
1
10
5.6792534847897862
20
2.1905043613253605
30
0
10
5.7462059273494566
20
2.1905043613253605
30
0
10
5.779682524091621
20
2.233959244930837
30
0
0
SPLINE
5
432
100
AcDbEntity
8
0
100
AcDbSpline
70
0
71
2
72
6
73
3
74
0
42
0.000000001
43
0.0000000001
44
0.0000000001
40
0
40
0
40
0
40
1
40
1
40
1
10
5.779682524091621
20
2.233959244930837
30
0
10
5.8131587453714557
20
2.2774141285363134
30
0
10
5.8356909906770351
20
2.393294005882082
30
0
0
LINE
5
433
100
AcDbEntity
8
0
100
AcDbLine
10
5.8356909906770351
20
2.393294005882082
30
0
11
5.8659487488701645
21
2.5497316995004962
31
0
0
LINE
5
434
100
AcDbEntity
8
0
100
AcDbLine
10
3.0648229295813252
20
1.3783799062563673
30
0
11
3.1047370156903966
21
1.4176502622018645
31
0
0
SPLINE
5
435
100
AcDbEntity
8
0
100
AcDbSpline
70
0
71
2
72
6
73
3
74
0
42
0.000000001
43
0.0000000001
44
0.0000000001
40
0
40
0
40
0
40
1
40
1
40
1
10
3.1047370156903966
20
1.4176502622018645
30
0
10
3.191968741848719
20
1.438573088232926
30
0
10
3.246046017943411
20
1.488465648936474
30
0
0
SPLINE
5
436
100
AcDbEntity
8
0
100
AcDbSpline
70
0
71
2
72
6
73
3
74
0
42
0.000000001
43
0.0000000001
44
0.0000000001
40
0
40
0
40
0
40
1
40
1
40
1
10
3.246046017943411
20
1.488465648936474
30
0
10
3.3001232940381025
20
1.5383583973711865
30
0
10
3.3001232940381025
20
1.5979078491841709
30
0
0
SPLINE
5
437
100
AcDbEntity
8
0
100
AcDbSpline
70
0
71
2
72
6
73
3
74
0
42
0.000000001
43
0.0000000001
44
0.0000000001
40
0
40
0
40
0
40
1
40
1
40
1
10
3.3001232940381025
20
1.5979078491841709
30
0
10
3.3001232940381025
20
1.6323499473061145
30
0
10
3.274694356862021
20
1.6548820048805293
30
0
0
SPLINE
5
438
100
AcDbEntity
8
0
100
AcDbSpline
70
0
71
2
72
6
73
3
74
0
42
0.000000001
43
0.0000000001
44
0.0000000001
40
0
40
0
40
0
40
1
40
1
40
1
10
3.274694356862021
20
1.6548820048805293
30
0
10
3.2492650442236108
20
1.6774142501861087
30
0
10
3.2103164594943192
20
1.6774142501861087
30
0
0
SPLINE
5
439
100
AcDbEntity
8
0
100
AcDbSpline
70
0
71
2
72
6
73
3
74
0
42
0.000000001
43
0.0000000001
44
0.0000000001
40
0
40
0
40
0
40
1
40
1
40
1
10
3.2103164594943192
20
1.6774142501861087
30
0
10
3.1633207783924377
20
1.6774142501861087
30
0
10
3.1195439358395913
20
1.6426503808479604
30
0
0
SPLINE
5
440
100
AcDbEntity
8
0
100
AcDbSpline
70
0
71
2
72
6
73
3
74
0
42
0.000000001
43
0.0000000001
44
0.0000000001
40
0
40
0
40
0
40
1
40
1
40
1
10
3.1195439358395913
20
1.6426503808479604
30
0
10
3.1166468685067605
20
1.6494100168934014
30
0
10
3.1166468685067605
20
1.651341207384124
30
0
0
SPLINE
5
441
100
AcDbEntity
8
0
100
AcDbSpline
70
0
71
2
72
6
73
3
74
0
42
0.000000001
43
0.0000000001
44
0.0000000001
40
0
40
0
40
0
40
1
40
1
40
1
10
3.1166468685067605
20
1.651341207384124
30
0
10
3.1166468685067605
20
1.6684014647025758
30
0
10
3.1671833471050475
20
1.6896460619498421
30
0
0
SPLINE
5
442
100
AcDbEntity
8
0
100
AcDbSpline
70
0
71
2
72
6
73
3
74
0
42
0.000000001
43
0.0000000001
44
0.0000000001
40
0
40
0
40
0
40
1
40
1
40
1
10
3.1671833471050475
20
1.6896460619498421
30
0
10
3.2177198257033344
20
1.7112124304133132
30
0
10
3.2576340995435698
20
1.7112124304133132
30
0
0
SPLINE
5
443
100
AcDbEntity
8
0
100
AcDbSpline
70
0
71
2
72
6
73
3
74
0
42
0.000000001
43
0.0000000001
44
0.0000000001
40
0
40
0
40
0
40
1
40
1
40
1
10
3.2576340995435698
20
1.7112124304133132
30
0
10
3.2972262267052712
20
1.7112124304133132
30
0
10
3.3271618382198662
20
1.6861052644534369
30
0
0
SPLINE
5
444
100
AcDbEntity
8
0
100
AcDbSpline
70
0
71
2
72
6
73
3
74
0
42
0.000000001
43
0.0000000001
44
0.0000000001
40
0
40
0
40
0
40
1
40
1
40
1
10
3.3271618382198662
20
1.6861052644534369
30
0
10
3.3570974497344608
20
1.660997910762396
30
0
10
3.3570974497344608
20
1.6278434606987655
30
0
0
SPLINE
5
445
100
AcDbEntity
8
0
100
AcDbSpline
70
0
71
2
72
6
73
3
74
0
42
0.000000001
43
0.0000000001
44
0.0000000001
40
0
40
0
40
0
40
1
40
1
40
1
10
3.3570974497344608
20
1.6278434606987655
30
0
10
3.3570974497344608
20
1.5827789700876067
30
0
10
3.3026985901547286
20
1.5216202867312689
30
0
0
SPLINE
5
446
100
AcDbEntity
8
0
100
AcDbSpline
70
0
71
2
72
6
73
3
74
0
42
0.000000001
43
0.0000000001
44
0.0000000001
40
0
40
0
40
0
40
1
40
1
40
1
10
3.3026985901547286
20
1.5216202867312689
30
0
10
3.2486211263288718
20
1.4604614156437667
30
0
10
3.1704023733852478
20
1.4176502622018645
30
0
0
LINE
5
447
100
AcDbEntity
8
0
100
AcDbLine
10
3.1704023733852478
20
1.4176502622018645
30
0
11
3.3590288279563487
21
1.4083155177709621
31
0
0
LINE
5
448
100
AcDbEntity
8
0
100
AcDbLine
10
3.3590288279563478
20
1.4083155177709621
30
0
11
3.3213680790165334
21
1.3700108509364086
31
0
0
LINE
5
449
100
AcDbEntity
8
0
100
AcDbLine
10
3.3213680790165334
20
1.3700108509364086
30
0
11
3.0648229295813247
21
1.3783799062563673
31
0
0
SPLINE
5
450
100
AcDbEntity
8
0
100
AcDbSpline
70
0
71
2
72
6
73
3
74
0
42
0.000000001
43
0.0000000001
44
0.0000000001
40
0
40
0
40
0
40
1
40
1
40
1
10
3.4517578858090254
20
1.4759120659565357
30
0
10
3.4517578858090254
20
1.5647532113893761
30
0
10
3.512916569165363
20
1.6378219352932422
30
0
0
SPLINE
5
451
100
AcDbEntity
8
0
100
AcDbSpline
70
0
71
2
72
6
73
3
74
0
42
0.000000001
43
0.0000000001
44
0.0000000001
40
0
40
0
40
0
40
1
40
1
40
1
10
3.512916569165363
20
1.6378219352932422
30
0
10
3.5740756279840302
20
1.7112124304133132
30
0
10
3.6481096655365106
20
1.7112124304133132
30
0
0
SPLINE
5
452
100
AcDbEntity
8
0
100
AcDbSpline
70
0
71
2
72
6
73
3
74
0
42
0.000000001
43
0.0000000001
44
0.0000000001
40
0
40
0
40
0
40
1
40
1
40
1
10
3.6481096655365106
20
1.7112124304133132
30
0
10
3.6873800214820078
20
1.7112124304133132
30
0
10
3.7115218737932696
20
1.6806330887351444
30
0
0
SPLINE
5
453
100
AcDbEntity
8
0
100
AcDbSpline
70
0
71
2
72
6
73
3
74
0
42
0.000000001
43
0.0000000001
44
0.0000000001
40
0
40
0
40
0
40
1
40
1
40
1
10
3.7115218737932696
20
1.6806330887351444
30
0
10
3.7356633506422026
20
1.6503755182731803
30
0
10
3.7356633506422026
20
1.6008047287858373
30
0
0
SPLINE
5
454
100
AcDbEntity
8
0
100
AcDbSpline
70
0
71
2
72
6
73
3
74
0
42
0.000000001
43
0.0000000001
44
0.0000000001
40
0
40
0
40
0
40
1
40
1
40
1
10
3.7356633506422026
20
1.6008047287858373
30
0
10
3.7356633506422026
20
1.5155043808494022
30
0
10
3.6735389781749213
20
1.4427576158929054
30
0
0
SPLINE
5
455
100
AcDbEntity
8
0
100
AcDbSpline
70
0
71
2
72
6
73
3
74
0
42
0.000000001
43
0.0000000001
44
0.0000000001
40
0
40
0
40
0
40
1
40
1
40
1
10
3.6735389781749213
20
1.4427576158929054
30
0
10
3.6117363769238446
20
1.3700108509364086
30
0
10
3.5389897996985122
20
1.3700108509364086
30
0
0
SPLINE
5
456
100
AcDbEntity
8
0
100
AcDbSpline
70
0
71
2
72
6
73
3
74
0
42
0.000000001
43
0.0000000001
44
0.0000000001
40
0
40
0
40
0
40
1
40
1
40
1
10
3.5389897996985122
20
1.3700108509364086
30
0
10
3.5010069040801639
20
1.3700108509364086
30
0
10
3.4762215093364923
20
1.3999464624510032
30
0
0
SPLINE
5
457
100
AcDbEntity
8
0
100
AcDbSpline
70
0
71
2
72
6
73
3
74
0
42
0.000000001
43
0.0000000001
44
0.0000000001
40
0
40
0
40
0
40
1
40
1
40
1
10
3.4762215093364923
20
1.3999464624510032
30
0
10
3.4517578858090254
20
1.4298820739655977
30
0
10
3.4517578858090254
20
1.4759120659565357
30
0
0
SPLINE
5
458
100
AcDbEntity
8
0
100
AcDbSpline
70
0
71
2
72
6
73
3
74
0
42
0.000000001
43
0.0000000001
44
0.0000000001
40
0
40
0
40
0
40
1
40
1
40
1
10
3.6864143323710641
20
1.5621781030039144
30
0
10
3.6864143323710641
20
1.6140022296605143
30
0
10
3.6632385446330749
20
1.6458692193969962
30
0
0
SPLINE
5
459
100
AcDbEntity
8
0
100
AcDbSpline
70
0
71
2
72
6
73
3
74
0
42
0.000000001
43
0.0000000001
44
0.0000000001
40
0
40
0
40
0
40
1
40
1
40
1
10
3.6632385446330749
20
1.6458692193969962
30
0
10
3.6400627568950861
20
1.6780579803496829
30
0
10
3.6027234037091467
20
1.6780579803496829
30
0
0
SPLINE
5
460
100
AcDbEntity
8
0
100
AcDbSpline
70
0
71
2
72
6
73
3
74
0
42
0.000000001
43
0.0000000001
44
0.0000000001
40
0
40
0
40
0
40
1
40
1
40
1
10
3.6027234037091467
20
1.6780579803496829
30
0
10
3.5605563558931483
20
1.6780579803496829
30
0
10
3.5306207443785538
20
1.6317060294113754
30
0
0
SPLINE
5
461
100
AcDbEntity
8
0
100
AcDbSpline
70
0
71
2
72
6
73
3
74
0
42
0.000000001
43
0.0000000001
44
0.0000000001
40
0
40
0
40
0
40
1
40
1
40
1
10
3.5306207443785538
20
1.6317060294113754
30
0
10
3.5010069040801639
20
1.5856760374204375
30
0
10
3.5010069040801639
20
1.5203326386729559
30
0
0
SPLINE
5
462
100
AcDbEntity
8
0
100
AcDbSpline
70
0
71
2
72
6
73
3
74
0
42
0.000000001
43
0.0000000001
44
0.0000000001
40
0
40
0
40
0
40
1
40
1
40
1
10
3.5010069040801639
20
1.5203326386729559
30
0
10
3.5010069040801639
20
1.467543010636577
30
0
10
3.523860920601948
20
1.4353542496838902
30
0
0
SPLINE
5
463
100
AcDbEntity
8
0
100
AcDbSpline
70
0
71
2
72
6
73
3
74
0
42
0.000000001
43
0.0000000001
44
0.0000000001
40
0
40
0
40
0
40
1
40
1
40
1
10
3.523860920601948
20
1.4353542496838902
30
0
10
3.5470367083399372
20
1.4034872599474084
30
0
10
3.5846978327420809
20
1.4034872599474084
30
0
0
SPLINE
5
464
100
AcDbEntity
8
0
100
AcDbSpline
70
0
71
2
72
6
73
3
74
0
42
0.000000001
43
0.0000000001
44
0.0000000001
40
0
40
0
40
0
40
1
40
1
40
1
10
3.5846978327420809
20
1.4034872599474084
30
0
10
3.6268652560204089
20
1.4034872599474084
30
0
10
3.6564787208564695
20
1.4498392108857159
30
0
0
SPLINE
5
465
100
AcDbEntity
8
0
100
AcDbSpline
70
0
71
2
72
6
73
3
74
0
42
0.000000001
43
0.0000000001
44
0.0000000001
40
0
40
0
40
0
40
1
40
1
40
1
10
3.6564787208564695
20
1.4498392108857159
30
0
10
3.6864143323710641
20
1.4961911618240231
30
0
10
3.6864143323710641
20
1.5621781030039144
30
0
0
LINE
5
466
100
AcDbEntity
8
0
100
AcDbLine
10
3.774958862563762
20
1.3783799062563673
30
0
11
3.8148731364039978
21
1.4176502622018645
31
0
0
SPLINE
5
467
100
AcDbEntity
8
0
100
AcDbSpline
70
0
71
2
72
6
73
3
74
0
42
0.000000001
43
0.0000000001
44
0.0000000001
40
0
40
0
40
0
40
1
40
1
40
1
10
3.8148731364039978
20
1.4176502622018645
30
0
10
3.9021050502934851
20
1.438573088232926
30
0
10
3.9561821386570122
20
1.488465648936474
30
0
0
SPLINE
5
468
100
AcDbEntity
8
0
100
AcDbSpline
70
0
71
2
72
6
73
3
74
0
42
0.000000001
43
0.0000000001
44
0.0000000001
40
0
40
0
40
0
40
1
40
1
40
1
10
3.9561821386570122
20
1.488465648936474
30
0
10
4.0102596024828685
20
1.5383583973711865
30
0
10
4.0102596024828685
20
1.5979078491841709
30
0
0
SPLINE
5
469
100
AcDbEntity
8
0
100
AcDbSpline
70
0
71
2
72
6
73
3
74
0
42
0.000000001
43
0.0000000001
44
0.0000000001
40
0
40
0
40
0
40
1
40
1
40
1
10
4.0102596024828685
20
1.5979078491841709
30
0
10
4.0102596024828685
20
1.6323499473061145
30
0
10
3.9848302898444583
20
1.6548820048805293
30
0
0
SPLINE
5
470
100
AcDbEntity
8
0
100
AcDbSpline
70
0
71
2
72
6
73
3
74
0
42
0.000000001
43
0.0000000001
44
0.0000000001
40
0
40
0
40
0
40
1
40
1
40
1
10
3.9848302898444583
20
1.6548820048805293
30
0
10
3.9594009772060481
20
1.6774142501861087
30
0
10
3.9204527679390848
20
1.6774142501861087
30
0
0
SPLINE
5
471
100
AcDbEntity
8
0
100
AcDbSpline
70
0
71
2
72
6
73
3
74
0
42
0.000000001
43
0.0000000001
44
0.0000000001
40
0
40
0
40
0
40
1
40
1
40
1
10
3.9204527679390848
20
1.6774142501861087
30
0
10
3.873456899106039
20
1.6774142501861087
30
0
10
3.8296802442843574
20
1.6426503808479604
30
0
0
SPLINE
5
472
100
AcDbEntity
8
0
100
AcDbSpline
70
0
71
2
72
6
73
3
74
0
42
0.000000001
43
0.0000000001
44
0.0000000001
40
0
40
0
40
0
40
1
40
1
40
1
10
3.8296802442843574
20
1.6426503808479604
30
0
10
3.8267831769515266
20
1.6494100168934014
30
0
10
3.8267831769515266
20
1.651341207384124
30
0
0
SPLINE
5
473
100
AcDbEntity
8
0
100
AcDbSpline
70
0
71
2
72
6
73
3
74
0
42
0.000000001
43
0.0000000001
44
0.0000000001
40
0
40
0
40
0
40
1
40
1
40
1
10
3.8267831769515266
20
1.651341207384124
30
0
10
3.8267831769515266
20
1.6684014647025758
30
0
10
3.8773196555498135
20
1.6896460619498421
30
0
0
SPLINE
5
474
100
AcDbEntity
8
0
100
AcDbSpline
70
0
71
2
72
6
73
3
74
0
42
0.000000001
43
0.0000000001
44
0.0000000001
40
0
40
0
40
0
40
1
40
1
40
1
10
3.8773196555498135
20
1.6896460619498421
30
0
10
3.9278561341481
20
1.7112124304133132
30
0
10
3.9677700325260066
20
1.7112124304133132
30
0
0
SPLINE
5
475
100
AcDbEntity
8
0
100
AcDbSpline
70
0
71
2
72
6
73
3
74
0
42
0.000000001
43
0.0000000001
44
0.0000000001
40
0
40
0
40
0
40
1
40
1
40
1
10
3.9677700325260066
20
1.7112124304133132
30
0
10
4.0073625351500377
20
1.7112124304133132
30
0
10
4.0372981466646323
20
1.6861052644534369
30
0
0
SPLINE
5
476
100
AcDbEntity
8
0
100
AcDbSpline
70
0
71
2
72
6
73
3
74
0
42
0.000000001
43
0.0000000001
44
0.0000000001
40
0
40
0
40
0
40
1
40
1
40
1
10
4.0372981466646323
20
1.6861052644534369
30
0
10
4.0672337581792268
20
1.660997910762396
30
0
10
4.0672337581792268
20
1.6278434606987655
30
0
0
SPLINE
5
477
100
AcDbEntity
8
0
100
AcDbSpline
70
0
71
2
72
6
73
3
74
0
42
0.000000001
43
0.0000000001
44
0.0000000001
40
0
40
0
40
0
40
1
40
1
40
1
10
4.0672337581792268
20
1.6278434606987655
30
0
10
4.0672337581792268
20
1.5827789700876067
30
0
10
4.0128345231371654
20
1.5216202867312689
30
0
0
SPLINE
5
478
100
AcDbEntity
8
0
100
AcDbSpline
70
0
71
2
72
6
73
3
74
0
42
0.000000001
43
0.0000000001
44
0.0000000001
40
0
40
0
40
0
40
1
40
1
40
1
10
4.0128345231371654
20
1.5216202867312689
30
0
10
3.9587574347736383
20
1.4604614156437667
30
0
10
3.880538494098849
20
1.4176502622018645
30
0
0
LINE
5
479
100
AcDbEntity
8
0
100
AcDbLine
10
3.880538494098849
20
1.4176502622018645
30
0
11
4.0691651364011143
21
1.4083155177709621
31
0
0
LINE
5
480
100
AcDbEntity
8
0
100
AcDbLine
10
4.0691651364011143
20
1.4083155177709621
30
0
11
4.0315040119989707
21
1.3700108509364086
31
0
0
LINE
5
481
100
AcDbEntity
8
0
100
AcDbLine
10
4.0315040119989707
20
1.3700108509364086
30
0
11
3.774958862563762
21
1.3783799062563673
31
0
0
LINE
5
482
100
AcDbEntity
8
0
100
AcDbLine
10
4.1280958262954224
20
1.2895387608235271
30
0
11
4.1689757892466019
21
1.3313842251544858
31
0
0
SPLINE
5
483
100
AcDbEntity
8
0
100
AcDbSpline
70
0
71
2
72
6
73
3
74
0
42
0.000000001
43
0.0000000001
44
0.0000000001
40
0
40
0
40
0
40
1
40
1
40
1
10
4.1689757892466019
20
1.3313842251544858
30
0
10
4.214683822290171
20
1.3123927773453115
30
0
10
4.2497696505756881
20
1.3123927773453112
30
0
0
SPLINE
5
484
100
AcDbEntity
8
0
100
AcDbSpline
70
0
71
2
72
6
73
3
74
0
42
0.000000001
43
0.0000000001
44
0.0000000001
40
0
40
0
40
0
40
1
40
1
40
1
10
4.2497696505756881
20
1.3123927773453112
30
0
10
4.2948337657245181
20
1.3123927773453112
30
0
10
4.3228383744795549
20
1.3375001310363521
30
0
0
SPLINE
5
485
100
AcDbEntity
8
0
100
AcDbSpline
70
0
71
2
72
6
73
3
74
0
42
0.000000001
43
0.0000000001
44
0.0000000001
40
0
40
0
40
0
40
1
40
1
40
1
10
4.3228383744795549
20
1.3375001310363521
30
0
10
4.3508426077722619
20
1.3622855257800237
30
0
10
4.3508426077722619
20
1.4018778406728902
30
0
0
SPLINE
5
486
100
AcDbEntity
8
0
100
AcDbSpline
70
0
71
2
72
6
73
3
74
0
42
0.000000001
43
0.0000000001
44
0.0000000001
40
0
40
0
40
0
40
1
40
1
40
1
10
4.3508426077722619
20
1.4018778406728902
30
0
10
4.3508426077722619
20
1.4485515628274024
30
0
10
4.3115722518267647
20
1.476877755067479
30
0
0
SPLINE
5
487
100
AcDbEntity
8
0
100
AcDbSpline
70
0
71
2
72
6
73
3
74
0
42
0.000000001
43
0.0000000001
44
0.0000000001
40
0
40
0
40
0
40
1
40
1
40
1
10
4.3115722518267647
20
1.476877755067479
30
0
10
4.2726236670974727
20
1.5055259062549253
30
0
10
4.2085679164083043
20
1.5055259062549255
30
0
0
SPLINE
5
488
100
AcDbEntity
8
0
100
AcDbSpline
70
0
71
2
72
6
73
3
74
0
42
0.000000001
43
0.0000000001
44
0.0000000001
40
0
40
0
40
0
40
1
40
1
40
1
10
4.2085679164083043
20
1.5055259062549255
30
0
10
4.1963361046445709
20
1.5055259062549255
30
0
10
4.179597994004653
20
1.5035945280330383
30
0
0
LINE
5
489
100
AcDbEntity
8
0
100
AcDbLine
10
4.179597994004653
20
1.5035945280330383
30
0
11
4.2034176996373809
21
1.6535945445533808
31
0
0
LINE
5
490
100
AcDbEntity
8
0
100
AcDbLine
10
4.2034176996373809
20
1.6535945445533808
30
0
11
4.2504135684704272
21
1.7028433750933545
31
0
0
LINE
5
491
100
AcDbEntity
8
0
100
AcDbLine
10
4.2504135684704272
20
1.702843375093354
30
0
11
4.4293833196632564
21
1.702843375093354
31
0
0
LINE
5
492
100
AcDbEntity
8
0
100
AcDbLine
10
4.4293833196632564
20
1.702843375093354
30
0
11
4.3907568816124982
21
1.663573019147857
31
0
0
LINE
5
493
100
AcDbEntity
8
0
100
AcDbLine
10
4.3907568816124982
20
1.663573019147857
30
0
11
4.245906894131914
21
1.663573019147857
31
0
0
LINE
5
494
100
AcDbEntity
8
0
100
AcDbLine
10
4.245906894131914
20
1.663573019147857
30
0
11
4.2269156340539045
21
1.553165317520381
31
0
0
SPLINE
5
495
100
AcDbEntity
8
0
100
AcDbSpline
70
0
71
2
72
6
73
3
74
0
42
0.000000001
43
0.0000000001
44
0.0000000001
40
0
40
0
40
0
40
1
40
1
40
1
10
4.2269156340539045
20
1.5531653175203814
30
0
10
4.3843188290520967
20
1.5422211538149608
30
0
10
4.3843188290520967
20
1.4366417100110385
30
0
0
SPLINE
5
496
100
AcDbEntity
8
0
100
AcDbSpline
70
0
71
2
72
6
73
3
74
0
42
0.000000001
43
0.0000000001
44
0.0000000001
40
0
40
0
40
0
40
1
40
1
40
1
10
4.3843188290520967
20
1.4366417100110385
30
0
10
4.3843188290520967
20
1.3722640003745004
30
0
10
4.3315292010157185
20
1.3255902782199882
30
0
0
SPLINE
5
497
100
AcDbEntity
8
0
100
AcDbSpline
70
0
71
2
72
6
73
3
74
0
42
0.000000001
43
0.0000000001
44
0.0000000001
40
0
40
0
40
0
40
1
40
1
40
1
10
4.3315292010157185
20
1.3255902782199882
30
0
10
4.2787395729793394
20
1.2785945971181065
30
0
10
4.2059926202916778
20
1.278594597118107
30
0
0
SPLINE
5
498
100
AcDbEntity
8
0
100
AcDbSpline
70
0
71
2
72
6
73
3
74
0
42
0.000000001
43
0.0000000001
44
0.0000000001
40
0
40
0
40
0
40
1
40
1
40
1
10
4.2059926202916778
20
1.278594597118107
30
0
10
4.1602845872481096
20
1.278594597118107
30
0
10
4.1280958262954224
20
1.2895387608235271
30
0
0
ENDSEC
0
SECTION
2
OBJECTS
0
DICTIONARY
5
C
100
AcDbDictionary
3
ACAD_GROUP
350
D
3
ACAD_MLINESTYLE
350
17
0
DICTIONARY
5
D
100
AcDbDictionary
0
DICTIONARY
5
1A
330
C
100
AcDbDictionary
0
DICTIONARY
5
17
100
AcDbDictionary
0
ENDSEC
0
EOF
