0
SECTION
2
HEADER
9
$INSUNITS
70
1
9
$ACADVER
1
AC1014
9
$HANDSEED
5
FFFF
0
ENDSEC
0
SECTION
2
TABLES
0
TABLE
2
VPORT
5
8
100
AcDbSymbolTable
0
ENDTAB
0
TABLE
2
LTYPE
5
5
100
AcDbSymbolTable
0
LTYPE
5
14
100
AcDbSymbolTableRecord
100
AcDbLinetypeTableRecord
2
BYBLOCK
70
0
0
LTYPE
5
15
100
AcDbSymbolTableRecord
100
AcDbLinetypeTableRecord
2
BYLAYER
70
0
0
LTYPE
5
16
100
AcDbSymbolTableRecord
100
AcDbLinetypeTableRecord
2
DASHED
70
0
3
Dashed __ __ __ __ __ __ __ __ __ __ __ __ __ _
72
65
73
2
40
0.75
49
0.5
74
0
49
-0.25
74
0
0
ENDTAB
0
TABLE
2
LAYER
5
2
100
AcDbSymbolTable
70
3
0
LAYER
5
50
100
AcDbSymbolTableRecord
100
AcDbLayerTableRecord
2
1
70
0
62
7
6
DASHED
0
LAYER
5
51
100
AcDbSymbolTableRecord
100
AcDbLayerTableRecord
2
0
70
0
62
7
6
CONTINUOUS
0
ENDTAB
0
TABLE
2
STYLE
5
3
100
AcDbSymbolTable
70
1
0
STYLE
5
11
100
AcDbSymbolTableRecord
100
AcDbTextStyleTableRecord
2
STANDARD
70
0
0
ENDTAB
0
TABLE
2
VIEW
5
6
100
AcDbSymbolTable
70
0
0
ENDTAB
0
TABLE
2
UCS
5
7
100
AcDbSymbolTable
70
0
0
ENDTAB
0
TABLE
2
APPID
5
9
100
AcDbSymbolTable
70
2
0
APPID
5
12
100
AcDbSymbolTableRecord
100
AcDbRegAppTableRecord
2
ACAD
70
0
0
ENDTAB
0
TABLE
2
DIMSTYLE
5
A
100
AcDbSymbolTable
70
1
0
ENDTAB
0
TABLE
2
BLOCK_RECORD
5
1
100
AcDbSymbolTable
70
1
0
BLOCK_RECORD
5
1F
100
AcDbSymbolTableRecord
100
AcDbBlockTableRecord
2
*MODEL_SPACE
0
BLOCK_RECORD
5
1B
100
AcDbSymbolTableRecord
100
AcDbBlockTableRecord
2
*PAPER_SPACE
0
ENDTAB
0
ENDSEC
0
SECTION
2
BLOCKS
0
BLOCK
5
20
100
AcDbEntity
100
AcDbBlockBegin
2
*MODEL_SPACE
0
ENDBLK
5
21
100
AcDbEntity
100
AcDbBlockEnd
0
BLOCK
5
1C
100
AcDbEntity
100
AcDbBlockBegin
2
*PAPER_SPACE
0
ENDBLK
5
1D
100
AcDbEntity
100
AcDbBlockEnd
0
ENDSEC
0
SECTION
2
ENTITIES
0
LWPOLYLINE
5
100
100
AcDbEntity
8
0
100
AcDbPolyline
90
28
70
1
43
0.0
10
-4.25
20
0.12499999999999999
10
-3.2499999999999996
20
0.12499999999999999
10
-3.2499999999999996
20
0
10
-2.4999999999999996
20
0
10
-2.4999999999999996
20
0.12499999999999999
10
-1.7500000319142976
20
0.12499999999999999
10
-1.7500000319142976
20
0
10
-1.0000000319142979
20
0
10
-1.0000000319142979
20
0.12499999999999999
10
0
20
0.12499999999999999
10
-1.418413173441841e-08
20
1.124999984929359
10
-0.12500002482223171
20
1.1249999858158675
10
-0.12500001950318221
20
1.8749999858158675
10
-1.9503181921597536e-08
20
1.874999984929359
10
-1.418413173441841e-08
20
2.6249999849293593
10
-0.12500001418413204
20
2.624999985815867
10
-0.12500000886508256
20
3.3749999858158679
10
-8.8650822465923708e-09
20
3.3749999849293597
10
6.9935308637805131e-16
20
4.1249999999999991
10
-4.2500000310277892
20
4.1249999999999991
10
-4.250000023049215
20
3.3750000000000004
10
-4.125000023049215
20
3.3750000000000004
10
-4.1250000177301649
20
2.6249999999999996
10
-4.2500000177301658
20
2.6249999999999996
10
-4.2500000124111157
20
1.8749999999999996
10
-4.1250000124111148
20
1.8749999999999991
10
-4.1250000070920656
20
1.1249999999999998
10
-4.2500000177301658
20
1.1249999999999998
0
ARC
5
101
100
AcDbEntity
8
0
100
AcDbCircle
10
-2.6413332175097413
20
2.6565037483508287
30
0
40
0.52371493042062534
210
0
220
-0
230
1
100
AcDbArc
50
9.6312049549667389
51
214.0367804394657
0
ARC
5
102
100
AcDbEntity
8
0
100
AcDbCircle
10
-1.6086668138435061
20
2.6565037482363953
30
0
40
0.52371493042061446
210
-0
220
0
230
1
100
AcDbArc
50
-34.036780452164052
51
170.36879503233493
0
LINE
5
103
100
AcDbEntity
8
0
100
AcDbLine
10
-2.1250000158650177
20
0.95640253348694981
30
0
11
-3.0753244857029847
21
2.3633674191838341
31
0
0
LINE
5
104
100
AcDbEntity
8
0
100
AcDbLine
10
-2.1250000158650177
20
0.95640253348694981
30
0
11
-1.1746755457152389
21
2.3633674189732221
31
0
0
ENDSEC
0
SECTION
2
OBJECTS
0
DICTIONARY
5
C
100
AcDbDictionary
3
ACAD_GROUP
350
D
3
ACAD_MLINESTYLE
350
17
0
DICTIONARY
5
D
100
AcDbDictionary
0
DICTIONARY
5
1A
330
C
100
AcDbDictionary
0
DICTIONARY
5
17
100
AcDbDictionary
0
ENDSEC
0
EOF
